  0
SECTION
  2
HEADER
  9
$ACADVER
  1
AC1032
  9
$ACADMAINTVER
 90
      228
  9
$DWGCODEPAGE
  3
ANSI_1252
  9
$REQUIREDVERSIONS
160
                 0
  9
$INSBASE
 10
0.0
 20
0.0
 30
0.0
  9
$EXTMIN
 10
1.000000000000000E+20
 20
1.000000000000000E+20
 30
1.000000000000000E+20
  9
$EXTMAX
 10
-1.000000000000000E+20
 20
-1.000000000000000E+20
 30
-1.000000000000000E+20
  9
$LIMMIN
 10
0.0
 20
0.0
  9
$LIMMAX
 10
12.0
 20
9.0
  9
$ORTHOMODE
 70
     0
  9
$REGENMODE
 70
     1
  9
$FILLMODE
 70
     1
  9
$QTEXTMODE
 70
     0
  9
$MIRRTEXT
 70
     0
  9
$LTSCALE
 40
1.0
  9
$ATTMODE
 70
     1
  9
$TEXTSIZE
 40
0.2
  9
$TRACEWID
 40
0.05
  9
$TEXTSTYLE
  7
Standard
  9
$CLAYER
  8
0
  9
$CELTYPE
  6
ByLayer
  9
$CECOLOR
 62
   256
  9
$CELTSCALE
 40
1.0
  9
$DISPSILH
 70
     0
  9
$DIMSCALE
 40
1.0
  9
$DIMASZ
 40
0.18
  9
$DIMEXO
 40
0.0625
  9
$DIMDLI
 40
0.38
  9
$DIMRND
 40
0.0
  9
$DIMDLE
 40
0.0
  9
$DIMEXE
 40
0.18
  9
$DIMTP
 40
0.0
  9
$DIMTM
 40
0.0
  9
$DIMTXT
 40
0.18
  9
$DIMCEN
 40
0.09
  9
$DIMTSZ
 40
0.0
  9
$DIMTOL
 70
     0
  9
$DIMLIM
 70
     0
  9
$DIMTIH
 70
     1
  9
$DIMTOH
 70
     1
  9
$DIMSE1
 70
     0
  9
$DIMSE2
 70
     0
  9
$DIMTAD
 70
     0
  9
$DIMZIN
 70
     0
  9
$DIMBLK
  1

  9
$DIMASO
 70
     1
  9
$DIMSHO
 70
     1
  9
$DIMPOST
  1

  9
$DIMAPOST
  1

  9
$DIMALT
 70
     0
  9
$DIMALTD
 70
     2
  9
$DIMALTF
 40
25.4
  9
$DIMLFAC
 40
1.0
  9
$DIMTOFL
 70
     0
  9
$DIMTVP
 40
0.0
  9
$DIMTIX
 70
     0
  9
$DIMSOXD
 70
     0
  9
$DIMSAH
 70
     0
  9
$DIMBLK1
  1

  9
$DIMBLK2
  1

  9
$DIMSTYLE
  2
Standard
  9
$DIMCLRD
 70
     0
  9
$DIMCLRE
 70
     0
  9
$DIMCLRT
 70
     0
  9
$DIMTFAC
 40
1.0
  9
$DIMGAP
 40
0.09
  9
$DIMJUST
 70
     0
  9
$DIMSD1
 70
     0
  9
$DIMSD2
 70
     0
  9
$DIMTOLJ
 70
     1
  9
$DIMTZIN
 70
     0
  9
$DIMALTZ
 70
     0
  9
$DIMALTTZ
 70
     0
  9
$DIMUPT
 70
     0
  9
$DIMDEC
 70
     4
  9
$DIMTDEC
 70
     4
  9
$DIMALTU
 70
     2
  9
$DIMALTTD
 70
     2
  9
$DIMTXSTY
  7
Standard
  9
$DIMAUNIT
 70
     0
  9
$DIMADEC
 70
     0
  9
$DIMALTRND
 40
0.0
  9
$DIMAZIN
 70
     0
  9
$DIMDSEP
 70
    46
  9
$DIMATFIT
 70
     3
  9
$DIMFRAC
 70
     0
  9
$DIMLDRBLK
  1

  9
$DIMLUNIT
 70
     2
  9
$DIMLWD
 70
    -2
  9
$DIMLWE
 70
    -2
  9
$DIMTMOVE
 70
     0
  9
$DIMFXL
 40
1.0
  9
$DIMFXLON
 70
     0
  9
$DIMJOGANG
 40
0.7853981633974483
  9
$DIMTFILL
 70
     0
  9
$DIMTFILLCLR
 70
     0
  9
$DIMARCSYM
 70
     0
  9
$DIMLTYPE
  6

  9
$DIMLTEX1
  6

  9
$DIMLTEX2
  6

  9
$DIMTXTDIRECTION
 70
     0
  9
$LUNITS
 70
     2
  9
$LUPREC
 70
     4
  9
$SKETCHINC
 40
0.1
  9
$FILLETRAD
 40
0.0
  9
$AUNITS
 70
     0
  9
$AUPREC
 70
     0
  9
$MENU
  1
.
  9
$ELEVATION
 40
0.0
  9
$PELEVATION
 40
0.0
  9
$THICKNESS
 40
0.0
  9
$LIMCHECK
 70
     0
  9
$CHAMFERA
 40
0.0
  9
$CHAMFERB
 40
0.0
  9
$CHAMFERC
 40
0.0
  9
$CHAMFERD
 40
0.0
  9
$SKPOLY
 70
     0
  9
$TDCREATE
 40
2460466.811655093
  9
$TDUCREATE
 40
2460466.561655092
  9
$TDUPDATE
 40
2460466.811655093
  9
$TDUUPDATE
 40
2460466.561655092
  9
$TDINDWG
 40
0.0001157407
  9
$TDUSRTIMER
 40
0.0001157407
  9
$USRTIMER
 70
     1
  9
$ANGBASE
 50
0.0
  9
$ANGDIR
 70
     0
  9
$PDMODE
 70
     0
  9
$PDSIZE
 40
0.0
  9
$PLINEWID
 40
0.0
  9
$SPLFRAME
 70
     0
  9
$SPLINETYPE
 70
     6
  9
$SPLINESEGS
 70
     8
  9
$HANDSEED
  5
162
  9
$SURFTAB1
 70
     6
  9
$SURFTAB2
 70
     6
  9
$SURFTYPE
 70
     6
  9
$SURFU
 70
     6
  9
$SURFV
 70
     6
  9
$UCSBASE
  2

  9
$UCSNAME
  2

  9
$UCSORG
 10
0.0
 20
0.0
 30
0.0
  9
$UCSXDIR
 10
1.0
 20
0.0
 30
0.0
  9
$UCSYDIR
 10
0.0
 20
1.0
 30
0.0
  9
$UCSORTHOREF
  2

  9
$UCSORTHOVIEW
 70
     0
  9
$UCSORGTOP
 10
0.0
 20
0.0
 30
0.0
  9
$UCSORGBOTTOM
 10
0.0
 20
0.0
 30
0.0
  9
$UCSORGLEFT
 10
0.0
 20
0.0
 30
0.0
  9
$UCSORGRIGHT
 10
0.0
 20
0.0
 30
0.0
  9
$UCSORGFRONT
 10
0.0
 20
0.0
 30
0.0
  9
$UCSORGBACK
 10
0.0
 20
0.0
 30
0.0
  9
$PUCSBASE
  2

  9
$PUCSNAME
  2

  9
$PUCSORG
 10
0.0
 20
0.0
 30
0.0
  9
$PUCSXDIR
 10
1.0
 20
0.0
 30
0.0
  9
$PUCSYDIR
 10
0.0
 20
1.0
 30
0.0
  9
$PUCSORTHOREF
  2

  9
$PUCSORTHOVIEW
 70
     0
  9
$PUCSORGTOP
 10
0.0
 20
0.0
 30
0.0
  9
$PUCSORGBOTTOM
 10
0.0
 20
0.0
 30
0.0
  9
$PUCSORGLEFT
 10
0.0
 20
0.0
 30
0.0
  9
$PUCSORGRIGHT
 10
0.0
 20
0.0
 30
0.0
  9
$PUCSORGFRONT
 10
0.0
 20
0.0
 30
0.0
  9
$PUCSORGBACK
 10
0.0
 20
0.0
 30
0.0
  9
$USERI1
 70
     0
  9
$USERI2
 70
     0
  9
$USERI3
 70
     0
  9
$USERI4
 70
     0
  9
$USERI5
 70
     0
  9
$USERR1
 40
0.0
  9
$USERR2
 40
0.0
  9
$USERR3
 40
0.0
  9
$USERR4
 40
0.0
  9
$USERR5
 40
0.0
  9
$WORLDVIEW
 70
     1
  9
$SHADEDGE
 70
     3
  9
$SHADEDIF
 70
    70
  9
$TILEMODE
 70
     1
  9
$MAXACTVP
 70
    64
  9
$PINSBASE
 10
0.0
 20
0.0
 30
0.0
  9
$PLIMCHECK
 70
     0
  9
$PEXTMIN
 10
1.000000000000000E+20
 20
1.000000000000000E+20
 30
1.000000000000000E+20
  9
$PEXTMAX
 10
-1.000000000000000E+20
 20
-1.000000000000000E+20
 30
-1.000000000000000E+20
  9
$PLIMMIN
 10
0.0
 20
0.0
  9
$PLIMMAX
 10
12.0
 20
9.0
  9
$UNITMODE
 70
     0
  9
$VISRETAIN
 70
     1
  9
$PLINEGEN
 70
     0
  9
$PSLTSCALE
 70
     1
  9
$TREEDEPTH
 70
  3020
  9
$CMLSTYLE
  2
Standard
  9
$CMLJUST
 70
     0
  9
$CMLSCALE
 40
1.0
  9
$PROXYGRAPHICS
 70
     1
  9
$MEASUREMENT
 70
     0
  9
$CELWEIGHT
370
    -1
  9
$ENDCAPS
280
     0
  9
$JOINSTYLE
280
     0
  9
$LWDISPLAY
290
     1
  9
$INSUNITS
 70
     0
  9
$HYPERLINKBASE
  1

  9
$STYLESHEET
  1

  9
$XEDIT
290
     1
  9
$CEPSNTYPE
380
     0
  9
$PSTYLEMODE
290
     1
  9
$FINGERPRINTGUID
  2
{28CF30A8-88CF-DC43-89AF-17F47472A62E}
  9
$VERSIONGUID
  2
{FB10D9E9-B844-8446-827B-5D344E815DD4}
  9
$EXTNAMES
290
     1
  9
$PSVPSCALE
 40
0.0
  9
$OLESTARTUP
290
     0
  9
$SORTENTS
280
   127
  9
$INDEXCTL
280
     0
  9
$HIDETEXT
280
     1
  9
$XCLIPFRAME
280
     2
  9
$HALOGAP
280
     0
  9
$OBSCOLOR
 70
   257
  9
$OBSLTYPE
280
     0
  9
$INTERSECTIONDISPLAY
280
     0
  9
$INTERSECTIONCOLOR
 70
   257
  9
$DIMASSOC
280
     2
  9
$PROJECTNAME
  1

  9
$CAMERADISPLAY
290
     0
  9
$LENSLENGTH
 40
50.0
  9
$CAMERAHEIGHT
 40
0.0
  9
$STEPSPERSEC
 40
2.0
  9
$STEPSIZE
 40
6.0
  9
$3DDWFPREC
 40
2.0
  9
$PSOLWIDTH
 40
0.25
  9
$PSOLHEIGHT
 40
4.0
  9
$LOFTANG1
 40
1.570796326794896
  9
$LOFTANG2
 40
1.570796326794896
  9
$LOFTMAG1
 40
0.0
  9
$LOFTMAG2
 40
0.0
  9
$LOFTPARAM
 70
     7
  9
$LOFTNORMALS
280
     1
  9
$LATITUDE
 40
37.795
  9
$LONGITUDE
 40
-122.394
  9
$NORTHDIRECTION
 40
0.0
  9
$TIMEZONE
 70
 -8000
  9
$LIGHTGLYPHDISPLAY
280
     1
  9
$TILEMODELIGHTSYNCH
280
     1
  9
$CMATERIAL
347
11
  9
$SOLIDHIST
280
     0
  9
$SHOWHIST
280
     1
  9
$DWFFRAME
280
     2
  9
$DGNFRAME
280
     0
  9
$REALWORLDSCALE
290
     1
  9
$INTERFERECOLOR
 62
     1
  9
$INTERFEREOBJVS
345
33
  9
$INTERFEREVPVS
346
30
  9
$CSHADOW
280
     0
  9
$SHADOWPLANELOCATION
 40
0.0
  0
ENDSEC
  0
SECTION
  2
CLASSES
  0
CLASS
  1
ACDBDICTIONARYWDFLT
  2
AcDbDictionaryWithDefault
  3
ObjectDBX Classes
 90
        0
 91
        1
280
     0
281
     0
  0
CLASS
  1
MATERIAL
  2
AcDbMaterial
  3
ObjectDBX Classes
 90
     1153
 91
        3
280
     0
281
     0
  0
CLASS
  1
VISUALSTYLE
  2
AcDbVisualStyle
  3
ObjectDBX Classes
 90
     4095
 91
       24
280
     0
281
     0
  0
CLASS
  1
SCALE
  2
AcDbScale
  3
ObjectDBX Classes
 90
     1153
 91
       17
280
     0
281
     0
  0
CLASS
  1
TABLESTYLE
  2
AcDbTableStyle
  3
ObjectDBX Classes
 90
     4095
 91
        1
280
     0
281
     0
  0
CLASS
  1
MLEADERSTYLE
  2
AcDbMLeaderStyle
  3
ACDB_MLEADERSTYLE_CLASS
 90
     4095
 91
        1
280
     0
281
     0
  0
CLASS
  1
ACDBSECTIONVIEWSTYLE
  2
AcDbSectionViewStyle
  3
ObjectDBX Classes
 90
     1025
 91
        1
280
     0
281
     0
  0
CLASS
  1
ACDBDETAILVIEWSTYLE
  2
AcDbDetailViewStyle
  3
ObjectDBX Classes
 90
     1025
 91
        1
280
     0
281
     0
  0
CLASS
  1
IMAGEDEF
  2
AcDbRasterImageDef
  3
ISM
 90
        0
 91
       32
280
     0
281
     0
  0
CLASS
  1
IMAGE
  2
AcDbRasterImage
  3
ISM
 90
     2175
 91
       32
280
     0
281
     1
  0
CLASS
  1
DICTIONARYVAR
  2
AcDbDictionaryVar
  3
ObjectDBX Classes
 90
        0
 91
        5
280
     0
281
     0
  0
CLASS
  1
CELLSTYLEMAP
  2
AcDbCellStyleMap
  3
ObjectDBX Classes
 90
     1152
 91
        1
280
     0
281
     0
  0
ENDSEC
  0
SECTION
  2
TABLES
  0
TABLE
  2
VPORT
  5
8
330
0
100
AcDbSymbolTable
 70
     1
  0
VPORT
  5
57
330
8
100
AcDbSymbolTableRecord
100
AcDbViewportTableRecord
  2
*Active
 70
     0
 10
0.0
 20
0.0
 11
1.0
 21
1.0
 12
0.0
 22
0.0
 13
0.0
 23
0.0
 14
1.0
 24
1.0
 15
0.0
 25
0.0
 16
0.0
 26
0.0
 36
1.0
 17
960.0
 27
540.0
 37
0.0
 40
3174.240000000001
 41
0.3277634961439589
 42
50.0
 43
0.0
 44
0.0
 50
0.0
 51
0.0
 71
     0
 72
   100
 73
     1
 74
     1
 75
     0
 76
     0
 77
     0
 78
     0
281
     0
 65
     1
110
0.0
120
0.0
130
0.0
111
1.0
121
0.0
131
0.0
112
0.0
122
1.0
132
0.0
 79
     0
146
0.0
 60
     3
 61
     5
292
     1
282
     1
141
0.0
142
0.0
 63
   250
421
  3355443
  0
ENDTAB
  0
TABLE
  2
LTYPE
  5
5
330
0
100
AcDbSymbolTable
 70
     1
  0
LTYPE
  5
5B
330
5
100
AcDbSymbolTableRecord
100
AcDbLinetypeTableRecord
  2
ByBlock
 70
     0
  3

 72
    65
 73
     0
 40
0.0
  0
LTYPE
  5
5C
330
5
100
AcDbSymbolTableRecord
100
AcDbLinetypeTableRecord
  2
ByLayer
 70
     0
  3

 72
    65
 73
     0
 40
0.0
  0
LTYPE
  5
5D
330
5
100
AcDbSymbolTableRecord
100
AcDbLinetypeTableRecord
  2
Continuous
 70
     0
  3
Solid line
 72
    65
 73
     0
 40
0.0
  0
ENDTAB
  0
TABLE
  2
LAYER
  5
2
330
0
100
AcDbSymbolTable
 70
    10
  0
LAYER
  5
54
330
2
100
AcDbSymbolTableRecord
100
AcDbLayerTableRecord
  2
0
 70
     0
 62
     7
  6
Continuous
370
    -3
390
F
347
21
348
0
  0
LAYER
  5
78
330
2
100
AcDbSymbolTableRecord
100
AcDbLayerTableRecord
  2
Background Image
 70
     0
 62
     7
  6
Continuous
370
     0
390
F
347
21
348
0
  0
LAYER
  5
7E
330
2
100
AcDbSymbolTableRecord
100
AcDbLayerTableRecord
  2
Footer
 70
     0
 62
     7
  6
Continuous
370
     0
390
F
347
21
348
0
  0
LAYER
  5
B0
330
2
100
AcDbSymbolTableRecord
100
AcDbLayerTableRecord
  2
Testimonial
 70
     0
 62
     7
  6
Continuous
370
     0
390
F
347
21
348
0
  0
LAYER
  5
CA
330
2
100
AcDbSymbolTableRecord
100
AcDbLayerTableRecord
  2
Our Team
 70
     0
 62
     7
  6
Continuous
370
     0
390
F
347
21
348
0
  0
LAYER
  5
EC
330
2
100
AcDbSymbolTableRecord
100
AcDbLayerTableRecord
  2
Our Portfolio
 70
     0
 62
     7
  6
Continuous
370
     0
390
F
347
21
348
0
  0
LAYER
  5
10D
330
2
100
AcDbSymbolTableRecord
100
AcDbLayerTableRecord
  2
Our Services
 70
     0
 62
     7
  6
Continuous
370
     0
390
F
347
21
348
0
  0
LAYER
  5
133
330
2
100
AcDbSymbolTableRecord
100
AcDbLayerTableRecord
  2
About Us
 70
     0
 62
     7
  6
Continuous
370
     0
390
F
347
21
348
0
  0
LAYER
  5
144
330
2
100
AcDbSymbolTableRecord
100
AcDbLayerTableRecord
  2
Slider
 70
     0
 62
     7
  6
Continuous
370
     0
390
F
347
21
348
0
  0
LAYER
  5
152
330
2
100
AcDbSymbolTableRecord
100
AcDbLayerTableRecord
  2
Header
 70
     0
 62
     7
  6
Continuous
370
     0
390
F
347
21
348
0
  0
ENDTAB
  0
TABLE
  2
STYLE
  5
3
330
0
100
AcDbSymbolTable
 70
     2
  0
STYLE
  5
55
330
3
100
AcDbSymbolTableRecord
100
AcDbTextStyleTableRecord
  2
Standard
 70
     0
 40
0.0
 41
1.0
 50
0.0
 71
     0
 42
0.2
  3
txt
  4

  0
STYLE
  5
5A
330
3
100
AcDbSymbolTableRecord
100
AcDbTextStyleTableRecord
  2
Annotative
 70
     0
 40
0.0
 41
1.0
 50
0.0
 71
     0
 42
0.2
  3
txt
  4

1001
AcadAnnotative
1000
AnnotativeData
1002
{
1070
     1
1070
     1
1002
}
  0
ENDTAB
  0
TABLE
  2
VIEW
  5
6
330
0
100
AcDbSymbolTable
 70
     0
  0
ENDTAB
  0
TABLE
  2
UCS
  5
7
330
0
100
AcDbSymbolTable
 70
     0
  0
ENDTAB
  0
TABLE
  2
APPID
  5
9
330
0
100
AcDbSymbolTable
 70
     2
  0
APPID
  5
56
330
9
100
AcDbSymbolTableRecord
100
AcDbRegAppTableRecord
  2
ACAD
 70
     0
  0
APPID
  5
5E
330
9
100
AcDbSymbolTableRecord
100
AcDbRegAppTableRecord
  2
AcadAnnotative
 70
     0
  0
ENDTAB
  0
TABLE
  2
DIMSTYLE
  5
A
330
0
100
AcDbSymbolTable
 70
     2
100
AcDbDimStyleTable
 71
     0
  0
DIMSTYLE
105
58
330
A
100
AcDbSymbolTableRecord
100
AcDbDimStyleTableRecord
  2
Standard
 70
     0
340
55
  0
DIMSTYLE
105
59
330
A
100
AcDbSymbolTableRecord
100
AcDbDimStyleTableRecord
  2
Annotative
 70
     0
340
55
1001
AcadAnnotative
1000
AnnotativeData
1002
{
1070
     1
1070
     1
1002
}
  0
ENDTAB
  0
TABLE
  2
BLOCK_RECORD
  5
1
330
0
100
AcDbSymbolTable
 70
     1
  0
BLOCK_RECORD
  5
70
330
1
100
AcDbSymbolTableRecord
100
AcDbBlockTableRecord
  2
*Model_Space
340
73
 70
     0
280
     1
281
     0
  0
BLOCK_RECORD
  5
6C
330
1
100
AcDbSymbolTableRecord
100
AcDbBlockTableRecord
  2
*Paper_Space
340
6F
 70
     0
280
     1
281
     0
  0
BLOCK_RECORD
  5
74
330
1
100
AcDbSymbolTableRecord
100
AcDbBlockTableRecord
  2
*Paper_Space0
340
77
 70
     0
280
     1
281
     0
  0
ENDTAB
  0
ENDSEC
  0
SECTION
  2
BLOCKS
  0
BLOCK
  5
71
330
70
100
AcDbEntity
  8
0
100
AcDbBlockBegin
  2
*Model_Space
 70
     0
 10
0.0
 20
0.0
 30
0.0
  3
*Model_Space
  1

  0
ENDBLK
  5
72
330
70
100
AcDbEntity
  8
0
100
AcDbBlockEnd
  0
BLOCK
  5
6D
330
6C
100
AcDbEntity
 67
     1
  8
0
100
AcDbBlockBegin
  2
*Paper_Space
 70
     0
 10
0.0
 20
0.0
 30
0.0
  3
*Paper_Space
  1

  0
ENDBLK
  5
6E
330
6C
100
AcDbEntity
 67
     1
  8
0
100
AcDbBlockEnd
  0
BLOCK
  5
75
330
74
100
AcDbEntity
 67
     1
  8
0
100
AcDbBlockBegin
  2
*Paper_Space0
 70
     0
 10
0.0
 20
0.0
 30
0.0
  3
*Paper_Space0
  1

  0
ENDBLK
  5
76
330
74
100
AcDbEntity
 67
     1
  8
0
100
AcDbBlockEnd
  0
ENDSEC
  0
SECTION
  2
ENTITIES
  0
IMAGE
  5
7B
330
70
100
AcDbEntity
  8
Background Image
160
               140
310
8C000000010000008400000006000000050000000000000000207C400000000000C08FC000000000000000000000000000207C40000000000060A04000000000000000000000000000F89640000000000060A04000000000000000000000000000F896400000000000C08FC000000000000000000000000000207C40000000
310
0000C08FC00000000000000000
100
AcDbRasterImage
 90
        0
 10
450.0
 20
-1016.0
 30
0.0
 11
1.0
 21
0.0
 31
0.0
 12
0.0
 22
1.0
 32
0.0
 13
1020.0
 23
3112.0
340
7A
 70
     3
280
     0
281
    50
282
    50
283
     0
290
     0
360
0
 71
     1
 91
        2
 14
-0.5
 24
-0.5
 14
1019.5
 24
3111.5
  0
IMAGE
  5
7D
330
70
100
AcDbEntity
  8
Background Image
160
               140
310
8C000000010000008400000006000000050000000000000000207C400000000000C08FC000000000000000000000000000207C40000000000060A04000000000000000000000000000F89640000000000060A04000000000000000000000000000F896400000000000C08FC000000000000000000000000000207C40000000
310
0000C08FC00000000000000000
100
AcDbRasterImage
 90
        0
 10
450.0
 20
-1016.0
 30
0.0
 11
1.0
 21
0.0
 31
0.0
 12
0.0
 22
1.0
 32
0.0
 13
1020.0
 23
3112.0
340
7C
 70
     3
280
     0
281
    50
282
    50
283
     0
290
     0
360
0
 71
     1
 91
        2
 14
-0.5
 24
-0.5
 14
1019.5
 24
3111.5
  0
LWPOLYLINE
  5
7F
330
70
100
AcDbEntity
  8
Footer
100
AcDbPolyline
 90
        4
 70
     1
 43
0.0
 10
450.0
 20
-972.0
 10
450.0
 20
-1016.0
 10
1470.0
 20
-1016.0
 10
1470.0
 20
-972.0
  0
MTEXT
  5
80
330
70
100
AcDbEntity
  8
Footer
100
AcDbMText
 10
816.0
 20
-998.0
 30
0.0
 40
0.2
 41
0.0
 46
0.0
 71
     7
 72
     1
  1
\C7;\c15856113;\FOpenSans|b0|i0|c1;\H9.204000;\W1.000000;Copyright\FOswald Medium|b0|i0|c1; \FFontAwesome|b0|i0|c1; \FOpenSans|b0|i0|c1;2017. All rights reserved by \C151;\c16041307;BEATLS
 73
     1
 44
1.0
  0
LWPOLYLINE
  5
81
330
70
100
AcDbEntity
  8
Footer
100
AcDbPolyline
 90
        4
 70
     1
 43
0.0
 10
450.0
 20
-677.9998168945312
 10
450.0
 20
-972.0
 10
1470.0
 20
-972.0
 10
1470.0
 20
-677.9998168945312
  0
MTEXT
  5
82
330
70
100
AcDbEntity
  8
Footer
100
AcDbMText
 10
969.0
 20
-765.2298889160156
 30
0.0
 40
0.2
 41
0.0
 46
0.0
 71
     7
 72
     1
  1
\C7;\c16777215;\FOpenSans|b0|i0|c1;\H9.204000;\W1.000000;Home^I   Pricing
 73
     1
 44
1.0
  0
MTEXT
  5
83
330
70
100
AcDbEntity
  8
Footer
100
AcDbMText
 10
969.0
 20
-801.2298889160156
 30
0.0
 40
0.2
 41
0.0
 46
0.0
 71
     7
 72
     1
  1
\C7;\c16777215;\FOpenSans|b0|i0|c1;\H9.204000;\W1.000000;About us^I   Blog
 73
     1
 44
1.0
  0
MTEXT
  5
84
330
70
100
AcDbEntity
  8
Footer
100
AcDbMText
 10
969.0
 20
-837.2298889160155
 30
0.0
 40
0.2
 41
0.0
 46
0.0
 71
     7
 72
     1
  1
\C151;\c16041307;\FOpenSans|b0|i0|c1;\H9.204000;\W1.000000;portfolio\C7;\c16777215;^I   Feedback
 73
     1
 44
1.0
  0
MTEXT
  5
85
330
70
100
AcDbEntity
  8
Footer
100
AcDbMText
 10
969.0
 20
-873.2298889160157
 30
0.0
 40
0.2
 41
0.0
 46
0.0
 71
     7
 72
     1
  1
\C7;\c16777215;\FOpenSans|b0|i0|c1;\H9.204000;\W1.000000;Our Team
 73
     1
 44
1.0
  0
MTEXT
  5
86
330
70
100
AcDbEntity
  8
Footer
100
AcDbMText
 10
969.0
 20
-909.2298889160156
 30
0.0
 40
0.2
 41
0.0
 46
0.0
 71
     7
 72
     1
  1
\C7;\c16777215;\FOpenSans|b0|i0|c1;\H9.204000;\W1.000000;Blog
 73
     1
 44
1.0
  0
MTEXT
  5
87
330
70
100
AcDbEntity
  8
Footer
100
AcDbMText
 10
970.0
 20
-725.0
 30
0.0
 40
0.2
 41
0.0
 46
0.0
 71
     7
 72
     1
  1
\C7;\c16777215;\FOswald Medium|b0|i0|c1;\H11.328000;\W1.000000;Important Links
 73
     1
 44
1.0
  0
IMAGE
  5
89
330
70
100
AcDbEntity
  8
Footer
160
               140
310
8C000000010000008400000006000000050000000000000000F094400000000000C08DC000000000000000000000000000F094400000000000F08AC0000000000000000000000000005896400000000000F08AC0000000000000000000000000005896400000000000C08DC000000000000000000000000000F09440000000
310
0000C08DC00000000000000000
100
AcDbRasterImage
 90
        0
 10
1340.0
 20
-952.0
 30
0.0
 11
1.0
 21
0.0
 31
0.0
 12
0.0
 22
1.0
 32
0.0
 13
90.0
 23
90.0
340
88
 70
     3
280
     0
281
    50
282
    50
283
     0
290
     0
360
0
 71
     1
 91
        2
 14
-0.5
 24
-0.5
 14
89.50000000000001
 24
89.50000000000001
  0
LWPOLYLINE
  5
8A
330
70
100
AcDbEntity
  8
Footer
100
AcDbPolyline
 90
        4
 70
     1
 43
0.0
 10
1340.0
 20
-862.0
 10
1340.0
 20
-951.9999389648438
 10
1430.0
 20
-951.9999389648438
 10
1430.0
 20
-862.0
  0
IMAGE
  5
8C
330
70
100
AcDbEntity
  8
Footer
160
               140
310
8C0000000100000084000000060000000500000000000000004C93400000000000C08DC0000000000000000000000000004C93400000000000F08AC000000000000000000000000000B494400000000000F08AC000000000000000000000000000B494400000000000C08DC0000000000000000000000000004C9340000000
310
0000C08DC00000000000000000
100
AcDbRasterImage
 90
        0
 10
1235.0
 20
-952.0
 30
0.0
 11
1.0
 21
0.0
 31
0.0
 12
0.0
 22
1.0
 32
0.0
 13
90.0
 23
90.0
340
8B
 70
     3
280
     0
281
    50
282
    50
283
     0
290
     0
360
0
 71
     1
 91
        2
 14
-0.5
 24
-0.5
 14
89.50000000000001
 24
89.50000000000001
  0
LWPOLYLINE
  5
8D
330
70
100
AcDbEntity
  8
Footer
100
AcDbPolyline
 90
        4
 70
     1
 43
0.0
 10
1235.0
 20
-862.0
 10
1235.0
 20
-951.9999389648438
 10
1325.0
 20
-951.9999389648438
 10
1325.0
 20
-862.0
  0
IMAGE
  5
8F
330
70
100
AcDbEntity
  8
Footer
160
               140
310
8C000000010000008400000006000000050000000000000000A891400000000000C08DC000000000000000000000000000A891400000000000F08AC0000000000000000000000000001093400000000000F08AC0000000000000000000000000001093400000000000C08DC000000000000000000000000000A89140000000
310
0000C08DC00000000000000000
100
AcDbRasterImage
 90
        0
 10
1130.0
 20
-952.0
 30
0.0
 11
1.0
 21
0.0
 31
0.0
 12
0.0
 22
1.0
 32
0.0
 13
90.0
 23
90.0
340
8E
 70
     3
280
     0
281
    50
282
    50
283
     0
290
     0
360
0
 71
     1
 91
        2
 14
-0.5
 24
-0.5
 14
89.50000000000001
 24
89.50000000000001
  0
LWPOLYLINE
  5
90
330
70
100
AcDbEntity
  8
Footer
100
AcDbPolyline
 90
        4
 70
     1
 43
0.0
 10
1130.0
 20
-862.0
 10
1130.0
 20
-951.9999389648438
 10
1220.0
 20
-951.9999389648438
 10
1220.0
 20
-862.0
  0
IMAGE
  5
92
330
70
100
AcDbEntity
  8
Footer
160
               140
310
8C000000010000008400000006000000050000000000000000F094400000000000788AC000000000000000000000000000F094400000000000A887C0000000000000000000000000005896400000000000A887C0000000000000000000000000005896400000000000788AC000000000000000000000000000F09440000000
310
0000788AC00000000000000000
100
AcDbRasterImage
 90
        0
 10
1340.0
 20
-847.0
 30
0.0
 11
1.0
 21
0.0
 31
0.0
 12
0.0
 22
1.0
 32
0.0
 13
90.0
 23
90.0
340
91
 70
     3
280
     0
281
    50
282
    50
283
     0
290
     0
360
0
 71
     1
 91
        2
 14
-0.5
 24
-0.5
 14
89.50000000000001
 24
89.50000000000001
  0
LWPOLYLINE
  5
93
330
70
100
AcDbEntity
  8
Footer
100
AcDbPolyline
 90
        4
 70
     1
 43
0.0
 10
1340.0
 20
-756.9998779296875
 10
1340.0
 20
-846.9998168945313
 10
1430.0
 20
-846.9998168945313
 10
1430.0
 20
-756.9998779296875
  0
IMAGE
  5
95
330
70
100
AcDbEntity
  8
Footer
160
               140
310
8C0000000100000084000000060000000500000000000000004C93400000000000788AC0000000000000000000000000004C93400000000000A887C000000000000000000000000000B494400000000000A887C000000000000000000000000000B494400000000000788AC0000000000000000000000000004C9340000000
310
0000788AC00000000000000000
100
AcDbRasterImage
 90
        0
 10
1235.0
 20
-847.0
 30
0.0
 11
1.0
 21
0.0
 31
0.0
 12
0.0
 22
1.0
 32
0.0
 13
90.0
 23
90.0
340
94
 70
     3
280
     0
281
    50
282
    50
283
     0
290
     0
360
0
 71
     1
 91
        2
 14
-0.5
 24
-0.5
 14
89.50000000000001
 24
89.50000000000001
  0
LWPOLYLINE
  5
96
330
70
100
AcDbEntity
  8
Footer
100
AcDbPolyline
 90
        4
 70
     1
 43
0.0
 10
1235.0
 20
-756.9998779296875
 10
1235.0
 20
-846.9998168945313
 10
1325.0
 20
-846.9998168945313
 10
1325.0
 20
-756.9998779296875
  0
IMAGE
  5
98
330
70
100
AcDbEntity
  8
Footer
160
               140
310
8C000000010000008400000006000000050000000000000000A891400000000000788AC000000000000000000000000000A891400000000000A887C0000000000000000000000000001093400000000000A887C0000000000000000000000000001093400000000000788AC000000000000000000000000000A89140000000
310
0000788AC00000000000000000
100
AcDbRasterImage
 90
        0
 10
1130.0
 20
-847.0
 30
0.0
 11
1.0
 21
0.0
 31
0.0
 12
0.0
 22
1.0
 32
0.0
 13
90.0
 23
90.0
340
97
 70
     3
280
     0
281
    50
282
    50
283
     0
290
     0
360
0
 71
     1
 91
        2
 14
-0.5
 24
-0.5
 14
89.50000000000001
 24
89.50000000000001
  0
LWPOLYLINE
  5
99
330
70
100
AcDbEntity
  8
Footer
100
AcDbPolyline
 90
        4
 70
     1
 43
0.0
 10
1130.0
 20
-756.9998779296875
 10
1130.0
 20
-846.9998168945313
 10
1220.0
 20
-846.9998168945313
 10
1220.0
 20
-756.9998779296875
  0
MTEXT
  5
9A
330
70
100
AcDbEntity
  8
Footer
100
AcDbMText
 10
1130.0
 20
-725.0
 30
0.0
 40
0.2
 41
0.0
 46
0.0
 71
     7
 72
     1
  1
\C7;\c16777215;\FOswald Medium|b0|i0|c1;\H11.328000;\W1.000000;Flickr Photos
 73
     1
 44
1.0
  0
MTEXT
  5
9B
330
70
100
AcDbEntity
  8
Footer
100
AcDbMText
 10
774.0
 20
-887.0
 30
0.0
 40
0.2
 41
0.0
 46
0.0
 71
     7
 72
     1
  1
\C7;\c15856113;\FOpenSans|b0|i0|c1;\H9.204000;\W1.000000;www.beatlsinformation.com
 73
     1
 44
1.0
  0
MTEXT
  5
9C
330
70
100
AcDbEntity
  8
Footer
100
AcDbMText
 10
774.0
 20
-911.0
 30
0.0
 40
0.2
 41
0.0
 46
0.0
 71
     7
 72
     1
  1
\C7;\c15856113;\FOpenSans|b0|i0|c1;\H9.204000;\W1.000000;www.informationbeatls.com
 73
     1
 44
1.0
  0
ELLIPSE
  5
9D
330
70
100
AcDbEntity
  8
Footer
100
AcDbEllipse
 10
747.4999694824218
 20
-895.4999389648437
 30
0.0
 11
-17.27400747342492
 21
2.803156143642757
 31
0.0
210
0.0
220
0.0
230
1.0
 40
0.9999944854146377
 41
0.0
 42
6.283185307179586
  0
MTEXT
  5
9E
330
70
100
AcDbEntity
  8
Footer
100
AcDbMText
 10
742.0
 20
-903.0
 30
0.0
 40
0.2
 41
0.0
 46
0.0
 71
     7
 72
     1
  1
\C7;\c16777215;\FFontAwesome|b0|i0|c1;\H14.160000;\W1.000000;
 73
     1
 44
1.0
  0
MTEXT
  5
9F
330
70
100
AcDbEntity
  8
Footer
100
AcDbMText
 10
774.0
 20
-832.0
 30
0.0
 40
0.2
 41
0.0
 46
0.0
 71
     7
 72
     1
  1
\C7;\c15856113;\FOpenSans|b0|i0|c1;\H9.204000;\W1.000000;beatlsinfo@gmail.com
 73
     1
 44
1.0
  0
MTEXT
  5
A0
330
70
100
AcDbEntity
  8
Footer
100
AcDbMText
 10
774.0
 20
-856.0
 30
0.0
 40
0.2
 41
0.0
 46
0.0
 71
     7
 72
     1
  1
\C7;\c15856113;\FOpenSans|b0|i0|c1;\H9.204000;\W1.000000;informationbeatls@mail.com
 73
     1
 44
1.0
  0
ELLIPSE
  5
A1
330
70
100
AcDbEntity
  8
Footer
100
AcDbEllipse
 10
747.4999694824218
 20
-840.4998779296875
 30
0.0
 11
-6.696955436711896
 21
16.16790057787515
 31
0.0
210
0.0
220
0.0
230
1.0
 40
0.9999975338038543
 41
0.0
 42
6.283185307179586
  0
MTEXT
  5
A2
330
70
100
AcDbEntity
  8
Footer
100
AcDbMText
 10
744.0
 20
-846.0
 30
0.0
 40
0.2
 41
0.0
 46
0.0
 71
     7
 72
     1
  1
\C7;\c16777215;\FFontAwesome|b0|i0|c1;\H11.328000;\W1.000000;
 73
     1
 44
1.0
  0
MTEXT
  5
A3
330
70
100
AcDbEntity
  8
Footer
100
AcDbMText
 10
775.0
 20
-777.0
 30
0.0
 40
0.2
 41
0.0
 46
0.0
 71
     7
 72
     1
  1
\C7;\c15856113;\FOpenSans|b0|i0|c1;\H9.204000;\W1.000000;+334 1234 5987
 73
     1
 44
1.0
  0
MTEXT
  5
A4
330
70
100
AcDbEntity
  8
Footer
100
AcDbMText
 10
775.0
 20
-801.0
 30
0.0
 40
0.2
 41
0.0
 46
0.0
 71
     7
 72
     1
  1
\C7;\c15856113;\FOpenSans|b0|i0|c1;\H9.204000;\W1.000000;+334 9876 2354
 73
     1
 44
1.0
  0
ELLIPSE
  5
A5
330
70
100
AcDbEntity
  8
Footer
100
AcDbEllipse
 10
747.4999694824218
 20
-785.4999084472656
 30
0.0
 11
-17.03183532717581
 21
4.020652105019833
 31
0.0
210
0.0
220
0.0
230
1.0
 40
0.9999961006049858
 41
0.0
 42
6.283185307179586
  0
MTEXT
  5
A6
330
70
100
AcDbEntity
  8
Footer
100
AcDbMText
 10
743.0
 20
-793.0
 30
0.0
 40
0.2
 41
0.0
 46
0.0
 71
     7
 72
     1
  1
\C7;\c16777215;\FFontAwesome|b0|i0|c1;\H14.160000;\W1.000000;
 73
     1
 44
1.0
  0
MTEXT
  5
A7
330
70
100
AcDbEntity
  8
Footer
100
AcDbMText
 10
730.0
 20
-725.0
 30
0.0
 40
0.2
 41
0.0
 46
0.0
 71
     7
 72
     1
  1
\C7;\c16777215;\FOswald Medium|b0|i0|c1;\H11.328000;\W1.000000;Contact us
 73
     1
 44
1.0
  0
MTEXT
  5
A8
330
70
100
AcDbEntity
  8
Footer
100
AcDbMText
 10
489.0
 20
-777.2298889160156
 30
0.0
 40
0.2
 41
0.0
 46
0.0
 71
     7
 72
     1
  1
\C7;\c15856113;\FOpenSans|b0|i0|c1;\H9.204000;\W1.000000;Lorem ipsum dolor sit amet, conser 
 73
     1
 44
1.0
  0
MTEXT
  5
A9
330
70
100
AcDbEntity
  8
Footer
100
AcDbMText
 10
489.0
 20
-801.2298889160156
 30
0.0
 40
0.2
 41
0.0
 46
0.0
 71
     7
 72
     1
  1
\C7;\c15856113;\FOpenSans|b0|i0|c1;\H9.204000;\W1.000000;adipisicing elit, sed do eiumod apor 
 73
     1
 44
1.0
  0
MTEXT
  5
AA
330
70
100
AcDbEntity
  8
Footer
100
AcDbMText
 10
489.0
 20
-825.2298889160156
 30
0.0
 40
0.2
 41
0.0
 46
0.0
 71
     7
 72
     1
  1
\C7;\c15856113;\FOpenSans|b0|i0|c1;\H9.204000;\W1.000000;incididunt ut labore et dolore magna 
 73
     1
 44
1.0
  0
MTEXT
  5
AB
330
70
100
AcDbEntity
  8
Footer
100
AcDbMText
 10
489.0
 20
-849.2298889160156
 30
0.0
 40
0.2
 41
0.0
 46
0.0
 71
     7
 72
     1
  1
\C7;\c15856113;\FOpenSans|b0|i0|c1;\H9.204000;\W1.000000;aliqua.
 73
     1
 44
1.0
  0
MTEXT
  5
AC
330
70
100
AcDbEntity
  8
Footer
100
AcDbMText
 10
489.0
 20
-897.2298889160155
 30
0.0
 40
0.2
 41
0.0
 46
0.0
 71
     7
 72
     1
  1
\C7;\c15856113;\FOpenSans|b0|i0|c1;\H9.204000;\W1.000000;Lorem ipsum dolor sit amet, conser 
 73
     1
 44
1.0
  0
MTEXT
  5
AD
330
70
100
AcDbEntity
  8
Footer
100
AcDbMText
 10
489.0
 20
-921.2298889160155
 30
0.0
 40
0.2
 41
0.0
 46
0.0
 71
     7
 72
     1
  1
\C7;\c15856113;\FOpenSans|b0|i0|c1;\H9.204000;\W1.000000;adipisicing elit.
 73
     1
 44
1.0
  0
IMAGE
  5
AF
330
70
100
AcDbEntity
  8
Footer
160
               140
310
8C000000010000008400000006000000050000000000000000A07E4000000000001087C000000000000000000000000000A07E400000000000D085C000000000000000000000000000C881400000000000D085C000000000000000000000000000C8814000000000001087C000000000000000000000000000A07E40000000
310
00001087C00000000000000000
100
AcDbRasterImage
 90
        0
 10
490.0
 20
-738.0
 30
0.0
 11
1.0
 21
0.0
 31
0.0
 12
0.0
 22
1.0
 32
0.0
 13
79.0
 23
40.0
340
AE
 70
     3
280
     0
281
    50
282
    50
283
     0
290
     0
360
0
 71
     1
 91
        2
 14
-0.5
 24
-0.5
 14
78.5
 24
39.5
  0
LWPOLYLINE
  5
B1
330
70
100
AcDbEntity
  8
Testimonial
100
AcDbPolyline
 90
        7
 70
     1
 43
0.0
 10
1220.497436523438
 20
-439.9998779296875
 10
1200.5
 20
-424.0006713867187
 10
1180.502563476562
 20
-439.9998779296875
 10
969.9999389648437
 20
-439.9998779296875
 10
969.9999389648437
 20
-617.9998168945312
 10
1430.0
 20
-617.9998168945312
 10
1430.0
 20
-439.9998779296875
  0
MTEXT
  5
B2
330
70
100
AcDbEntity
  8
Testimonial
100
AcDbMText
 10
1004.697631835937
 20
-546.8812561035156
 30
0.0
 40
0.2
 41
0.0
 46
0.0
 71
     7
 72
     1
  1
\C251;\c5592405;\FOswald Regular|b0|i0|c1;\H9.204000;\W1.000000;Lorem ipsum dolor sit amet, consectetur adipisicing elit, sed do eiusmod 
 73
     1
 44
1.0
  0
MTEXT
  5
B3
330
70
100
AcDbEntity
  8
Testimonial
100
AcDbMText
 10
992.1464538574218
 20
-570.8812561035156
 30
0.0
 40
0.2
 41
0.0
 46
0.0
 71
     7
 72
     1
  1
\C251;\c5592405;\FOswald Regular|b0|i0|c1;\H9.204000;\W1.000000;tempor incidunt ut labore et dolore magna aliqua. Ut enim ad minim veniam, 
 73
     1
 44
1.0
  0
MTEXT
  5
B4
330
70
100
AcDbEntity
  8
Testimonial
100
AcDbMText
 10
1007.525024414062
 20
-594.8812561035156
 30
0.0
 40
0.2
 41
0.0
 46
0.0
 71
     7
 72
     1
  1
\C251;\c5592405;\FOswald Regular|b0|i0|c1;\H9.204000;\W1.000000;quis nostrud exercitation ullamco laboris nisi ut aliquip ex ea commodo 
 73
     1
 44
1.0
  0
MTEXT
  5
B5
330
70
100
AcDbEntity
  8
Testimonial
100
AcDbMText
 10
1178.238250732422
 20
-495.0
 30
0.0
 40
0.2
 41
0.0
 46
0.0
 71
     7
 72
     1
  1
\C151;\c16041307;\FFontAwesome|b0|i0|c1;\H9.204000;\W1.000000;    
 73
     1
 44
1.0
  0
MTEXT
  5
B6
330
70
100
AcDbEntity
  8
Testimonial
100
AcDbMText
 10
1142.4404296875
 20
-474.0
 30
0.0
 40
0.2
 41
0.0
 46
0.0
 71
     7
 72
     1
  1
\C250;\c3487029;\FOswald Medium|b0|i0|c1;\H11.328000;\W1.000000;MAhadi Tahsan
 73
     1
 44
1.0
  0
MTEXT
  5
B7
330
70
100
AcDbEntity
  8
Testimonial
100
AcDbMText
 10
1152.440284729004
 20
-517.0
 30
0.0
 40
0.2
 41
0.0
 46
0.0
 71
     7
 72
     1
  1
\C251;\c5592405;\FOswald Regular|b0|i0|c1;\H9.204000;\W1.000000;Exicutive Director
 73
     1
 44
1.0
  0
IMAGE
  5
B9
330
70
100
AcDbEntity
  8
Testimonial
160
               140
310
8C00000001000000840000000600000005000000000000000020924000000000004079C00000000000000000000000000020924000000000004074C00000000000000000000000000060934000000000004074C00000000000000000000000000060934000000000004079C000000000000000000000000000209240000000
310
00004079C00000000000000000
100
AcDbRasterImage
 90
        0
 10
1160.0
 20
-404.0
 30
0.0
 11
1.0
 21
0.0
 31
0.0
 12
0.0
 22
1.0
 32
0.0
 13
80.0
 23
80.0
340
B8
 70
     3
280
     0
281
    50
282
    50
283
     0
290
     0
360
0
 71
     1
 91
        2
 14
-0.5
 24
-0.5
 14
79.5
 24
79.5
  0
CIRCLE
  5
BA
330
70
100
AcDbEntity
  8
Testimonial
100
AcDbCircle
 10
1200.0
 20
-363.9999084472656
 30
0.0
 40
39.99998474121677
  0
LWPOLYLINE
  5
BB
330
70
100
AcDbEntity
  8
Testimonial
100
AcDbPolyline
 90
        7
 70
     1
 43
0.0
 10
740.4973754882812
 20
-439.9998779296875
 10
720.4999389648437
 20
-424.0006713867187
 10
700.5025634765624
 20
-439.9998779296875
 10
490.0
 20
-439.9998779296875
 10
490.0
 20
-617.9998168945312
 10
950.0
 20
-617.9998168945312
 10
950.0
 20
-439.9998779296875
  0
MTEXT
  5
BC
330
70
100
AcDbEntity
  8
Testimonial
100
AcDbMText
 10
524.6976318359375
 20
-546.8812561035156
 30
0.0
 40
0.2
 41
0.0
 46
0.0
 71
     7
 72
     1
  1
\C251;\c5592405;\FOswald Regular|b0|i0|c1;\H9.204000;\W1.000000;Lorem ipsum dolor sit amet, consectetur adipisicing elit, sed do eiusmod 
 73
     1
 44
1.0
  0
MTEXT
  5
BD
330
70
100
AcDbEntity
  8
Testimonial
100
AcDbMText
 10
512.1464538574218
 20
-570.8812561035156
 30
0.0
 40
0.2
 41
0.0
 46
0.0
 71
     7
 72
     1
  1
\C251;\c5592405;\FOswald Regular|b0|i0|c1;\H9.204000;\W1.000000;tempor incidunt ut labore et dolore magna aliqua. Ut enim ad minim veniam, 
 73
     1
 44
1.0
  0
MTEXT
  5
BE
330
70
100
AcDbEntity
  8
Testimonial
100
AcDbMText
 10
527.5250244140624
 20
-594.8812561035156
 30
0.0
 40
0.2
 41
0.0
 46
0.0
 71
     7
 72
     1
  1
\C251;\c5592405;\FOswald Regular|b0|i0|c1;\H9.204000;\W1.000000;quis nostrud exercitation ullamco laboris nisi ut aliquip ex ea commodo 
 73
     1
 44
1.0
  0
MTEXT
  5
BF
330
70
100
AcDbEntity
  8
Testimonial
100
AcDbMText
 10
698.2382507324218
 20
-495.0
 30
0.0
 40
0.2
 41
0.0
 46
0.0
 71
     7
 72
     1
  1
\C151;\c16041307;\FFontAwesome|b0|i0|c1;\H9.204000;\W1.000000;    
 73
     1
 44
1.0
  0
MTEXT
  5
C0
330
70
100
AcDbEntity
  8
Testimonial
100
AcDbMText
 10
671.552490234375
 20
-474.0
 30
0.0
 40
0.2
 41
0.0
 46
0.0
 71
     7
 72
     1
  1
\C250;\c3487029;\FOswald Medium|b0|i0|c1;\H11.328000;\W1.000000;Shahin Alom
 73
     1
 44
1.0
  0
MTEXT
  5
C1
330
70
100
AcDbEntity
  8
Testimonial
100
AcDbMText
 10
693.6558380126953
 20
-517.0
 30
0.0
 40
0.2
 41
0.0
 46
0.0
 71
     7
 72
     1
  1
\C251;\c5592405;\FOswald Regular|b0|i0|c1;\H9.204000;\W1.000000;Chairman
 73
     1
 44
1.0
  0
IMAGE
  5
C3
330
70
100
AcDbEntity
  8
Testimonial
160
               140
310
8C00000001000000840000000600000005000000000000000040854000000000004079C00000000000000000000000000040854000000000004074C000000000000000000000000000C0874000000000004074C000000000000000000000000000C0874000000000004079C000000000000000000000000000408540000000
310
00004079C00000000000000000
100
AcDbRasterImage
 90
        0
 10
680.0
 20
-404.0
 30
0.0
 11
1.0
 21
0.0
 31
0.0
 12
0.0
 22
1.0
 32
0.0
 13
80.0
 23
80.0
340
C2
 70
     3
280
     0
281
    50
282
    50
283
     0
290
     0
360
0
 71
     1
 91
        2
 14
-0.5
 24
-0.5
 14
79.5
 24
79.5
  0
CIRCLE
  5
C4
330
70
100
AcDbEntity
  8
Testimonial
100
AcDbCircle
 10
719.9999389648437
 20
-363.9999084472656
 30
0.0
 40
39.99998474121677
  0
SPLINE
  5
C5
330
70
100
AcDbEntity
  8
Testimonial
100
AcDbSpline
210
0.0
220
0.0
230
1.0
 70
    11
 71
     3
 72
    17
 73
    13
 74
     0
 42
0.0000000001
 43
0.0000000001
 40
0.0
 40
0.0
 40
0.0
 40
0.0
 40
1.0
 40
1.0
 40
1.0
 40
2.0
 40
2.0
 40
2.0
 40
3.0
 40
3.0
 40
3.0
 40
4.0
 40
4.0
 40
4.0
 40
4.0
 10
957.9999389648437
 20
-292.9996948242187
 30
0.0
 10
957.9999389648437
 20
-292.9996948242187
 30
0.0
 10
957.9999389648437
 20
-293.9998779296875
 30
0.0
 10
957.9999389648437
 20
-293.9998779296875
 30
0.0
 10
957.9999389648437
 20
-293.9998779296875
 30
0.0
 10
958.9998779296875
 20
-293.9998779296875
 30
0.0
 10
958.9998779296875
 20
-293.9998779296875
 30
0.0
 10
958.9998779296875
 20
-293.9998779296875
 30
0.0
 10
958.9998779296875
 20
-292.9996948242187
 30
0.0
 10
958.9998779296875
 20
-292.9996948242187
 30
0.0
 10
958.9998779296875
 20
-292.9996948242187
 30
0.0
 10
957.9999389648437
 20
-292.9996948242187
 30
0.0
 10
957.9999389648437
 20
-292.9996948242187
 30
0.0
  0
SPLINE
  5
C6
330
70
100
AcDbEntity
  8
Testimonial
100
AcDbSpline
210
0.0
220
0.0
230
1.0
 70
    11
 71
     3
 72
    17
 73
    13
 74
     0
 42
0.0000000001
 43
0.0000000001
 40
0.0
 40
0.0
 40
0.0
 40
0.0
 40
1.0
 40
1.0
 40
1.0
 40
2.0
 40
2.0
 40
2.0
 40
3.0
 40
3.0
 40
3.0
 40
4.0
 40
4.0
 40
4.0
 40
4.0
 10
953.9999389648437
 20
-293.9998779296875
 30
0.0
 10
953.9999389648437
 20
-293.9998779296875
 30
0.0
 10
955.9998779296874
 20
-293.9998779296875
 30
0.0
 10
955.9998779296874
 20
-293.9998779296875
 30
0.0
 10
955.9998779296874
 20
-293.9998779296875
 30
0.0
 10
955.9998779296874
 20
-292.9996948242187
 30
0.0
 10
955.9998779296874
 20
-292.9996948242187
 30
0.0
 10
955.9998779296874
 20
-292.9996948242187
 30
0.0
 10
953.9999389648437
 20
-292.9996948242187
 30
0.0
 10
953.9999389648437
 20
-292.9996948242187
 30
0.0
 10
953.9999389648437
 20
-292.9996948242187
 30
0.0
 10
953.9999389648437
 20
-293.9998779296875
 30
0.0
 10
953.9999389648437
 20
-293.9998779296875
 30
0.0
  0
SPLINE
  5
C7
330
70
100
AcDbEntity
  8
Testimonial
100
AcDbSpline
210
0.0
220
0.0
230
1.0
 70
    11
 71
     3
 72
    17
 73
    13
 74
     0
 42
0.0000000001
 43
0.0000000001
 40
0.0
 40
0.0
 40
0.0
 40
0.0
 40
1.0
 40
1.0
 40
1.0
 40
2.0
 40
2.0
 40
2.0
 40
3.0
 40
3.0
 40
3.0
 40
4.0
 40
4.0
 40
4.0
 40
4.0
 10
948.9998779296875
 20
-293.9998779296875
 30
0.0
 10
948.9998779296875
 20
-293.9998779296875
 30
0.0
 10
951.9998779296875
 20
-293.9998779296875
 30
0.0
 10
951.9998779296875
 20
-293.9998779296875
 30
0.0
 10
951.9998779296875
 20
-293.9998779296875
 30
0.0
 10
951.9998779296875
 20
-292.9996948242187
 30
0.0
 10
951.9998779296875
 20
-292.9996948242187
 30
0.0
 10
951.9998779296875
 20
-292.9996948242187
 30
0.0
 10
948.9998779296875
 20
-292.9996948242187
 30
0.0
 10
948.9998779296875
 20
-292.9996948242187
 30
0.0
 10
948.9998779296875
 20
-292.9996948242187
 30
0.0
 10
948.9998779296875
 20
-293.9998779296875
 30
0.0
 10
948.9998779296875
 20
-293.9998779296875
 30
0.0
  0
SPLINE
  5
C8
330
70
100
AcDbEntity
  8
Testimonial
100
AcDbSpline
210
0.0
220
0.0
230
1.0
 70
    11
 71
     3
 72
    17
 73
    13
 74
     0
 42
0.0000000001
 43
0.0000000001
 40
0.0
 40
0.0
 40
0.0
 40
0.0
 40
1.0
 40
1.0
 40
1.0
 40
2.0
 40
2.0
 40
2.0
 40
3.0
 40
3.0
 40
3.0
 40
4.0
 40
4.0
 40
4.0
 40
4.0
 10
898.9998779296875
 20
-293.9998779296875
 30
0.0
 10
898.9998779296875
 20
-293.9998779296875
 30
0.0
 10
945.9999389648437
 20
-293.9998779296875
 30
0.0
 10
945.9999389648437
 20
-293.9998779296875
 30
0.0
 10
945.9999389648437
 20
-293.9998779296875
 30
0.0
 10
945.9999389648437
 20
-292.9996948242187
 30
0.0
 10
945.9999389648437
 20
-292.9996948242187
 30
0.0
 10
945.9999389648437
 20
-292.9996948242187
 30
0.0
 10
898.9998779296875
 20
-292.9996948242187
 30
0.0
 10
898.9998779296875
 20
-292.9996948242187
 30
0.0
 10
898.9998779296875
 20
-292.9996948242187
 30
0.0
 10
898.9998779296875
 20
-293.9998779296875
 30
0.0
 10
898.9998779296875
 20
-293.9998779296875
 30
0.0
  0
MTEXT
  5
C9
330
70
100
AcDbEntity
  8
Testimonial
100
AcDbMText
 10
891.6968994140624
 20
-288.0
 30
0.0
 40
0.2
 41
0.0
 46
0.0
 71
     7
 72
     1
  1
\C250;\c3487029;\FOswald Medium|b0|i0|c1;\H16.992000;\W1.000000;Testimonial
 73
     1
 44
1.0
  0
MTEXT
  5
CB
330
70
100
AcDbEntity
  8
Our Team
100
AcDbMText
 10
1286.464599609375
 20
-188.0
 30
0.0
 40
0.2
 41
0.0
 46
0.0
 71
     7
 72
     1
  1
\C250;\c3487029;\FOswald Medium|b0|i0|c1;\H11.328000;\W1.000000;Aney Irin
 73
     1
 44
1.0
  0
MTEXT
  5
CC
330
70
100
AcDbEntity
  8
Our Team
100
AcDbMText
 10
1279.176635742187
 20
-209.0
 30
0.0
 40
0.2
 41
0.0
 46
0.0
 71
     7
 72
     1
  1
\C251;\c5592405;\FOswald Regular|b0|i0|c1;\H9.912000;\W1.000000;Web Designer
 73
     1
 44
1.0
  0
IMAGE
  5
CE
330
70
100
AcDbEntity
  8
Our Team
160
               140
310
8C000000010000008400000006000000050000000000000000E8924000000000008064C000000000000000000000000000E892400000000000805A40000000000000000000000000005896400000000000805A400000000000000000000000000058964000000000008064C000000000000000000000000000E89240000000
310
00008064C00000000000000000
100
AcDbRasterImage
 90
        0
 10
1210.0
 20
-164.0
 30
0.0
 11
1.0
 21
0.0
 31
0.0
 12
0.0
 22
1.0
 32
0.0
 13
220.0
 23
270.0
340
CD
 70
     3
280
     0
281
    50
282
    50
283
     0
290
     0
360
0
 71
     1
 91
        2
 14
-0.5
 24
-0.5
 14
219.5
 24
269.5
  0
LWPOLYLINE
  5
CF
330
70
100
AcDbEntity
  8
Our Team
100
AcDbPolyline
 90
        4
 70
     1
 43
0.0
 10
1210.0
 20
106.0
 10
1210.0
 20
-163.9998168945312
 10
1430.0
 20
-163.9998168945312
 10
1430.0
 20
106.0
  0
MTEXT
  5
D0
330
70
100
AcDbEntity
  8
Our Team
100
AcDbMText
 10
550.9686279296874
 20
-188.0
 30
0.0
 40
0.2
 41
0.0
 46
0.0
 71
     7
 72
     1
  1
\C250;\c3487029;\FOswald Medium|b0|i0|c1;\H11.328000;\W1.000000;Sajal Sarder
 73
     1
 44
1.0
  0
MTEXT
  5
D1
330
70
100
AcDbEntity
  8
Our Team
100
AcDbMText
 10
559.1766357421875
 20
-209.0
 30
0.0
 40
0.2
 41
0.0
 46
0.0
 71
     7
 72
     1
  1
\C251;\c5592405;\FOswald Regular|b0|i0|c1;\H9.912000;\W1.000000;Web Designer
 73
     1
 44
1.0
  0
IMAGE
  5
D3
330
70
100
AcDbEntity
  8
Our Team
160
               140
310
8C000000010000008400000006000000050000000000000000208E4000000000006065C000000000000000000000000000208E400000000000005C4000000000000000000000000000B492400000000000005C4000000000000000000000000000B4924000000000006065C000000000000000000000000000208E40000000
310
00006065C00000000000000000
100
AcDbRasterImage
 90
        0
 10
964.0
 20
-171.0
 30
0.0
 11
1.0
 21
0.0
 31
0.0
 12
0.0
 22
1.0
 32
0.0
 13
233.0
 23
283.0
340
D2
 70
     3
280
     0
281
    50
282
    50
283
     0
290
     0
360
0
 71
     1
 91
        2
 14
-0.5
 24
-0.5
 14
232.5
 24
282.5
  0
MTEXT
  5
D4
330
70
100
AcDbEntity
  8
Our Team
100
AcDbMText
 10
793.5126953125
 20
-188.0
 30
0.0
 40
0.2
 41
0.0
 46
0.0
 71
     7
 72
     1
  1
\C250;\c3487029;\FOswald Medium|b0|i0|c1;\H11.328000;\W1.000000;Sakeba Aney
 73
     1
 44
1.0
  0
MTEXT
  5
D5
330
70
100
AcDbEntity
  8
Our Team
100
AcDbMText
 10
799.1766357421875
 20
-209.0
 30
0.0
 40
0.2
 41
0.0
 46
0.0
 71
     7
 72
     1
  1
\C251;\c5592405;\FOswald Regular|b0|i0|c1;\H9.912000;\W1.000000;Web Designer
 73
     1
 44
1.0
  0
IMAGE
  5
D7
330
70
100
AcDbEntity
  8
Our Team
160
               140
310
8C000000010000008400000006000000050000000000000000D0864000000000008064C000000000000000000000000000D086400000000000805A4000000000000000000000000000B08D400000000000805A4000000000000000000000000000B08D4000000000008064C000000000000000000000000000D08640000000
310
00008064C00000000000000000
100
AcDbRasterImage
 90
        0
 10
730.0
 20
-164.0
 30
0.0
 11
1.0
 21
0.0
 31
0.0
 12
0.0
 22
1.0
 32
0.0
 13
220.0
 23
270.0
340
D6
 70
     3
280
     0
281
    50
282
    50
283
     0
290
     0
360
0
 71
     1
 91
        2
 14
-0.5
 24
-0.5
 14
219.5
 24
269.5
  0
LWPOLYLINE
  5
D8
330
70
100
AcDbEntity
  8
Our Team
100
AcDbPolyline
 90
        4
 70
     1
 43
0.0
 10
730.0
 20
106.0
 10
730.0
 20
-163.9998168945312
 10
950.0
 20
-163.9998168945312
 10
950.0
 20
106.0
  0
MTEXT
  5
D9
330
70
100
AcDbEntity
  8
Our Team
100
AcDbMText
 10
1045.360473632812
 20
-188.0
 30
0.0
 40
0.2
 41
0.0
 46
0.0
 71
     7
 72
     1
  1
\C151;\c16041307;\FOswald Medium|b0|i0|c1;\H11.328000;\W1.000000;ABS Ujjal
 73
     1
 44
1.0
  0
MTEXT
  5
DA
330
70
100
AcDbEntity
  8
Our Team
100
AcDbMText
 10
1039.176635742187
 20
-209.0
 30
0.0
 40
0.2
 41
0.0
 46
0.0
 71
     7
 72
     1
  1
\C251;\c5592405;\FOswald Regular|b0|i0|c1;\H9.912000;\W1.000000;Web Designer
 73
     1
 44
1.0
  0
IMAGE
  5
DC
330
70
100
AcDbEntity
  8
Our Team
160
               140
310
8C000000010000008400000006000000050000000000000000A07E4000000000008064C000000000000000000000000000A07E400000000000805A40000000000000000000000000003086400000000000805A400000000000000000000000000030864000000000008064C000000000000000000000000000A07E40000000
310
00008064C00000000000000000
100
AcDbRasterImage
 90
        0
 10
490.0
 20
-164.0
 30
0.0
 11
1.0
 21
0.0
 31
0.0
 12
0.0
 22
1.0
 32
0.0
 13
220.0
 23
270.0
340
DB
 70
     3
280
     0
281
    50
282
    50
283
     0
290
     0
360
0
 71
     1
 91
        2
 14
-0.5
 24
-0.5
 14
219.5
 24
269.5
  0
LWPOLYLINE
  5
DD
330
70
100
AcDbEntity
  8
Our Team
100
AcDbPolyline
 90
        4
 70
     1
 43
0.0
 10
490.0
 20
106.0
 10
490.0
 20
-163.9998168945312
 10
710.0
 20
-163.9998168945312
 10
710.0
 20
106.0
  0
SPLINE
  5
DE
330
70
100
AcDbEntity
  8
Our Team
100
AcDbSpline
210
0.0
220
0.0
230
1.0
 70
    11
 71
     3
 72
    17
 73
    13
 74
     0
 42
0.0000000001
 43
0.0000000001
 40
0.0
 40
0.0
 40
0.0
 40
0.0
 40
1.0
 40
1.0
 40
1.0
 40
2.0
 40
2.0
 40
2.0
 40
3.0
 40
3.0
 40
3.0
 40
4.0
 40
4.0
 40
4.0
 40
4.0
 10
971.9999389648437
 20
137.0001831054687
 30
0.0
 10
971.9999389648437
 20
137.0001831054687
 30
0.0
 10
971.9999389648437
 20
136.0001831054687
 30
0.0
 10
971.9999389648437
 20
136.0001831054687
 30
0.0
 10
971.9999389648437
 20
136.0001831054687
 30
0.0
 10
972.9999389648437
 20
136.0001831054687
 30
0.0
 10
972.9999389648437
 20
136.0001831054687
 30
0.0
 10
972.9999389648437
 20
136.0001831054687
 30
0.0
 10
972.9999389648437
 20
137.0001831054687
 30
0.0
 10
972.9999389648437
 20
137.0001831054687
 30
0.0
 10
972.9999389648437
 20
137.0001831054687
 30
0.0
 10
971.9999389648437
 20
137.0001831054687
 30
0.0
 10
971.9999389648437
 20
137.0001831054687
 30
0.0
  0
SPLINE
  5
DF
330
70
100
AcDbEntity
  8
Our Team
100
AcDbSpline
210
0.0
220
0.0
230
1.0
 70
    11
 71
     3
 72
    17
 73
    13
 74
     0
 42
0.0000000001
 43
0.0000000001
 40
0.0
 40
0.0
 40
0.0
 40
0.0
 40
1.0
 40
1.0
 40
1.0
 40
2.0
 40
2.0
 40
2.0
 40
3.0
 40
3.0
 40
3.0
 40
4.0
 40
4.0
 40
4.0
 40
4.0
 10
967.9999389648438
 20
136.0001831054687
 30
0.0
 10
967.9999389648438
 20
136.0001831054687
 30
0.0
 10
969.9998779296874
 20
136.0001831054687
 30
0.0
 10
969.9998779296874
 20
136.0001831054687
 30
0.0
 10
969.9998779296874
 20
136.0001831054687
 30
0.0
 10
969.9998779296874
 20
137.0001831054687
 30
0.0
 10
969.9998779296874
 20
137.0001831054687
 30
0.0
 10
969.9998779296874
 20
137.0001831054687
 30
0.0
 10
967.9999389648438
 20
137.0001831054687
 30
0.0
 10
967.9999389648438
 20
137.0001831054687
 30
0.0
 10
967.9999389648438
 20
137.0001831054687
 30
0.0
 10
967.9999389648438
 20
136.0001831054687
 30
0.0
 10
967.9999389648438
 20
136.0001831054687
 30
0.0
  0
SPLINE
  5
E0
330
70
100
AcDbEntity
  8
Our Team
100
AcDbSpline
210
0.0
220
0.0
230
1.0
 70
    11
 71
     3
 72
    17
 73
    13
 74
     0
 42
0.0000000001
 43
0.0000000001
 40
0.0
 40
0.0
 40
0.0
 40
0.0
 40
1.0
 40
1.0
 40
1.0
 40
2.0
 40
2.0
 40
2.0
 40
3.0
 40
3.0
 40
3.0
 40
4.0
 40
4.0
 40
4.0
 40
4.0
 10
962.9998779296874
 20
136.0001831054687
 30
0.0
 10
962.9998779296874
 20
136.0001831054687
 30
0.0
 10
965.9999389648437
 20
136.0001831054687
 30
0.0
 10
965.9999389648437
 20
136.0001831054687
 30
0.0
 10
965.9999389648437
 20
136.0001831054687
 30
0.0
 10
965.9999389648437
 20
137.0001831054687
 30
0.0
 10
965.9999389648437
 20
137.0001831054687
 30
0.0
 10
965.9999389648437
 20
137.0001831054687
 30
0.0
 10
962.9998779296874
 20
137.0001831054687
 30
0.0
 10
962.9998779296874
 20
137.0001831054687
 30
0.0
 10
962.9998779296874
 20
137.0001831054687
 30
0.0
 10
962.9998779296874
 20
136.0001831054687
 30
0.0
 10
962.9998779296874
 20
136.0001831054687
 30
0.0
  0
SPLINE
  5
E1
330
70
100
AcDbEntity
  8
Our Team
100
AcDbSpline
210
0.0
220
0.0
230
1.0
 70
    11
 71
     3
 72
    17
 73
    13
 74
     0
 42
0.0000000001
 43
0.0000000001
 40
0.0
 40
0.0
 40
0.0
 40
0.0
 40
1.0
 40
1.0
 40
1.0
 40
2.0
 40
2.0
 40
2.0
 40
3.0
 40
3.0
 40
3.0
 40
4.0
 40
4.0
 40
4.0
 40
4.0
 10
912.9999389648437
 20
136.0001831054687
 30
0.0
 10
912.9999389648437
 20
136.0001831054687
 30
0.0
 10
959.9999389648438
 20
136.0001831054687
 30
0.0
 10
959.9999389648438
 20
136.0001831054687
 30
0.0
 10
959.9999389648438
 20
136.0001831054687
 30
0.0
 10
959.9999389648438
 20
137.0001831054687
 30
0.0
 10
959.9999389648438
 20
137.0001831054687
 30
0.0
 10
959.9999389648438
 20
137.0001831054687
 30
0.0
 10
912.9999389648437
 20
137.0001831054687
 30
0.0
 10
912.9999389648437
 20
137.0001831054687
 30
0.0
 10
912.9999389648437
 20
137.0001831054687
 30
0.0
 10
912.9999389648437
 20
136.0001831054687
 30
0.0
 10
912.9999389648437
 20
136.0001831054687
 30
0.0
  0
MTEXT
  5
E2
330
70
100
AcDbEntity
  8
Our Team
100
AcDbMText
 10
906.6485595703126
 20
142.0
 30
0.0
 40
0.2
 41
0.0
 46
0.0
 71
     7
 72
     1
  1
\C250;\c3487029;\FOswald Medium|b0|i0|c1;\H16.992000;\W1.000000;Our Team
 73
     1
 44
1.0
  0
LWPOLYLINE
  5
E3
330
70
100
AcDbEntity
  8
Our Team
100
AcDbPolyline
 90
        4
 70
     1
 43
0.0
 10
1110.0
 20
106.0
 10
1110.0
 20
-163.9998168945312
 10
1190.0
 20
-163.9998168945312
 10
1190.0
 20
106.0
  0
CIRCLE
  5
E4
330
70
100
AcDbEntity
  8
Our Team
100
AcDbCircle
 10
1150.0
 20
-113.9999084472656
 30
0.0
 40
19.99995422364445
  0
MTEXT
  5
E5
330
70
100
AcDbEntity
  8
Our Team
100
AcDbMText
 10
1146.0
 20
-121.0
 30
0.0
 40
0.2
 41
0.0
 46
0.0
 71
     7
 72
     1
  1
\C7;\c16777215;\FFontAwesome|b0|i0|c1;\H14.160000;\W1.000000;
 73
     1
 44
1.0
  0
CIRCLE
  5
E6
330
70
100
AcDbEntity
  8
Our Team
100
AcDbCircle
 10
1150.0
 20
-58.9998779296875
 30
0.0
 40
20.00003051757813
  0
MTEXT
  5
E7
330
70
100
AcDbEntity
  8
Our Team
100
AcDbMText
 10
1145.0
 20
-67.0
 30
0.0
 40
0.2
 41
0.0
 46
0.0
 71
     7
 72
     1
  1
\C7;\c16777215;\FFontAwesome|b0|i0|c1;\H14.160000;\W1.000000;
 73
     1
 44
1.0
  0
CIRCLE
  5
E8
330
70
100
AcDbEntity
  8
Our Team
100
AcDbCircle
 10
1150.0
 20
-3.999908447265625
 30
0.0
 40
19.99995422364445
  0
MTEXT
  5
E9
330
70
100
AcDbEntity
  8
Our Team
100
AcDbMText
 10
1145.0
 20
-11.0
 30
0.0
 40
0.2
 41
0.0
 46
0.0
 71
     7
 72
     1
  1
\C7;\c16777215;\FFontAwesome|b0|i0|c1;\H14.160000;\W1.000000;
 73
     1
 44
1.0
  0
CIRCLE
  5
EA
330
70
100
AcDbEntity
  8
Our Team
100
AcDbCircle
 10
1150.0
 20
51.0001220703125
 30
0.0
 40
20.00003051757813
  0
MTEXT
  5
EB
330
70
100
AcDbEntity
  8
Our Team
100
AcDbMText
 10
1144.0
 20
43.0
 30
0.0
 40
0.2
 41
0.0
 46
0.0
 71
     7
 72
     1
  1
\C7;\c16777215;\FFontAwesome|b0|i0|c1;\H14.160000;\W1.000000;
 73
     1
 44
1.0
  0
IMAGE
  5
EE
330
70
100
AcDbEntity
  8
Our Portfolio
160
               140
310
8C000000010000008400000006000000050000000000000000E892400000000000A06B4000000000000000000000000000E892400000000000907B40000000000000000000000000005896400000000000907B40000000000000000000000000005896400000000000A06B4000000000000000000000000000E89240000000
310
0000A06B400000000000000000
100
AcDbRasterImage
 90
        0
 10
1210.0
 20
221.0
 30
0.0
 11
1.0
 21
0.0
 31
0.0
 12
0.0
 22
1.0
 32
0.0
 13
220.0
 23
220.0
340
ED
 70
     3
280
     0
281
    50
282
    50
283
     0
290
     0
360
0
 71
     1
 91
        2
 14
-0.5
 24
-0.5
 14
219.5
 24
219.5
  0
LWPOLYLINE
  5
EF
330
70
100
AcDbEntity
  8
Our Portfolio
100
AcDbPolyline
 90
        4
 70
     1
 43
0.0
 10
1210.0
 20
441.0000610351562
 10
1210.0
 20
221.0000610351563
 10
1430.0
 20
221.0000610351563
 10
1430.0
 20
441.0000610351562
  0
IMAGE
  5
F1
330
70
100
AcDbEntity
  8
Our Portfolio
160
               140
310
8C000000010000008400000006000000050000000000000000E892400000000000D07C4000000000000000000000000000E892400000000000C88740000000000000000000000000005896400000000000C88740000000000000000000000000005896400000000000D07C4000000000000000000000000000E89240000000
310
0000D07C400000000000000000
100
AcDbRasterImage
 90
        0
 10
1210.0
 20
461.0
 30
0.0
 11
1.0
 21
0.0
 31
0.0
 12
0.0
 22
1.0
 32
0.0
 13
220.0
 23
300.0
340
F0
 70
     3
280
     0
281
    50
282
    50
283
     0
290
     0
360
0
 71
     1
 91
        2
 14
-0.5
 24
-0.5
 14
219.5
 24
299.5
  0
LWPOLYLINE
  5
F2
330
70
100
AcDbEntity
  8
Our Portfolio
100
AcDbPolyline
 90
        4
 70
     1
 43
0.0
 10
1210.0
 20
761.0001831054687
 10
1210.0
 20
461.0001220703124
 10
1430.0
 20
461.0001220703124
 10
1430.0
 20
761.0001831054687
  0
IMAGE
  5
F4
330
70
100
AcDbEntity
  8
Our Portfolio
160
               140
310
8C000000010000008400000006000000050000000000000000508E400000000000A06B4000000000000000000000000000508E400000000000488040000000000000000000000000009892400000000000488040000000000000000000000000009892400000000000A06B4000000000000000000000000000508E40000000
310
0000A06B400000000000000000
100
AcDbRasterImage
 90
        0
 10
970.0
 20
221.0
 30
0.0
 11
1.0
 21
0.0
 31
0.0
 12
0.0
 22
1.0
 32
0.0
 13
220.0
 23
300.0
340
F3
 70
     3
280
     0
281
    50
282
    50
283
     0
290
     0
360
0
 71
     1
 91
        2
 14
-0.5
 24
-0.5
 14
219.5
 24
299.5
  0
LWPOLYLINE
  5
F5
330
70
100
AcDbEntity
  8
Our Portfolio
100
AcDbPolyline
 90
        4
 70
     1
 43
0.0
 10
969.9999389648437
 20
521.0001220703125
 10
969.9999389648437
 20
221.0000610351563
 10
1190.0
 20
221.0000610351563
 10
1190.0
 20
521.0001220703125
  0
IMAGE
  5
F7
330
70
100
AcDbEntity
  8
Our Portfolio
160
               140
310
8C000000010000008400000006000000050000000000000000508E400000000000E8804000000000000000000000000000508E400000000000C88740000000000000000000000000009892400000000000C88740000000000000000000000000009892400000000000E8804000000000000000000000000000508E40000000
310
0000E880400000000000000000
100
AcDbRasterImage
 90
        0
 10
970.0
 20
541.0
 30
0.0
 11
1.0
 21
0.0
 31
0.0
 12
0.0
 22
1.0
 32
0.0
 13
220.0
 23
220.0
340
F6
 70
     3
280
     0
281
    50
282
    50
283
     0
290
     0
360
0
 71
     1
 91
        2
 14
-0.5
 24
-0.5
 14
219.5
 24
219.5
  0
LWPOLYLINE
  5
F8
330
70
100
AcDbEntity
  8
Our Portfolio
100
AcDbPolyline
 90
        4
 70
     1
 43
0.0
 10
969.9999389648437
 20
761.0001831054687
 10
969.9999389648437
 20
541.0001831054687
 10
1190.0
 20
541.0001831054687
 10
1190.0
 20
761.0001831054687
  0
IMAGE
  5
FA
330
70
100
AcDbEntity
  8
Our Portfolio
160
               140
310
8C000000010000008400000006000000050000000000000000D086400000000000A06B4000000000000000000000000000D086400000000000907B4000000000000000000000000000B08D400000000000907B4000000000000000000000000000B08D400000000000A06B4000000000000000000000000000D08640000000
310
0000A06B400000000000000000
100
AcDbRasterImage
 90
        0
 10
730.0
 20
221.0
 30
0.0
 11
1.0
 21
0.0
 31
0.0
 12
0.0
 22
1.0
 32
0.0
 13
220.0
 23
220.0
340
F9
 70
     3
280
     0
281
    50
282
    50
283
     0
290
     0
360
0
 71
     1
 91
        2
 14
-0.5
 24
-0.5
 14
219.5
 24
219.5
  0
LWPOLYLINE
  5
FB
330
70
100
AcDbEntity
  8
Our Portfolio
100
AcDbPolyline
 90
        4
 70
     1
 43
0.0
 10
730.0
 20
441.0000610351562
 10
730.0
 20
221.0000610351563
 10
950.0
 20
221.0000610351563
 10
950.0
 20
441.0000610351562
  0
IMAGE
  5
FD
330
70
100
AcDbEntity
  8
Our Portfolio
160
               140
310
8C000000010000008400000006000000050000000000000000D086400000000000D07C4000000000000000000000000000D086400000000000C8874000000000000000000000000000B08D400000000000C8874000000000000000000000000000B08D400000000000D07C4000000000000000000000000000D08640000000
310
0000D07C400000000000000000
100
AcDbRasterImage
 90
        0
 10
730.0
 20
461.0
 30
0.0
 11
1.0
 21
0.0
 31
0.0
 12
0.0
 22
1.0
 32
0.0
 13
220.0
 23
300.0
340
FC
 70
     3
280
     0
281
    50
282
    50
283
     0
290
     0
360
0
 71
     1
 91
        2
 14
-0.5
 24
-0.5
 14
219.5
 24
299.5
  0
LWPOLYLINE
  5
FE
330
70
100
AcDbEntity
  8
Our Portfolio
100
AcDbPolyline
 90
        4
 70
     1
 43
0.0
 10
730.0
 20
761.0001831054687
 10
730.0
 20
461.0001220703124
 10
950.0
 20
461.0001220703124
 10
950.0
 20
761.0001831054687
  0
IMAGE
  5
100
330
70
100
AcDbEntity
  8
Our Portfolio
160
               140
310
8C000000010000008400000006000000050000000000000000A07E400000000000A06B4000000000000000000000000000A07E400000000000488040000000000000000000000000003086400000000000488040000000000000000000000000003086400000000000A06B4000000000000000000000000000A07E40000000
310
0000A06B400000000000000000
100
AcDbRasterImage
 90
        0
 10
490.0
 20
221.0
 30
0.0
 11
1.0
 21
0.0
 31
0.0
 12
0.0
 22
1.0
 32
0.0
 13
220.0
 23
300.0
340
FF
 70
     3
280
     0
281
    50
282
    50
283
     0
290
     0
360
0
 71
     1
 91
        2
 14
-0.5
 24
-0.5
 14
219.5
 24
299.5
  0
LWPOLYLINE
  5
101
330
70
100
AcDbEntity
  8
Our Portfolio
100
AcDbPolyline
 90
        4
 70
     1
 43
0.0
 10
490.0
 20
521.0001220703125
 10
490.0
 20
221.0000610351563
 10
710.0
 20
221.0000610351563
 10
710.0
 20
521.0001220703125
  0
IMAGE
  5
103
330
70
100
AcDbEntity
  8
Our Portfolio
160
               140
310
8C000000010000008400000006000000050000000000000000A07E400000000000E8804000000000000000000000000000A07E400000000000C88740000000000000000000000000003086400000000000C88740000000000000000000000000003086400000000000E8804000000000000000000000000000A07E40000000
310
0000E880400000000000000000
100
AcDbRasterImage
 90
        0
 10
490.0
 20
541.0
 30
0.0
 11
1.0
 21
0.0
 31
0.0
 12
0.0
 22
1.0
 32
0.0
 13
220.0
 23
220.0
340
102
 70
     3
280
     0
281
    50
282
    50
283
     0
290
     0
360
0
 71
     1
 91
        2
 14
-0.5
 24
-0.5
 14
219.5
 24
219.5
  0
LWPOLYLINE
  5
104
330
70
100
AcDbEntity
  8
Our Portfolio
100
AcDbPolyline
 90
        4
 70
     1
 43
0.0
 10
490.0
 20
761.0001831054687
 10
490.0
 20
541.0001831054687
 10
710.0
 20
541.0001831054687
 10
710.0
 20
761.0001831054687
  0
LWPOLYLINE
  5
105
330
70
100
AcDbEntity
  8
Our Portfolio
100
AcDbPolyline
 90
        4
 70
     1
 43
0.0
 10
730.0
 20
761.0001831054687
 10
730.0
 20
461.0001220703124
 10
950.0
 20
461.0001220703124
 10
950.0
 20
761.0001831054687
  0
CIRCLE
  5
106
330
70
100
AcDbEntity
  8
Our Portfolio
100
AcDbCircle
 10
839.9999389648437
 20
611.0000610351562
 30
0.0
 40
20.00003051757813
  0
MTEXT
  5
107
330
70
100
AcDbEntity
  8
Our Portfolio
100
AcDbMText
 10
835.0
 20
603.0
 30
0.0
 40
0.2
 41
0.0
 46
0.0
 71
     7
 72
     1
  1
\C7;\c16777215;\FFontAwesome|b0|i0|c1;\H14.160000;\W1.000000;
 73
     1
 44
1.0
  0
SPLINE
  5
108
330
70
100
AcDbEntity
  8
Our Portfolio
100
AcDbSpline
210
0.0
220
0.0
230
1.0
 70
    11
 71
     3
 72
    17
 73
    13
 74
     0
 42
0.0000000001
 43
0.0000000001
 40
0.0
 40
0.0
 40
0.0
 40
0.0
 40
1.0
 40
1.0
 40
1.0
 40
2.0
 40
2.0
 40
2.0
 40
3.0
 40
3.0
 40
3.0
 40
4.0
 40
4.0
 40
4.0
 40
4.0
 10
944.9999389648437
 20
792.0001220703125
 30
0.0
 10
944.9999389648437
 20
792.0001220703125
 30
0.0
 10
944.9999389648437
 20
791.0001220703125
 30
0.0
 10
944.9999389648437
 20
791.0001220703125
 30
0.0
 10
944.9999389648437
 20
791.0001220703125
 30
0.0
 10
945.9999389648437
 20
791.0001220703125
 30
0.0
 10
945.9999389648437
 20
791.0001220703125
 30
0.0
 10
945.9999389648437
 20
791.0001220703125
 30
0.0
 10
945.9999389648437
 20
792.0001220703125
 30
0.0
 10
945.9999389648437
 20
792.0001220703125
 30
0.0
 10
945.9999389648437
 20
792.0001220703125
 30
0.0
 10
944.9999389648437
 20
792.0001220703125
 30
0.0
 10
944.9999389648437
 20
792.0001220703125
 30
0.0
  0
SPLINE
  5
109
330
70
100
AcDbEntity
  8
Our Portfolio
100
AcDbSpline
210
0.0
220
0.0
230
1.0
 70
    11
 71
     3
 72
    17
 73
    13
 74
     0
 42
0.0000000001
 43
0.0000000001
 40
0.0
 40
0.0
 40
0.0
 40
0.0
 40
1.0
 40
1.0
 40
1.0
 40
2.0
 40
2.0
 40
2.0
 40
3.0
 40
3.0
 40
3.0
 40
4.0
 40
4.0
 40
4.0
 40
4.0
 10
940.9999389648437
 20
791.0001220703125
 30
0.0
 10
940.9999389648437
 20
791.0001220703125
 30
0.0
 10
942.9998779296875
 20
791.0001220703125
 30
0.0
 10
942.9998779296875
 20
791.0001220703125
 30
0.0
 10
942.9998779296875
 20
791.0001220703125
 30
0.0
 10
942.9998779296875
 20
792.0001220703125
 30
0.0
 10
942.9998779296875
 20
792.0001220703125
 30
0.0
 10
942.9998779296875
 20
792.0001220703125
 30
0.0
 10
940.9999389648437
 20
792.0001220703125
 30
0.0
 10
940.9999389648437
 20
792.0001220703125
 30
0.0
 10
940.9999389648437
 20
792.0001220703125
 30
0.0
 10
940.9999389648437
 20
791.0001220703125
 30
0.0
 10
940.9999389648437
 20
791.0001220703125
 30
0.0
  0
SPLINE
  5
10A
330
70
100
AcDbEntity
  8
Our Portfolio
100
AcDbSpline
210
0.0
220
0.0
230
1.0
 70
    11
 71
     3
 72
    17
 73
    13
 74
     0
 42
0.0000000001
 43
0.0000000001
 40
0.0
 40
0.0
 40
0.0
 40
0.0
 40
1.0
 40
1.0
 40
1.0
 40
2.0
 40
2.0
 40
2.0
 40
3.0
 40
3.0
 40
3.0
 40
4.0
 40
4.0
 40
4.0
 40
4.0
 10
935.9998779296875
 20
791.0001220703125
 30
0.0
 10
935.9998779296875
 20
791.0001220703125
 30
0.0
 10
938.9998779296874
 20
791.0001220703125
 30
0.0
 10
938.9998779296874
 20
791.0001220703125
 30
0.0
 10
938.9998779296874
 20
791.0001220703125
 30
0.0
 10
938.9998779296874
 20
792.0001220703125
 30
0.0
 10
938.9998779296874
 20
792.0001220703125
 30
0.0
 10
938.9998779296874
 20
792.0001220703125
 30
0.0
 10
935.9998779296875
 20
792.0001220703125
 30
0.0
 10
935.9998779296875
 20
792.0001220703125
 30
0.0
 10
935.9998779296875
 20
792.0001220703125
 30
0.0
 10
935.9998779296875
 20
791.0001220703125
 30
0.0
 10
935.9998779296875
 20
791.0001220703125
 30
0.0
  0
SPLINE
  5
10B
330
70
100
AcDbEntity
  8
Our Portfolio
100
AcDbSpline
210
0.0
220
0.0
230
1.0
 70
    11
 71
     3
 72
    17
 73
    13
 74
     0
 42
0.0000000001
 43
0.0000000001
 40
0.0
 40
0.0
 40
0.0
 40
0.0
 40
1.0
 40
1.0
 40
1.0
 40
2.0
 40
2.0
 40
2.0
 40
3.0
 40
3.0
 40
3.0
 40
4.0
 40
4.0
 40
4.0
 40
4.0
 10
885.9999389648438
 20
791.0001220703125
 30
0.0
 10
885.9999389648438
 20
791.0001220703125
 30
0.0
 10
932.9999389648437
 20
791.0001220703125
 30
0.0
 10
932.9999389648437
 20
791.0001220703125
 30
0.0
 10
932.9999389648437
 20
791.0001220703125
 30
0.0
 10
932.9999389648437
 20
792.0001220703125
 30
0.0
 10
932.9999389648437
 20
792.0001220703125
 30
0.0
 10
932.9999389648437
 20
792.0001220703125
 30
0.0
 10
885.9999389648438
 20
792.0001220703125
 30
0.0
 10
885.9999389648438
 20
792.0001220703125
 30
0.0
 10
885.9999389648438
 20
792.0001220703125
 30
0.0
 10
885.9999389648438
 20
791.0001220703125
 30
0.0
 10
885.9999389648438
 20
791.0001220703125
 30
0.0
  0
MTEXT
  5
10C
330
70
100
AcDbEntity
  8
Our Portfolio
100
AcDbMText
 10
876.8770751953125
 20
797.0
 30
0.0
 40
0.2
 41
0.0
 46
0.0
 71
     7
 72
     1
  1
\C250;\c3487029;\FOswald Medium|b0|i0|c1;\H16.992000;\W1.000000;Our Portfolio
 73
     1
 44
1.0
  0
IMAGE
  5
10F
330
70
100
AcDbEntity
  8
Our Services
160
               140
310
8C000000010000008400000006000000050000000000000000207C400000000000C08FC000000000000000000000000000207C40000000000060A04000000000000000000000000000F89640000000000060A04000000000000000000000000000F896400000000000C08FC000000000000000000000000000207C40000000
310
0000C08FC00000000000000000
100
AcDbRasterImage
 90
        0
 10
450.0
 20
-1016.0
 30
0.0
 11
1.0
 21
0.0
 31
0.0
 12
0.0
 22
1.0
 32
0.0
 13
1020.0
 23
3112.0
340
10E
 70
     3
280
     0
281
    50
282
    50
283
     0
290
     0
360
0
 71
     1
 91
        2
 14
-0.5
 24
-0.5
 14
1019.5
 24
3111.5
  0
LWPOLYLINE
  5
110
330
70
100
AcDbEntity
  8
Our Services
100
AcDbPolyline
 90
        4
 70
     1
 43
0.0
 10
1130.0
 20
1042.000122070312
 10
1130.0
 20
876.0000610351562
 10
1430.0
 20
876.0000610351562
 10
1430.0
 20
1042.000122070312
  0
MTEXT
  5
111
330
70
100
AcDbEntity
  8
Our Services
100
AcDbMText
 10
1154.131645202636
 20
947.7701110839843
 30
0.0
 40
0.2
 41
0.0
 46
0.0
 71
     7
 72
     1
  1
\C251;\c5592405;\FOpenSans|b0|i0|c1;\H9.204000;\W1.000000;Lorem ipsum dolor sit amet, consectetpisg elit, 
 73
     1
 44
1.0
  0
MTEXT
  5
112
330
70
100
AcDbEntity
  8
Our Services
100
AcDbMText
 10
1153.819519042968
 20
923.7701110839843
 30
0.0
 40
0.2
 41
0.0
 46
0.0
 71
     7
 72
     1
  1
\C251;\c5592405;\FOpenSans|b0|i0|c1;\H9.204000;\W1.000000;sed do eiusmod tempor incididunt ut labore et 
 73
     1
 44
1.0
  0
MTEXT
  5
113
330
70
100
AcDbEntity
  8
Our Services
100
AcDbMText
 10
1222.88102722168
 20
899.7701110839843
 30
0.0
 40
0.2
 41
0.0
 46
0.0
 71
     7
 72
     1
  1
\C251;\c5592405;\FOpenSans|b0|i0|c1;\H9.204000;\W1.000000;dolore magna aliqua.
 73
     1
 44
1.0
  0
MTEXT
  5
114
330
70
100
AcDbEntity
  8
Our Services
100
AcDbMText
 10
1222.32080078125
 20
977.0
 30
0.0
 40
0.2
 41
0.0
 46
0.0
 71
     7
 72
     1
  1
\C250;\c3487029;\FOswald Medium|b0|i0|c1;\H11.328000;\W1.000000;Graphic Design
 73
     1
 44
1.0
  0
CIRCLE
  5
115
330
70
100
AcDbEntity
  8
Our Services
100
AcDbCircle
 10
1279.5
 20
1042.500030517578
 30
0.0
 40
37.49995422363902
  0
CIRCLE
  5
116
330
70
100
AcDbEntity
  8
Our Services
100
AcDbCircle
 10
1279.5
 20
1042.500076293945
 30
0.0
 40
34.50000762943671
  0
IMAGE
  5
118
330
70
100
AcDbEntity
  8
Our Services
160
               140
310
8C000000010000008400000006000000050000000000000000B89340000000000004904000000000000000000000000000B89340000000000090904000000000000000000000000000449440000000000090904000000000000000000000000000449440000000000004904000000000000000000000000000B89340000000
310
00000490400000000000000000
100
AcDbRasterImage
 90
        0
 10
1262.0
 20
1025.0
 30
0.0
 11
1.0
 21
0.0
 31
0.0
 12
0.0
 22
1.0
 32
0.0
 13
35.0
 23
35.0
340
117
 70
     3
280
     0
281
    50
282
    50
283
     0
290
     0
360
0
 71
     1
 91
        2
 14
-0.5
 24
-0.5
 14
34.5
 24
34.5
  0
IMAGE
  5
11A
330
70
100
AcDbEntity
  8
Our Services
160
               140
310
8C0000000100000084000000060000000500000000000000001889400000000000208B40000000000000000000000000001889400000000000649040000000000000000000000000007891400000000000649040000000000000000000000000007891400000000000208B4000000000000000000000000000188940000000
310
0000208B400000000000000000
100
AcDbRasterImage
 90
        0
 10
803.0
 20
868.0
 30
0.0
 11
1.0
 21
0.0
 31
0.0
 12
0.0
 22
1.0
 32
0.0
 13
315.0
 23
181.0
340
119
 70
     3
280
     0
281
    50
282
    50
283
     0
290
     0
360
0
 71
     1
 91
        2
 14
-0.5
 24
-0.5
 14
314.5
 24
180.5
  0
MTEXT
  5
11B
330
70
100
AcDbEntity
  8
Our Services
100
AcDbMText
 10
834.1321334838866
 20
947.7701110839843
 30
0.0
 40
0.2
 41
0.0
 46
0.0
 71
     7
 72
     1
  1
\C251;\c5592405;\FOpenSans|b0|i0|c1;\H9.204000;\W1.000000;Lorem ipsum dolor sit amet, consectetpisg elit, 
 73
     1
 44
1.0
  0
MTEXT
  5
11C
330
70
100
AcDbEntity
  8
Our Services
100
AcDbMText
 10
833.8200073242187
 20
923.7701110839843
 30
0.0
 40
0.2
 41
0.0
 46
0.0
 71
     7
 72
     1
  1
\C251;\c5592405;\FOpenSans|b0|i0|c1;\H9.204000;\W1.000000;sed do eiusmod tempor incididunt ut labore et 
 73
     1
 44
1.0
  0
MTEXT
  5
11D
330
70
100
AcDbEntity
  8
Our Services
100
AcDbMText
 10
902.8815155029297
 20
899.7701110839843
 30
0.0
 40
0.2
 41
0.0
 46
0.0
 71
     7
 72
     1
  1
\C251;\c5592405;\FOpenSans|b0|i0|c1;\H9.204000;\W1.000000;dolore magna aliqua.
 73
     1
 44
1.0
  0
MTEXT
  5
11E
330
70
100
AcDbEntity
  8
Our Services
100
AcDbMText
 10
902.3208007812499
 20
977.0
 30
0.0
 40
0.2
 41
0.0
 46
0.0
 71
     7
 72
     1
  1
\C250;\c3487029;\FOswald Medium|b0|i0|c1;\H11.328000;\W1.000000;Graphic Design
 73
     1
 44
1.0
  0
ELLIPSE
  5
11F
330
70
100
AcDbEntity
  8
Our Services
100
AcDbEllipse
 10
959.4999694824219
 20
1042.500030517578
 30
0.0
 11
-36.4968151166963
 21
8.615710515137887
 31
0.0
210
0.0
220
0.0
230
1.0
 40
0.9999981802828038
 41
0.0
 42
6.283185307179586
  0
ELLIPSE
  5
120
330
70
100
AcDbEntity
  8
Our Services
100
AcDbEllipse
 10
959.4999542236328
 20
1042.500076293945
 30
0.0
 11
-4.215317449863637
 21
34.24152765955969
 31
0.0
210
0.0
220
0.0
230
1.0
 40
0.9999981764216917
 41
0.0
 42
6.283185307179586
  0
IMAGE
  5
122
330
70
100
AcDbEntity
  8
Our Services
160
               140
310
8C000000010000008400000006000000050000000000000000588D400000000000F08F4000000000000000000000000000588D4000000000009C904000000000000000000000000000A08E4000000000009C904000000000000000000000000000A08E400000000000F08F4000000000000000000000000000588D40000000
310
0000F08F400000000000000000
100
AcDbRasterImage
 90
        0
 10
939.0
 20
1022.0
 30
0.0
 11
1.0
 21
0.0
 31
0.0
 12
0.0
 22
1.0
 32
0.0
 13
41.0
 23
41.0
340
121
 70
     3
280
     0
281
    50
282
    50
283
     0
290
     0
360
0
 71
     1
 91
        2
 14
-0.5
 24
-0.5
 14
40.49999999999999
 24
40.49999999999999
  0
IMAGE
  5
124
330
70
100
AcDbEntity
  8
Our Services
160
               140
310
8C000000010000008400000006000000050000000000000000207C400000000000C08FC000000000000000000000000000207C40000000000060A04000000000000000000000000000F89640000000000060A04000000000000000000000000000F896400000000000C08FC000000000000000000000000000207C40000000
310
0000C08FC00000000000000000
100
AcDbRasterImage
 90
        0
 10
450.0
 20
-1016.0
 30
0.0
 11
1.0
 21
0.0
 31
0.0
 12
0.0
 22
1.0
 32
0.0
 13
1020.0
 23
3112.0
340
123
 70
     3
280
     0
281
    50
282
    50
283
     0
290
     0
360
0
 71
     1
 91
        2
 14
-0.5
 24
-0.5
 14
1019.5
 24
3111.5
  0
LWPOLYLINE
  5
125
330
70
100
AcDbEntity
  8
Our Services
100
AcDbPolyline
 90
        4
 70
     1
 43
0.0
 10
490.0
 20
1042.000122070312
 10
490.0
 20
876.0000610351562
 10
790.0
 20
876.0000610351562
 10
790.0
 20
1042.000122070312
  0
MTEXT
  5
126
330
70
100
AcDbEntity
  8
Our Services
100
AcDbMText
 10
514.1321334838867
 20
947.7701110839843
 30
0.0
 40
0.2
 41
0.0
 46
0.0
 71
     7
 72
     1
  1
\C251;\c5592405;\FOpenSans|b0|i0|c1;\H9.204000;\W1.000000;Lorem ipsum dolor sit amet, consectetpisg elit, 
 73
     1
 44
1.0
  0
MTEXT
  5
127
330
70
100
AcDbEntity
  8
Our Services
100
AcDbMText
 10
513.8200073242187
 20
923.7701110839843
 30
0.0
 40
0.2
 41
0.0
 46
0.0
 71
     7
 72
     1
  1
\C251;\c5592405;\FOpenSans|b0|i0|c1;\H9.204000;\W1.000000;sed do eiusmod tempor incididunt ut labore et 
 73
     1
 44
1.0
  0
MTEXT
  5
128
330
70
100
AcDbEntity
  8
Our Services
100
AcDbMText
 10
582.8815155029296
 20
899.7701110839843
 30
0.0
 40
0.2
 41
0.0
 46
0.0
 71
     7
 72
     1
  1
\C251;\c5592405;\FOpenSans|b0|i0|c1;\H9.204000;\W1.000000;dolore magna aliqua.
 73
     1
 44
1.0
  0
MTEXT
  5
129
330
70
100
AcDbEntity
  8
Our Services
100
AcDbMText
 10
582.32080078125
 20
977.0
 30
0.0
 40
0.2
 41
0.0
 46
0.0
 71
     7
 72
     1
  1
\C250;\c3487029;\FOswald Medium|b0|i0|c1;\H11.328000;\W1.000000;Graphic Design
 73
     1
 44
1.0
  0
ELLIPSE
  5
12A
330
70
100
AcDbEntity
  8
Our Services
100
AcDbEllipse
 10
639.4999542236328
 20
1042.500030517578
 30
0.0
 11
-37.01573802021303
 21
6.006812669879429
 31
0.0
210
0.0
220
0.0
230
1.0
 40
0.9999987132642932
 41
0.0
 42
6.283185307179586
  0
ELLIPSE
  5
12B
330
70
100
AcDbEntity
  8
Our Services
100
AcDbEllipse
 10
639.4999542236328
 20
1042.500076293945
 30
0.0
 11
-24.39520013534898
 21
24.39520013534898
 31
0.0
210
0.0
220
0.0
230
1.0
 40
0.9999995577185087
 41
0.0
 42
6.283185307179586
  0
IMAGE
  5
12D
330
70
100
AcDbEntity
  8
Our Services
160
               140
310
8C0000000100000084000000060000000500000000000000008083400000000000F08F40000000000000000000000000008083400000000000989040000000000000000000000000008084400000000000989040000000000000000000000000008084400000000000F08F4000000000000000000000000000808340000000
310
0000F08F400000000000000000
100
AcDbRasterImage
 90
        0
 10
624.0
 20
1022.0
 30
0.0
 11
1.0
 21
0.0
 31
0.0
 12
0.0
 22
1.0
 32
0.0
 13
32.0
 23
40.0
340
12C
 70
     3
280
     0
281
    50
282
    50
283
     0
290
     0
360
0
 71
     1
 91
        2
 14
-0.5
 24
-0.5
 14
31.5
 24
39.5
  0
SPLINE
  5
12E
330
70
100
AcDbEntity
  8
Our Services
100
AcDbSpline
210
0.0
220
0.0
230
1.0
 70
    11
 71
     3
 72
    17
 73
    13
 74
     0
 42
0.0000000001
 43
0.0000000001
 40
0.0
 40
0.0
 40
0.0
 40
0.0
 40
1.0
 40
1.0
 40
1.0
 40
2.0
 40
2.0
 40
2.0
 40
3.0
 40
3.0
 40
3.0
 40
4.0
 40
4.0
 40
4.0
 40
4.0
 10
953.0
 20
1111.000244140625
 30
0.0
 10
953.0
 20
1111.000244140625
 30
0.0
 10
953.0
 20
1110.0
 30
0.0
 10
953.0
 20
1110.0
 30
0.0
 10
953.0
 20
1110.0
 30
0.0
 10
954.0
 20
1110.0
 30
0.0
 10
954.0
 20
1110.0
 30
0.0
 10
954.0
 20
1110.0
 30
0.0
 10
954.0
 20
1111.000244140625
 30
0.0
 10
954.0
 20
1111.000244140625
 30
0.0
 10
954.0
 20
1111.000244140625
 30
0.0
 10
953.0
 20
1111.000244140625
 30
0.0
 10
953.0
 20
1111.000244140625
 30
0.0
  0
SPLINE
  5
12F
330
70
100
AcDbEntity
  8
Our Services
100
AcDbSpline
210
0.0
220
0.0
230
1.0
 70
    11
 71
     3
 72
    17
 73
    13
 74
     0
 42
0.0000000001
 43
0.0000000001
 40
0.0
 40
0.0
 40
0.0
 40
0.0
 40
1.0
 40
1.0
 40
1.0
 40
2.0
 40
2.0
 40
2.0
 40
3.0
 40
3.0
 40
3.0
 40
4.0
 40
4.0
 40
4.0
 40
4.0
 10
949.0
 20
1110.0
 30
0.0
 10
949.0
 20
1110.0
 30
0.0
 10
950.9999389648438
 20
1110.0
 30
0.0
 10
950.9999389648438
 20
1110.0
 30
0.0
 10
950.9999389648438
 20
1110.0
 30
0.0
 10
950.9999389648438
 20
1111.000244140625
 30
0.0
 10
950.9999389648438
 20
1111.000244140625
 30
0.0
 10
950.9999389648438
 20
1111.000244140625
 30
0.0
 10
949.0
 20
1111.000244140625
 30
0.0
 10
949.0
 20
1111.000244140625
 30
0.0
 10
949.0
 20
1111.000244140625
 30
0.0
 10
949.0
 20
1110.0
 30
0.0
 10
949.0
 20
1110.0
 30
0.0
  0
SPLINE
  5
130
330
70
100
AcDbEntity
  8
Our Services
100
AcDbSpline
210
0.0
220
0.0
230
1.0
 70
    11
 71
     3
 72
    17
 73
    13
 74
     0
 42
0.0000000001
 43
0.0000000001
 40
0.0
 40
0.0
 40
0.0
 40
0.0
 40
1.0
 40
1.0
 40
1.0
 40
2.0
 40
2.0
 40
2.0
 40
3.0
 40
3.0
 40
3.0
 40
4.0
 40
4.0
 40
4.0
 40
4.0
 10
943.9999389648438
 20
1110.0
 30
0.0
 10
943.9999389648438
 20
1110.0
 30
0.0
 10
946.9999389648437
 20
1110.0
 30
0.0
 10
946.9999389648437
 20
1110.0
 30
0.0
 10
946.9999389648437
 20
1110.0
 30
0.0
 10
946.9999389648437
 20
1111.000244140625
 30
0.0
 10
946.9999389648437
 20
1111.000244140625
 30
0.0
 10
946.9999389648437
 20
1111.000244140625
 30
0.0
 10
943.9999389648438
 20
1111.000244140625
 30
0.0
 10
943.9999389648438
 20
1111.000244140625
 30
0.0
 10
943.9999389648438
 20
1111.000244140625
 30
0.0
 10
943.9999389648438
 20
1110.0
 30
0.0
 10
943.9999389648438
 20
1110.0
 30
0.0
  0
SPLINE
  5
131
330
70
100
AcDbEntity
  8
Our Services
100
AcDbSpline
210
0.0
220
0.0
230
1.0
 70
    11
 71
     3
 72
    17
 73
    13
 74
     0
 42
0.0000000001
 43
0.0000000001
 40
0.0
 40
0.0
 40
0.0
 40
0.0
 40
1.0
 40
1.0
 40
1.0
 40
2.0
 40
2.0
 40
2.0
 40
3.0
 40
3.0
 40
3.0
 40
4.0
 40
4.0
 40
4.0
 40
4.0
 10
894.0
 20
1110.0
 30
0.0
 10
894.0
 20
1110.0
 30
0.0
 10
941.0
 20
1110.0
 30
0.0
 10
941.0
 20
1110.0
 30
0.0
 10
941.0
 20
1110.0
 30
0.0
 10
941.0
 20
1111.000244140625
 30
0.0
 10
941.0
 20
1111.000244140625
 30
0.0
 10
941.0
 20
1111.000244140625
 30
0.0
 10
894.0
 20
1111.000244140625
 30
0.0
 10
894.0
 20
1111.000244140625
 30
0.0
 10
894.0
 20
1111.000244140625
 30
0.0
 10
894.0
 20
1110.0
 30
0.0
 10
894.0
 20
1110.0
 30
0.0
  0
MTEXT
  5
132
330
70
100
AcDbEntity
  8
Our Services
100
AcDbMText
 10
888.1571044921875
 20
1116.0
 30
0.0
 40
0.2
 41
0.0
 46
0.0
 71
     7
 72
     1
  1
\C250;\c3487029;\FOswald Medium|b0|i0|c1;\H16.992000;\W1.000000;Our Services
 73
     1
 44
1.0
  0
LWPOLYLINE
  5
134
330
70
100
AcDbEntity
  8
About Us
100
AcDbPolyline
 90
        4
 70
     1
 43
0.0
 10
794.9999389648437
 20
1459.000122070312
 10
510.0
 20
1459.000122070312
 10
510.0
 20
1195.000122070312
 10
870.0
 20
1195.000122070312
  0
IMAGE
  5
136
330
70
100
AcDbEntity
  8
About Us
160
               140
310
8C000000010000008400000006000000050000000000000000A07E400000000000AC924000000000000000000000000000A07E400000000000CC964000000000000000000000000000908A400000000000CC964000000000000000000000000000908A400000000000AC924000000000000000000000000000A07E40000000
310
0000AC92400000000000000000
100
AcDbRasterImage
 90
        0
 10
490.0
 20
1195.0
 30
0.0
 11
1.0
 21
0.0
 31
0.0
 12
0.0
 22
1.0
 32
0.0
 13
360.0
 23
264.0
340
135
 70
     3
280
     0
281
    50
282
    50
283
     0
290
     0
360
0
 71
     1
 91
        2
 14
-0.5
 24
-0.5
 14
359.5
 24
263.5
  0
LWPOLYLINE
  5
137
330
70
100
AcDbEntity
  8
About Us
100
AcDbPolyline
 90
        4
 70
     1
 43
0.0
 10
790.0
 20
1459.000122070312
 10
490.0
 20
1459.000122070312
 10
490.0
 20
1195.000122070312
 10
850.0
 20
1195.000122070312
  0
MTEXT
  5
138
330
70
100
AcDbEntity
  8
About Us
100
AcDbMText
 10
890.4765624999999
 20
1406.601165771484
 30
0.0
 40
0.2
 41
0.0
 46
0.0
 71
     7
 72
     1
  1
\C251;\c5592405;\FOpenSans|b0|i0|c1;\H9.204000;\W1.000000;Lorem ipsum dolor sit amet, consectetur adipisicing elit, sed do eiusmod tempor ididunt ut labore 
 73
     1
 44
1.0
  0
MTEXT
  5
139
330
70
100
AcDbEntity
  8
About Us
100
AcDbMText
 10
890.4765624999999
 20
1382.601165771484
 30
0.0
 40
0.2
 41
0.0
 46
0.0
 71
     7
 72
     1
  1
\C251;\c5592405;\FOpenSans|b0|i0|c1;\H9.204000;\W1.000000;et dolore magna aliqua. Ut enim ad minim veniam, quis nostrud exercitation ullamco laboris nisi ut 
 73
     1
 44
1.0
  0
MTEXT
  5
13A
330
70
100
AcDbEntity
  8
About Us
100
AcDbMText
 10
890.4765624999999
 20
1358.601165771484
 30
0.0
 40
0.2
 41
0.0
 46
0.0
 71
     7
 72
     1
  1
\C251;\c5592405;\FOpenSans|b0|i0|c1;\H9.204000;\W1.000000;aliquip ex ea commodo consequat.
 73
     1
 44
1.0
  0
MTEXT
  5
13B
330
70
100
AcDbEntity
  8
About Us
100
AcDbMText
 10
890.4765624999999
 20
1310.601165771484
 30
0.0
 40
0.2
 41
0.0
 46
0.0
 71
     7
 72
     1
  1
\C251;\c5592405;\FOpenSans|b0|i0|c1;\H9.204000;\W1.000000;Duis aute irure dolor in reprehenderit in voluptate velit esse cillum dolore eu fugiat nulla pariatur. 
 73
     1
 44
1.0
  0
MTEXT
  5
13C
330
70
100
AcDbEntity
  8
About Us
100
AcDbMText
 10
890.4765624999999
 20
1286.601165771484
 30
0.0
 40
0.2
 41
0.0
 46
0.0
 71
     7
 72
     1
  1
\C251;\c5592405;\FOpenSans|b0|i0|c1;\H9.204000;\W1.000000;Excepteur sint occaecat cupidatat non proident, sunt in culpa qui officiaeserunt mollit anim id est 
 73
     1
 44
1.0
  0
MTEXT
  5
13D
330
70
100
AcDbEntity
  8
About Us
100
AcDbMText
 10
890.4765624999999
 20
1262.601165771484
 30
0.0
 40
0.2
 41
0.0
 46
0.0
 71
     7
 72
     1
  1
\C251;\c5592405;\FOpenSans|b0|i0|c1;\H9.204000;\W1.000000;laborum. Sed ut perspiciatis unde omnis iste natus error sit voluptatem accusantium doloremque 
 73
     1
 44
1.0
  0
MTEXT
  5
13E
330
70
100
AcDbEntity
  8
About Us
100
AcDbMText
 10
890.4765624999999
 20
1238.601165771484
 30
0.0
 40
0.2
 41
0.0
 46
0.0
 71
     7
 72
     1
  1
\C251;\c5592405;\FOpenSans|b0|i0|c1;\H9.204000;\W1.000000;laudantium.
 73
     1
 44
1.0
  0
SPLINE
  5
13F
330
70
100
AcDbEntity
  8
About Us
100
AcDbSpline
210
0.0
220
0.0
230
1.0
 70
    11
 71
     3
 72
    17
 73
    13
 74
     0
 42
0.0000000001
 43
0.0000000001
 40
0.0
 40
0.0
 40
0.0
 40
0.0
 40
1.0
 40
1.0
 40
1.0
 40
2.0
 40
2.0
 40
2.0
 40
3.0
 40
3.0
 40
3.0
 40
4.0
 40
4.0
 40
4.0
 40
4.0
 10
972.0
 20
1500.000244140625
 30
0.0
 10
972.0
 20
1500.000244140625
 30
0.0
 10
972.0
 20
1499.000244140625
 30
0.0
 10
972.0
 20
1499.000244140625
 30
0.0
 10
972.0
 20
1499.000244140625
 30
0.0
 10
973.0
 20
1499.000244140625
 30
0.0
 10
973.0
 20
1499.000244140625
 30
0.0
 10
973.0
 20
1499.000244140625
 30
0.0
 10
973.0
 20
1500.000244140625
 30
0.0
 10
973.0
 20
1500.000244140625
 30
0.0
 10
973.0
 20
1500.000244140625
 30
0.0
 10
972.0
 20
1500.000244140625
 30
0.0
 10
972.0
 20
1500.000244140625
 30
0.0
  0
SPLINE
  5
140
330
70
100
AcDbEntity
  8
About Us
100
AcDbSpline
210
0.0
220
0.0
230
1.0
 70
    11
 71
     3
 72
    17
 73
    13
 74
     0
 42
0.0000000001
 43
0.0000000001
 40
0.0
 40
0.0
 40
0.0
 40
0.0
 40
1.0
 40
1.0
 40
1.0
 40
2.0
 40
2.0
 40
2.0
 40
3.0
 40
3.0
 40
3.0
 40
4.0
 40
4.0
 40
4.0
 40
4.0
 10
968.0
 20
1499.000244140625
 30
0.0
 10
968.0
 20
1499.000244140625
 30
0.0
 10
969.9999389648437
 20
1499.000244140625
 30
0.0
 10
969.9999389648437
 20
1499.000244140625
 30
0.0
 10
969.9999389648437
 20
1499.000244140625
 30
0.0
 10
969.9999389648437
 20
1500.000244140625
 30
0.0
 10
969.9999389648437
 20
1500.000244140625
 30
0.0
 10
969.9999389648437
 20
1500.000244140625
 30
0.0
 10
968.0
 20
1500.000244140625
 30
0.0
 10
968.0
 20
1500.000244140625
 30
0.0
 10
968.0
 20
1500.000244140625
 30
0.0
 10
968.0
 20
1499.000244140625
 30
0.0
 10
968.0
 20
1499.000244140625
 30
0.0
  0
SPLINE
  5
141
330
70
100
AcDbEntity
  8
About Us
100
AcDbSpline
210
0.0
220
0.0
230
1.0
 70
    11
 71
     3
 72
    17
 73
    13
 74
     0
 42
0.0000000001
 43
0.0000000001
 40
0.0
 40
0.0
 40
0.0
 40
0.0
 40
1.0
 40
1.0
 40
1.0
 40
2.0
 40
2.0
 40
2.0
 40
3.0
 40
3.0
 40
3.0
 40
4.0
 40
4.0
 40
4.0
 40
4.0
 10
962.9999389648437
 20
1499.000244140625
 30
0.0
 10
962.9999389648437
 20
1499.000244140625
 30
0.0
 10
965.9999389648437
 20
1499.000244140625
 30
0.0
 10
965.9999389648437
 20
1499.000244140625
 30
0.0
 10
965.9999389648437
 20
1499.000244140625
 30
0.0
 10
965.9999389648437
 20
1500.000244140625
 30
0.0
 10
965.9999389648437
 20
1500.000244140625
 30
0.0
 10
965.9999389648437
 20
1500.000244140625
 30
0.0
 10
962.9999389648437
 20
1500.000244140625
 30
0.0
 10
962.9999389648437
 20
1500.000244140625
 30
0.0
 10
962.9999389648437
 20
1500.000244140625
 30
0.0
 10
962.9999389648437
 20
1499.000244140625
 30
0.0
 10
962.9999389648437
 20
1499.000244140625
 30
0.0
  0
SPLINE
  5
142
330
70
100
AcDbEntity
  8
About Us
100
AcDbSpline
210
0.0
220
0.0
230
1.0
 70
    11
 71
     3
 72
    17
 73
    13
 74
     0
 42
0.0000000001
 43
0.0000000001
 40
0.0
 40
0.0
 40
0.0
 40
0.0
 40
1.0
 40
1.0
 40
1.0
 40
2.0
 40
2.0
 40
2.0
 40
3.0
 40
3.0
 40
3.0
 40
4.0
 40
4.0
 40
4.0
 40
4.0
 10
913.0
 20
1499.000244140625
 30
0.0
 10
913.0
 20
1499.000244140625
 30
0.0
 10
960.0
 20
1499.000244140625
 30
0.0
 10
960.0
 20
1499.000244140625
 30
0.0
 10
960.0
 20
1499.000244140625
 30
0.0
 10
960.0
 20
1500.000244140625
 30
0.0
 10
960.0
 20
1500.000244140625
 30
0.0
 10
960.0
 20
1500.000244140625
 30
0.0
 10
913.0
 20
1500.000244140625
 30
0.0
 10
913.0
 20
1500.000244140625
 30
0.0
 10
913.0
 20
1500.000244140625
 30
0.0
 10
913.0
 20
1499.000244140625
 30
0.0
 10
913.0
 20
1499.000244140625
 30
0.0
  0
MTEXT
  5
143
330
70
100
AcDbEntity
  8
About Us
100
AcDbMText
 10
907.9326782226562
 20
1505.0
 30
0.0
 40
0.2
 41
0.0
 46
0.0
 71
     7
 72
     1
  1
\C250;\c3487029;\FOswald Medium|b0|i0|c1;\H16.992000;\W1.000000;About Us
 73
     1
 44
1.0
  0
IMAGE
  5
146
330
70
100
AcDbEntity
  8
Slider
160
               140
310
8C000000010000008400000006000000050000000000000000207C400000000000C0984000000000000000000000000000207C400000000000009F4000000000000000000000000000F896400000000000009F4000000000000000000000000000F896400000000000C0984000000000000000000000000000207C40000000
310
0000C098400000000000000000
100
AcDbRasterImage
 90
        0
 10
450.0
 20
1584.0
 30
0.0
 11
1.0
 21
0.0
 31
0.0
 12
0.0
 22
1.0
 32
0.0
 13
1020.0
 23
400.0
340
145
 70
     3
280
     0
281
    50
282
    50
283
     0
290
     0
360
0
 71
     1
 91
        2
 14
-0.5
 24
-0.5
 14
1019.5
 24
399.5
  0
LWPOLYLINE
  5
147
330
70
100
AcDbEntity
  8
Slider
100
AcDbPolyline
 90
        4
 70
     1
 43
0.0
 10
450.0
 20
1984.0
 10
450.0
 20
1584.000122070312
 10
1470.0
 20
1584.000122070312
 10
1470.0
 20
1984.0
  0
LWPOLYLINE
  5
148
330
70
100
AcDbEntity
  8
Slider
100
AcDbPolyline
 90
        4
 70
     1
 43
0.0
 10
450.0
 20
1984.0
 10
450.0
 20
1584.000122070312
 10
1470.0
 20
1584.000122070312
 10
1470.0
 20
1984.0
  0
LWPOLYLINE
  5
149
330
70
100
AcDbEntity
  8
Slider
100
AcDbPolyline
 90
        4
 70
     1
 43
0.0
 10
1242.0
 20
1702.000122070312
 10
1242.0
 20
1671.000244140625
 10
1326.0
 20
1671.000244140625
 10
1326.0
 20
1702.000122070312
  0
MTEXT
  5
14A
330
70
100
AcDbEntity
  8
Slider
100
AcDbMText
 10
1261.08935546875
 20
1681.0
 30
0.0
 40
0.2
 41
0.0
 46
0.0
 71
     7
 72
     1
  1
\C7;\c16777215;\FOswald Medium|b0|i0|c1;\H9.912000;\W1.000000;Hire Us
 73
     1
 44
1.0
  0
LWPOLYLINE
  5
14B
330
70
100
AcDbEntity
  8
Slider
100
AcDbPolyline
 90
        4
 70
     1
 43
0.0
 10
1346.0
 20
1702.000122070312
 10
1346.0
 20
1671.000244140625
 10
1430.0
 20
1671.000244140625
 10
1430.0
 20
1702.000122070312
  0
MTEXT
  5
14C
330
70
100
AcDbEntity
  8
Slider
100
AcDbMText
 10
1359.790328979492
 20
1681.0
 30
0.0
 40
0.2
 41
0.0
 46
0.0
 71
     7
 72
     1
  1
\C7;\c16777215;\FOswald Medium|b0|i0|c1;\H9.912000;\W1.000000;Contact
 73
     1
 44
1.0
  0
MTEXT
  5
14D
330
70
100
AcDbEntity
  8
Slider
100
AcDbMText
 10
996.13134765625
 20
1783.770111083984
 30
0.0
 40
0.2
 41
0.0
 46
0.0
 71
     7
 72
     1
  1
\C7;\c16777215;\FOpenSans|b0|i0|c1;\H9.204000;\W1.000000;Lorem ipsum dolor sit amet, consectetur adipisicing elit, sed do eiusmod tempor 
 73
     1
 44
1.0
  0
MTEXT
  5
14E
330
70
100
AcDbEntity
  8
Slider
100
AcDbMText
 10
976.1642456054687
 20
1759.770111083984
 30
0.0
 40
0.2
 41
0.0
 46
0.0
 71
     7
 72
     1
  1
\C7;\c16777215;\FOpenSans|b0|i0|c1;\H9.204000;\W1.000000;incididunt ut labore et dolore magna aliqua. Ut enim ad minim veniam, quis nostrud 
 73
     1
 44
1.0
  0
MTEXT
  5
14F
330
70
100
AcDbEntity
  8
Slider
100
AcDbMText
 10
1363.2978515625
 20
1735.770111083984
 30
0.0
 40
0.2
 41
0.0
 46
0.0
 71
     7
 72
     1
  1
\C7;\c16777215;\FOpenSans|b0|i0|c1;\H9.204000;\W1.000000;exercitation. 
 73
     1
 44
1.0
  0
MTEXT
  5
150
330
70
100
AcDbEntity
  8
Slider
100
AcDbMText
 10
1096.32470703125
 20
1823.0
 30
0.0
 40
0.2
 41
0.0
 46
0.0
 71
     7
 72
     1
  1
\C7;\c16777215;\FOswald Bold|b1|i0|c1;\H28.320000;\W1.000000;Creative Designer
 73
     1
 44
1.0
  0
MTEXT
  5
151
330
70
100
AcDbEntity
  8
Slider
100
AcDbMText
 10
1295.331878662109
 20
1871.0
 30
0.0
 40
0.2
 41
0.0
 46
0.0
 71
     7
 72
     1
  1
\C7;\c16777215;\FOswald Regular|b0|i0|c1;\H21.240000;\W1.000000;Hi! We Are
 73
     1
 44
1.0
  0
MTEXT
  5
153
330
70
100
AcDbEntity
  8
Header
100
AcDbMText
 10
1082.400695800781
 20
2020.0
 30
0.0
 40
0.2
 41
0.0
 46
0.0
 71
     7
 72
     1
  1
\C152;\c12153352;\FMyriad Pro|b0|i0|c1;\H9.912000;\W1.000000;Home\C250;\c3487029;     About us     Gallery     Testimonial     Blogs     Contact
 73
     1
 44
1.0
  0
IMAGE
  5
155
330
70
100
AcDbEntity
  8
Header
160
               140
310
8C000000010000008400000006000000050000000000000000A07E400000000000509F4000000000000000000000000000A07E400000000000F09F4000000000000000000000000000C881400000000000F09F4000000000000000000000000000C881400000000000509F4000000000000000000000000000A07E40000000
310
0000509F400000000000000000
100
AcDbRasterImage
 90
        0
 10
490.0
 20
2004.0
 30
0.0
 11
1.0
 21
0.0
 31
0.0
 12
0.0
 22
1.0
 32
0.0
 13
79.0
 23
40.0
340
154
 70
     3
280
     0
281
    50
282
    50
283
     0
290
     0
360
0
 71
     1
 91
        2
 14
-0.5
 24
-0.5
 14
78.5
 24
39.5
  0
LWPOLYLINE
  5
156
330
70
100
AcDbEntity
  8
Header
100
AcDbPolyline
 90
        4
 70
     1
 43
0.0
 10
450.0
 20
2096.0
 10
450.0
 20
2064.0
 10
1470.0
 20
2064.0
 10
1470.0
 20
2096.0
  0
MTEXT
  5
157
330
70
100
AcDbEntity
  8
Header
100
AcDbMText
 10
1311.899780273437
 20
2074.0
 30
0.0
 40
0.2
 41
0.0
 46
0.0
 71
     7
 72
     1
  1
\C254;\c15198183;\FFontAwesome|b0|i0|c1;\H9.912000;\W1.000000;              \C250;\c3487029;\C254;\c15198183;              
 73
     1
 44
1.0
  0
MTEXT
  5
158
330
70
100
AcDbEntity
  8
Header
100
AcDbMText
 10
497.8596801757812
 20
2074.0
 30
0.0
 40
0.2
 41
0.0
 46
0.0
 71
     7
 72
     1
  1
\C254;\c15198183;\FOpenSans|b0|i0|c1;\H9.912000;\W1.000000;Welcome to Beatles
 73
     1
 44
1.0
  0
ENDSEC
  0
SECTION
  2
OBJECTS
  0
DICTIONARY
  5
C
330
0
100
AcDbDictionary
281
     1
  3
ACAD_COLOR
350
63
  3
ACAD_DETAILVIEWSTYLE
350
6A
  3
ACAD_GROUP
350
D
  3
ACAD_IMAGE_DICT
350
79
  3
ACAD_LAYOUT
350
62
  3
ACAD_MATERIAL
350
10
  3
ACAD_MLEADERSTYLE
350
66
  3
ACAD_MLINESTYLE
350
5F
  3
ACAD_PLOTSETTINGS
350
61
  3
ACAD_PLOTSTYLENAME
350
E
  3
ACAD_SCALELIST
350
42
  3
ACAD_SECTIONVIEWSTYLE
350
68
  3
ACAD_TABLESTYLE
350
64
  3
ACAD_VISUALSTYLE
350
29
  3
ACDB_RECOMPOSE_DATA
350
161
  3
AcDbVariableDictionary
350
159
  0
DICTIONARY
  5
63
102
{ACAD_REACTORS
330
C
102
}
330
C
100
AcDbDictionary
281
     1
  0
DICTIONARY
  5
6A
102
{ACAD_REACTORS
330
C
102
}
330
C
100
AcDbDictionary
281
     1
  3
Imperial24
350
6B
  0
DICTIONARY
  5
D
102
{ACAD_REACTORS
330
C
102
}
330
C
100
AcDbDictionary
281
     1
  0
DICTIONARY
  5
79
102
{ACAD_REACTORS
330
C
102
}
330
C
100
AcDbDictionary
281
     1
  3
01-Beatles_1.png
350
7A
  3
01-Beatles_10.png
350
B8
  3
01-Beatles_11.png
350
C2
  3
01-Beatles_12.png
350
CD
  3
01-Beatles_13.png
350
D2
  3
01-Beatles_14.png
350
D6
  3
01-Beatles_15.png
350
DB
  3
01-Beatles_16.png
350
ED
  3
01-Beatles_17.png
350
F0
  3
01-Beatles_18.png
350
F3
  3
01-Beatles_19.png
350
F6
  3
01-Beatles_2.png
350
7C
  3
01-Beatles_20.png
350
F9
  3
01-Beatles_21.png
350
FC
  3
01-Beatles_22.png
350
FF
  3
01-Beatles_23.png
350
102
  3
01-Beatles_24.png
350
10E
  3
01-Beatles_25.png
350
117
  3
01-Beatles_26.png
350
119
  3
01-Beatles_27.png
350
121
  3
01-Beatles_28.png
350
123
  3
01-Beatles_29.png
350
12C
  3
01-Beatles_3.png
350
88
  3
01-Beatles_30.png
350
135
  3
01-Beatles_31.png
350
145
  3
01-Beatles_32.png
350
154
  3
01-Beatles_4.png
350
8B
  3
01-Beatles_5.png
350
8E
  3
01-Beatles_6.png
350
91
  3
01-Beatles_7.png
350
94
  3
01-Beatles_8.png
350
97
  3
01-Beatles_9.png
350
AE
  0
DICTIONARY
  5
62
102
{ACAD_REACTORS
330
C
102
}
330
C
100
AcDbDictionary
281
     1
  3
Layout1
350
6F
  3
Layout2
350
77
  3
Model
350
73
  0
DICTIONARY
  5
10
102
{ACAD_REACTORS
330
C
102
}
330
C
100
AcDbDictionary
281
     1
  3
ByBlock
350
19
  3
ByLayer
350
11
  3
Global
350
21
  0
DICTIONARY
  5
66
102
{ACAD_REACTORS
330
C
102
}
330
C
100
AcDbDictionary
281
     1
  3
Standard
350
67
  0
DICTIONARY
  5
5F
102
{ACAD_REACTORS
330
C
102
}
330
C
100
AcDbDictionary
281
     1
  3
Standard
350
60
  0
DICTIONARY
  5
61
102
{ACAD_REACTORS
330
C
102
}
330
C
100
AcDbDictionary
281
     1
  0
ACDBDICTIONARYWDFLT
  5
E
102
{ACAD_REACTORS
330
C
102
}
330
C
100
AcDbDictionary
281
     1
  3
Normal
350
F
100
AcDbDictionaryWithDefault
340
F
  0
DICTIONARY
  5
42
102
{ACAD_REACTORS
330
C
102
}
330
C
100
AcDbDictionary
281
     1
  3
A0
350
43
  3
A1
350
44
  3
A2
350
45
  3
A3
350
46
  3
A4
350
47
  3
A5
350
48
  3
A6
350
49
  3
A7
350
4A
  3
A8
350
4B
  3
A9
350
4C
  3
B0
350
4D
  3
B1
350
4E
  3
B2
350
4F
  3
B3
350
50
  3
B4
350
51
  3
B5
350
52
  3
B6
350
53
  0
DICTIONARY
  5
68
102
{ACAD_REACTORS
330
C
102
}
330
C
100
AcDbDictionary
281
     1
  3
Imperial24
350
69
  0
DICTIONARY
  5
64
102
{ACAD_REACTORS
330
C
102
}
330
C
100
AcDbDictionary
281
     1
  3
Standard
350
65
  0
DICTIONARY
  5
29
102
{ACAD_REACTORS
330
C
102
}
330
C
100
AcDbDictionary
281
     1
  3
2dWireframe
350
2F
  3
Basic
350
2E
  3
Brighten
350
35
  3
ColorChange
350
39
  3
Conceptual
350
32
  3
Dim
350
34
  3
EdgeColorOff
350
41
  3
Facepattern
350
38
  3
Flat
350
2A
  3
FlatWithEdges
350
2B
  3
Gouraud
350
2C
  3
GouraudWithEdges
350
2D
  3
Hidden
350
31
  3
JitterOff
350
3F
  3
Linepattern
350
37
  3
OverhangOff
350
40
  3
Realistic
350
33
  3
Shaded
350
3E
  3
Shaded with edges
350
3D
  3
Shades of Gray
350
3A
  3
Sketchy
350
3B
  3
Thicken
350
36
  3
Wireframe
350
30
  3
X-Ray
350
3C
  0
XRECORD
  5
161
102
{ACAD_REACTORS
330
C
102
}
330
C
100
AcDbXrecord
280
     1
 90
        1
330
65
  0
DICTIONARY
  5
159
102
{ACAD_REACTORS
330
C
102
}
330
C
100
AcDbDictionary
281
     1
  3
CANNOSCALE
350
15E
  3
CMLEADERSTYLE
350
15B
  3
CTABLESTYLE
350
15A
  3
CVIEWDETAILSTYLE
350
15C
  3
CVIEWSECTIONSTYLE
350
15D
  0
ACDBDETAILVIEWSTYLE
  5
6B
102
{ACAD_REACTORS
330
6A
102
}
330
6A
100
AcDbModelDocViewStyle
 70
     0
  3
Imperial24
290
     1
300
Imperial24
 90
        0
100
AcDbDetailViewStyle
 70
     0
 71
     0
 90
        3
 71
     1
340
55
 62
   256
 40
0.24
340
0
 62
   256
 40
0.24
300

 40
0.36
280
     3
 71
     2
340
5D
 90
       25
 62
   256
 71
     3
340
55
 62
   256
 40
0.24
 90
        1
 40
0.75
 90
        1
300
%<\AcVar ViewType \f "%tc1">% %<\AcVar ViewDetailId>%\PSCALE %<\AcVar ViewScale \f "%sn">%
 71
     4
340
5D
 90
       25
 62
   256
340
5D
 90
       25
 62
   256
280
     0
  0
IMAGEDEF
  5
7A
102
{ACAD_REACTORS
330
79
102
}
330
79
100
AcDbRasterImageDef
 90
        0
  1
E:\my project\advance_psd\02-Standard PSD\01-Beatles_1.png
 10
1020.0
 20
3112.0
 11
0.3527336860670194
 21
0.3527336860670194
280
     1
281
     2
  0
IMAGEDEF
  5
B8
102
{ACAD_REACTORS
330
79
102
}
330
79
100
AcDbRasterImageDef
 90
        0
  1
E:\my project\advance_psd\02-Standard PSD\01-Beatles_10.png
 10
80.0
 20
80.0
 11
0.3527336860670194
 21
0.3527336860670194
280
     1
281
     2
  0
IMAGEDEF
  5
C2
102
{ACAD_REACTORS
330
79
102
}
330
79
100
AcDbRasterImageDef
 90
        0
  1
E:\my project\advance_psd\02-Standard PSD\01-Beatles_11.png
 10
80.0
 20
80.0
 11
0.3527336860670194
 21
0.3527336860670194
280
     1
281
     2
  0
IMAGEDEF
  5
CD
102
{ACAD_REACTORS
330
79
102
}
330
79
100
AcDbRasterImageDef
 90
        0
  1
E:\my project\advance_psd\02-Standard PSD\01-Beatles_12.png
 10
220.0
 20
270.0
 11
0.3527336860670194
 21
0.3527336860670194
280
     1
281
     2
  0
IMAGEDEF
  5
D2
102
{ACAD_REACTORS
330
79
102
}
330
79
100
AcDbRasterImageDef
 90
        0
  1
E:\my project\advance_psd\02-Standard PSD\01-Beatles_13.png
 10
233.0
 20
283.0
 11
0.3527336860670194
 21
0.3527336860670194
280
     1
281
     2
  0
IMAGEDEF
  5
D6
102
{ACAD_REACTORS
330
79
102
}
330
79
100
AcDbRasterImageDef
 90
        0
  1
E:\my project\advance_psd\02-Standard PSD\01-Beatles_14.png
 10
220.0
 20
270.0
 11
0.3527336860670194
 21
0.3527336860670194
280
     1
281
     2
  0
IMAGEDEF
  5
DB
102
{ACAD_REACTORS
330
79
102
}
330
79
100
AcDbRasterImageDef
 90
        0
  1
E:\my project\advance_psd\02-Standard PSD\01-Beatles_15.png
 10
220.0
 20
270.0
 11
0.3527336860670194
 21
0.3527336860670194
280
     1
281
     2
  0
IMAGEDEF
  5
ED
102
{ACAD_REACTORS
330
79
102
}
330
79
100
AcDbRasterImageDef
 90
        0
  1
E:\my project\advance_psd\02-Standard PSD\01-Beatles_16.png
 10
220.0
 20
220.0
 11
0.3527336860670194
 21
0.3527336860670194
280
     1
281
     2
  0
IMAGEDEF
  5
F0
102
{ACAD_REACTORS
330
79
102
}
330
79
100
AcDbRasterImageDef
 90
        0
  1
E:\my project\advance_psd\02-Standard PSD\01-Beatles_17.png
 10
220.0
 20
300.0
 11
0.3527336860670194
 21
0.3527336860670194
280
     1
281
     2
  0
IMAGEDEF
  5
F3
102
{ACAD_REACTORS
330
79
102
}
330
79
100
AcDbRasterImageDef
 90
        0
  1
E:\my project\advance_psd\02-Standard PSD\01-Beatles_18.png
 10
220.0
 20
300.0
 11
0.3527336860670194
 21
0.3527336860670194
280
     1
281
     2
  0
IMAGEDEF
  5
F6
102
{ACAD_REACTORS
330
79
102
}
330
79
100
AcDbRasterImageDef
 90
        0
  1
E:\my project\advance_psd\02-Standard PSD\01-Beatles_19.png
 10
220.0
 20
220.0
 11
0.3527336860670194
 21
0.3527336860670194
280
     1
281
     2
  0
IMAGEDEF
  5
7C
102
{ACAD_REACTORS
330
79
102
}
330
79
100
AcDbRasterImageDef
 90
        0
  1
E:\my project\advance_psd\02-Standard PSD\01-Beatles_2.png
 10
1020.0
 20
3112.0
 11
0.3527336860670194
 21
0.3527336860670194
280
     1
281
     2
  0
IMAGEDEF
  5
F9
102
{ACAD_REACTORS
330
79
102
}
330
79
100
AcDbRasterImageDef
 90
        0
  1
E:\my project\advance_psd\02-Standard PSD\01-Beatles_20.png
 10
220.0
 20
220.0
 11
0.3527336860670194
 21
0.3527336860670194
280
     1
281
     2
  0
IMAGEDEF
  5
FC
102
{ACAD_REACTORS
330
79
102
}
330
79
100
AcDbRasterImageDef
 90
        0
  1
E:\my project\advance_psd\02-Standard PSD\01-Beatles_21.png
 10
220.0
 20
300.0
 11
0.3527336860670194
 21
0.3527336860670194
280
     1
281
     2
  0
IMAGEDEF
  5
FF
102
{ACAD_REACTORS
330
79
102
}
330
79
100
AcDbRasterImageDef
 90
        0
  1
E:\my project\advance_psd\02-Standard PSD\01-Beatles_22.png
 10
220.0
 20
300.0
 11
0.3527336860670194
 21
0.3527336860670194
280
     1
281
     2
  0
IMAGEDEF
  5
102
102
{ACAD_REACTORS
330
79
102
}
330
79
100
AcDbRasterImageDef
 90
        0
  1
E:\my project\advance_psd\02-Standard PSD\01-Beatles_23.png
 10
220.0
 20
220.0
 11
0.3527336860670194
 21
0.3527336860670194
280
     1
281
     2
  0
IMAGEDEF
  5
10E
102
{ACAD_REACTORS
330
79
102
}
330
79
100
AcDbRasterImageDef
 90
        0
  1
E:\my project\advance_psd\02-Standard PSD\01-Beatles_24.png
 10
1020.0
 20
3112.0
 11
0.3527336860670194
 21
0.3527336860670194
280
     1
281
     2
  0
IMAGEDEF
  5
117
102
{ACAD_REACTORS
330
79
102
}
330
79
100
AcDbRasterImageDef
 90
        0
  1
E:\my project\advance_psd\02-Standard PSD\01-Beatles_25.png
 10
35.0
 20
35.0
 11
0.3527336860670194
 21
0.3527336860670194
280
     1
281
     2
  0
IMAGEDEF
  5
119
102
{ACAD_REACTORS
330
79
102
}
330
79
100
AcDbRasterImageDef
 90
        0
  1
E:\my project\advance_psd\02-Standard PSD\01-Beatles_26.png
 10
315.0
 20
181.0
 11
0.3527336860670194
 21
0.3527336860670194
280
     1
281
     2
  0
IMAGEDEF
  5
121
102
{ACAD_REACTORS
330
79
102
}
330
79
100
AcDbRasterImageDef
 90
        0
  1
E:\my project\advance_psd\02-Standard PSD\01-Beatles_27.png
 10
41.0
 20
41.0
 11
0.3527336860670194
 21
0.3527336860670194
280
     1
281
     2
  0
IMAGEDEF
  5
123
102
{ACAD_REACTORS
330
79
102
}
330
79
100
AcDbRasterImageDef
 90
        0
  1
E:\my project\advance_psd\02-Standard PSD\01-Beatles_28.png
 10
1020.0
 20
3112.0
 11
0.3527336860670194
 21
0.3527336860670194
280
     1
281
     2
  0
IMAGEDEF
  5
12C
102
{ACAD_REACTORS
330
79
102
}
330
79
100
AcDbRasterImageDef
 90
        0
  1
E:\my project\advance_psd\02-Standard PSD\01-Beatles_29.png
 10
32.0
 20
40.0
 11
0.3527336860670194
 21
0.3527336860670194
280
     1
281
     2
  0
IMAGEDEF
  5
88
102
{ACAD_REACTORS
330
79
102
}
330
79
100
AcDbRasterImageDef
 90
        0
  1
E:\my project\advance_psd\02-Standard PSD\01-Beatles_3.png
 10
90.0
 20
90.0
 11
0.3527336860670194
 21
0.3527336860670194
280
     1
281
     2
  0
IMAGEDEF
  5
135
102
{ACAD_REACTORS
330
79
102
}
330
79
100
AcDbRasterImageDef
 90
        0
  1
E:\my project\advance_psd\02-Standard PSD\01-Beatles_30.png
 10
360.0
 20
264.0
 11
0.3527336860670194
 21
0.3527336860670194
280
     1
281
     2
  0
IMAGEDEF
  5
145
102
{ACAD_REACTORS
330
79
102
}
330
79
100
AcDbRasterImageDef
 90
        0
  1
E:\my project\advance_psd\02-Standard PSD\01-Beatles_31.png
 10
1020.0
 20
400.0
 11
0.3527336860670194
 21
0.3527336860670194
280
     1
281
     2
  0
IMAGEDEF
  5
154
102
{ACAD_REACTORS
330
79
102
}
330
79
100
AcDbRasterImageDef
 90
        0
  1
E:\my project\advance_psd\02-Standard PSD\01-Beatles_32.png
 10
79.0
 20
40.0
 11
0.3527336860670194
 21
0.3527336860670194
280
     1
281
     2
  0
IMAGEDEF
  5
8B
102
{ACAD_REACTORS
330
79
102
}
330
79
100
AcDbRasterImageDef
 90
        0
  1
E:\my project\advance_psd\02-Standard PSD\01-Beatles_4.png
 10
90.0
 20
90.0
 11
0.3527336860670194
 21
0.3527336860670194
280
     1
281
     2
  0
IMAGEDEF
  5
8E
102
{ACAD_REACTORS
330
79
102
}
330
79
100
AcDbRasterImageDef
 90
        0
  1
E:\my project\advance_psd\02-Standard PSD\01-Beatles_5.png
 10
90.0
 20
90.0
 11
0.3527336860670194
 21
0.3527336860670194
280
     1
281
     2
  0
IMAGEDEF
  5
91
102
{ACAD_REACTORS
330
79
102
}
330
79
100
AcDbRasterImageDef
 90
        0
  1
E:\my project\advance_psd\02-Standard PSD\01-Beatles_6.png
 10
90.0
 20
90.0
 11
0.3527336860670194
 21
0.3527336860670194
280
     1
281
     2
  0
IMAGEDEF
  5
94
102
{ACAD_REACTORS
330
79
102
}
330
79
100
AcDbRasterImageDef
 90
        0
  1
E:\my project\advance_psd\02-Standard PSD\01-Beatles_7.png
 10
90.0
 20
90.0
 11
0.3527336860670194
 21
0.3527336860670194
280
     1
281
     2
  0
IMAGEDEF
  5
97
102
{ACAD_REACTORS
330
79
102
}
330
79
100
AcDbRasterImageDef
 90
        0
  1
E:\my project\advance_psd\02-Standard PSD\01-Beatles_8.png
 10
90.0
 20
90.0
 11
0.3527336860670194
 21
0.3527336860670194
280
     1
281
     2
  0
IMAGEDEF
  5
AE
102
{ACAD_REACTORS
330
79
102
}
330
79
100
AcDbRasterImageDef
 90
        0
  1
E:\my project\advance_psd\02-Standard PSD\01-Beatles_9.png
 10
79.0
 20
40.0
 11
0.3527336860670194
 21
0.3527336860670194
280
     1
281
     2
  0
LAYOUT
  5
6F
102
{ACAD_REACTORS
330
62
102
}
330
62
100
AcDbPlotSettings
  1

  2

  4

  6

 40
0.0
 41
0.0
 42
0.0
 43
0.0
 44
0.0
 45
0.0
 46
0.0
 47
0.0
 48
0.0
 49
0.0
140
0.0
141
0.0
142
1.0
143
1.0
 70
   688
 72
     0
 73
     0
 74
     5
  7

 75
    16
147
1.0
 76
     0
 77
     2
 78
   300
148
0.0
149
0.0
100
AcDbLayout
  1
Layout1
 70
     1
 71
     1
 10
0.0
 20
0.0
 11
12.0
 21
9.0
 12
0.0
 22
0.0
 32
0.0
 14
0.0
 24
0.0
 34
0.0
 15
0.0
 25
0.0
 35
0.0
146
0.0
 13
0.0
 23
0.0
 33
0.0
 16
1.0
 26
0.0
 36
0.0
 17
0.0
 27
1.0
 37
0.0
 76
     0
330
6C
  0
LAYOUT
  5
77
102
{ACAD_REACTORS
330
62
102
}
330
62
100
AcDbPlotSettings
  1

  2

  4

  6

 40
0.0
 41
0.0
 42
0.0
 43
0.0
 44
0.0
 45
0.0
 46
0.0
 47
0.0
 48
0.0
 49
0.0
140
0.0
141
0.0
142
1.0
143
1.0
 70
   688
 72
     0
 73
     0
 74
     5
  7

 75
    16
147
1.0
 76
     0
 77
     2
 78
   300
148
0.0
149
0.0
100
AcDbLayout
  1
Layout2
 70
     1
 71
     2
 10
0.0
 20
0.0
 11
12.0
 21
9.0
 12
0.0
 22
0.0
 32
0.0
 14
0.0
 24
0.0
 34
0.0
 15
0.0
 25
0.0
 35
0.0
146
0.0
 13
0.0
 23
0.0
 33
0.0
 16
1.0
 26
0.0
 36
0.0
 17
0.0
 27
1.0
 37
0.0
 76
     0
330
74
  0
LAYOUT
  5
73
102
{ACAD_REACTORS
330
62
102
}
330
62
100
AcDbPlotSettings
  1

  2

  4

  6

 40
0.0
 41
0.0
 42
0.0
 43
0.0
 44
0.0
 45
0.0
 46
0.0
 47
0.0
 48
0.0
 49
0.0
140
0.0
141
0.0
142
1.0
143
1.0
 70
  1712
 72
     0
 73
     0
 74
     0
  7

 75
     0
147
1.0
 76
     0
 77
     2
 78
   300
148
0.0
149
0.0
100
AcDbLayout
  1
Model
 70
     1
 71
     0
 10
0.0
 20
0.0
 11
12.0
 21
9.0
 12
0.0
 22
0.0
 32
0.0
 14
0.0
 24
0.0
 34
0.0
 15
0.0
 25
0.0
 35
0.0
146
0.0
 13
0.0
 23
0.0
 33
0.0
 16
1.0
 26
0.0
 36
0.0
 17
0.0
 27
1.0
 37
0.0
 76
     0
330
70
  0
MATERIAL
  5
19
102
{ACAD_XDICTIONARY
360
1A
102
}
102
{ACAD_REACTORS
330
10
102
}
330
10
100
AcDbMaterial
  1
ByBlock
 72
     0
 43
0.0208333333333333
 43
0.0
 43
0.0
 43
0.0
 43
0.0
 43
0.0208333333333333
 43
0.0
 43
0.0
 43
0.0
 43
0.0
 43
1.0
 43
0.0
 43
0.0
 43
0.0
 43
0.0
 43
1.0
 77
     0
 47
0.0208333333333333
 47
0.0
 47
0.0
 47
0.0
 47
0.0
 47
0.0208333333333333
 47
0.0
 47
0.0
 47
0.0
 47
0.0
 47
1.0
 47
0.0
 47
0.0
 47
0.0
 47
0.0
 47
1.0
171
     0
 49
0.0208333333333333
 49
0.0
 49
0.0
 49
0.0
 49
0.0
 49
0.0208333333333333
 49
0.0
 49
0.0
 49
0.0
 49
0.0
 49
1.0
 49
0.0
 49
0.0
 49
0.0
 49
0.0
 49
1.0
175
     0
142
0.0208333333333333
142
0.0
142
0.0
142
0.0
142
0.0
142
0.0208333333333333
142
0.0
142
0.0
142
0.0
142
0.0
142
1.0
142
0.0
142
0.0
142
0.0
142
0.0
142
1.0
179
     0
144
0.0208333333333333
144
0.0
144
0.0
144
0.0
144
0.0
144
0.0208333333333333
144
0.0
144
0.0
144
0.0
144
0.0
144
1.0
144
0.0
144
0.0
144
0.0
144
0.0
144
1.0
147
0.0208333333333333
147
0.0
147
0.0
147
0.0
147
0.0
147
0.0208333333333333
147
0.0
147
0.0
147
0.0
147
0.0
147
1.0
147
0.0
147
0.0
147
0.0
147
0.0
147
1.0
  0
MATERIAL
  5
11
102
{ACAD_XDICTIONARY
360
12
102
}
102
{ACAD_REACTORS
330
10
102
}
330
10
100
AcDbMaterial
  1
ByLayer
 72
     0
 43
0.0208333333333333
 43
0.0
 43
0.0
 43
0.0
 43
0.0
 43
0.0208333333333333
 43
0.0
 43
0.0
 43
0.0
 43
0.0
 43
1.0
 43
0.0
 43
0.0
 43
0.0
 43
0.0
 43
1.0
 77
     0
 47
0.0208333333333333
 47
0.0
 47
0.0
 47
0.0
 47
0.0
 47
0.0208333333333333
 47
0.0
 47
0.0
 47
0.0
 47
0.0
 47
1.0
 47
0.0
 47
0.0
 47
0.0
 47
0.0
 47
1.0
171
     0
 49
0.0208333333333333
 49
0.0
 49
0.0
 49
0.0
 49
0.0
 49
0.0208333333333333
 49
0.0
 49
0.0
 49
0.0
 49
0.0
 49
1.0
 49
0.0
 49
0.0
 49
0.0
 49
0.0
 49
1.0
175
     0
142
0.0208333333333333
142
0.0
142
0.0
142
0.0
142
0.0
142
0.0208333333333333
142
0.0
142
0.0
142
0.0
142
0.0
142
1.0
142
0.0
142
0.0
142
0.0
142
0.0
142
1.0
179
     0
144
0.0208333333333333
144
0.0
144
0.0
144
0.0
144
0.0
144
0.0208333333333333
144
0.0
144
0.0
144
0.0
144
0.0
144
1.0
144
0.0
144
0.0
144
0.0
144
0.0
144
1.0
147
0.0208333333333333
147
0.0
147
0.0
147
0.0
147
0.0
147
0.0208333333333333
147
0.0
147
0.0
147
0.0
147
0.0
147
1.0
147
0.0
147
0.0
147
0.0
147
0.0
147
1.0
  0
MATERIAL
  5
21
102
{ACAD_XDICTIONARY
360
22
102
}
102
{ACAD_REACTORS
330
10
102
}
330
10
100
AcDbMaterial
  1
Global
 72
     0
 43
0.0208333333333333
 43
0.0
 43
0.0
 43
0.0
 43
0.0
 43
0.0208333333333333
 43
0.0
 43
0.0
 43
0.0
 43
0.0
 43
1.0
 43
0.0
 43
0.0
 43
0.0
 43
0.0
 43
1.0
 77
     0
 47
0.0208333333333333
 47
0.0
 47
0.0
 47
0.0
 47
0.0
 47
0.0208333333333333
 47
0.0
 47
0.0
 47
0.0
 47
0.0
 47
1.0
 47
0.0
 47
0.0
 47
0.0
 47
0.0
 47
1.0
171
     0
 49
0.0208333333333333
 49
0.0
 49
0.0
 49
0.0
 49
0.0
 49
0.0208333333333333
 49
0.0
 49
0.0
 49
0.0
 49
0.0
 49
1.0
 49
0.0
 49
0.0
 49
0.0
 49
0.0
 49
1.0
175
     0
142
0.0208333333333333
142
0.0
142
0.0
142
0.0
142
0.0
142
0.0208333333333333
142
0.0
142
0.0
142
0.0
142
0.0
142
1.0
142
0.0
142
0.0
142
0.0
142
0.0
142
1.0
179
     0
144
0.0208333333333333
144
0.0
144
0.0
144
0.0
144
0.0
144
0.0208333333333333
144
0.0
144
0.0
144
0.0
144
0.0
144
1.0
144
0.0
144
0.0
144
0.0
144
0.0
144
1.0
147
0.0208333333333333
147
0.0
147
0.0
147
0.0
147
0.0
147
0.0208333333333333
147
0.0
147
0.0
147
0.0
147
0.0
147
1.0
147
0.0
147
0.0
147
0.0
147
0.0
147
1.0
  0
MLEADERSTYLE
  5
67
102
{ACAD_REACTORS
330
66
102
}
330
66
100
AcDbMLeaderStyle
179
     2
170
     2
171
     1
172
     0
 90
        2
 40
0.0
 41
0.0
173
     1
 91
-1056964608
340
5B
 92
       -2
290
     1
 42
0.09
291
     1
 43
0.36
  3
Standard
 44
0.18
300

342
55
174
     1
178
     6
175
     1
176
     0
 93
-1056964608
 45
0.18
292
     0
297
     0
 46
0.18
 94
-1056964608
 47
1.0
 49
1.0
140
1.0
293
     1
141
0.0
294
     1
177
     0
142
1.0
295
     1
296
     0
143
0.125
271
     0
272
     9
273
     9
298
     1
  0
MLINESTYLE
  5
60
102
{ACAD_REACTORS
330
5F
102
}
330
5F
100
AcDbMlineStyle
  2
STANDARD
 70
     0
  3

 62
   256
 51
90.0
 52
90.0
 71
     2
 49
0.5
 62
   256
  6
BYLAYER
 49
-0.5
 62
   256
  6
BYLAYER
  0
ACDBPLACEHOLDER
  5
F
102
{ACAD_REACTORS
330
E
102
}
330
E
  0
SCALE
  5
43
102
{ACAD_REACTORS
330
42
102
}
330
42
100
AcDbScale
 70
     0
300
1:1
140
1.0
141
1.0
290
     1
  0
SCALE
  5
44
102
{ACAD_REACTORS
330
42
102
}
330
42
100
AcDbScale
 70
     0
300
1/128" = 1'-0"
140
0.0078125
141
12.0
290
     0
  0
SCALE
  5
45
102
{ACAD_REACTORS
330
42
102
}
330
42
100
AcDbScale
 70
     0
300
1/64" = 1'-0"
140
0.015625
141
12.0
290
     0
  0
SCALE
  5
46
102
{ACAD_REACTORS
330
42
102
}
330
42
100
AcDbScale
 70
     0
300
1/32" = 1'-0"
140
0.03125
141
12.0
290
     0
  0
SCALE
  5
47
102
{ACAD_REACTORS
330
42
102
}
330
42
100
AcDbScale
 70
     0
300
1/16" = 1'-0"
140
0.0625
141
12.0
290
     0
  0
SCALE
  5
48
102
{ACAD_REACTORS
330
42
102
}
330
42
100
AcDbScale
 70
     0
300
3/32" = 1'-0"
140
0.09375
141
12.0
290
     0
  0
SCALE
  5
49
102
{ACAD_REACTORS
330
42
102
}
330
42
100
AcDbScale
 70
     0
300
1/8" = 1'-0"
140
0.125
141
12.0
290
     0
  0
SCALE
  5
4A
102
{ACAD_REACTORS
330
42
102
}
330
42
100
AcDbScale
 70
     0
300
3/16" = 1'-0"
140
0.1875
141
12.0
290
     0
  0
SCALE
  5
4B
102
{ACAD_REACTORS
330
42
102
}
330
42
100
AcDbScale
 70
     0
300
1/4" = 1'-0"
140
0.25
141
12.0
290
     0
  0
SCALE
  5
4C
102
{ACAD_REACTORS
330
42
102
}
330
42
100
AcDbScale
 70
     0
300
3/8" = 1'-0"
140
0.375
141
12.0
290
     0
  0
SCALE
  5
4D
102
{ACAD_REACTORS
330
42
102
}
330
42
100
AcDbScale
 70
     0
300
1/2" = 1'-0"
140
0.5
141
12.0
290
     0
  0
SCALE
  5
4E
102
{ACAD_REACTORS
330
42
102
}
330
42
100
AcDbScale
 70
     0
300
3/4" = 1'-0"
140
0.75
141
12.0
290
     0
  0
SCALE
  5
4F
102
{ACAD_REACTORS
330
42
102
}
330
42
100
AcDbScale
 70
     0
300
1" = 1'-0"
140
1.0
141
12.0
290
     0
  0
SCALE
  5
50
102
{ACAD_REACTORS
330
42
102
}
330
42
100
AcDbScale
 70
     0
300
1-1/2" = 1'-0"
140
1.5
141
12.0
290
     0
  0
SCALE
  5
51
102
{ACAD_REACTORS
330
42
102
}
330
42
100
AcDbScale
 70
     0
300
3" = 1'-0"
140
3.0
141
12.0
290
     0
  0
SCALE
  5
52
102
{ACAD_REACTORS
330
42
102
}
330
42
100
AcDbScale
 70
     0
300
6" = 1'-0"
140
6.0
141
12.0
290
     0
  0
SCALE
  5
53
102
{ACAD_REACTORS
330
42
102
}
330
42
100
AcDbScale
 70
     0
300
1'-0" = 1'-0"
140
12.0
141
12.0
290
     0
  0
ACDBSECTIONVIEWSTYLE
  5
69
102
{ACAD_REACTORS
330
68
102
}
330
68
100
AcDbModelDocViewStyle
 70
     0
  3
Imperial24
290
     1
300
Imperial24
 90
        0
100
AcDbSectionViewStyle
 70
     0
 71
     0
 90
       78
 71
     1
340
55
 62
   256
 40
0.24
340
0
340
0
 62
   256
 40
0.24
300
I, O, Q, S, X, Z
 40
0.48
 90
        3
 40
0.18
 90
        1
 71
     2
340
5D
 90
       25
 62
   256
340
5D
 90
       50
 62
   256
 40
0.24
 40
0.0
 40
0.24
 71
     3
340
55
 62
   256
 40
0.24
 90
        1
 40
0.75
 90
        1
300
%<\AcVar ViewType \f "%tc1">% %<\AcVar ViewSectionStartId>%-%<\AcVar ViewSectionEndId>%\PSCALE %<\AcVar ViewScale \f "%sn">%
 71
     4
 62
   256
 62
   257
300
ANSI31
 40
1.0
 90
        0
290
     0
290
     0
 90
        6
 40
0.0
 40
1.570796326794896
 40
0.2617993877991494
 40
1.308996938995747
 40
-0.2617993877991494
 40
1.832595714594046
  0
TABLESTYLE
  5
65
102
{ACAD_XDICTIONARY
360
15F
102
}
102
{ACAD_REACTORS
330
64
102
}
330
64
100
AcDbTableStyle
280
     0
  3
Standard
 70
     0
 71
     0
 40
0.06
 41
0.06
280
     0
281
     0
  7
Standard
140
0.18
170
     2
 62
     0
 63
     7
283
     0
 90
      512
 91
        0
  1

274
    -2
284
     1
 64
     0
275
    -2
285
     1
 65
     0
276
    -2
286
     1
 66
     0
277
    -2
287
     1
 67
     0
278
    -2
288
     1
 68
     0
279
    -2
289
     1
 69
     0
  7
Standard
140
0.25
170
     5
 62
     0
 63
     7
283
     0
 90
      512
 91
        0
  1

274
    -2
284
     1
 64
     0
275
    -2
285
     1
 65
     0
276
    -2
286
     1
 66
     0
277
    -2
287
     1
 67
     0
278
    -2
288
     1
 68
     0
279
    -2
289
     1
 69
     0
  7
Standard
140
0.18
170
     5
 62
     0
 63
     7
283
     0
 90
      512
 91
        0
  1

274
    -2
284
     1
 64
     0
275
    -2
285
     1
 65
     0
276
    -2
286
     1
 66
     0
277
    -2
287
     1
 67
     0
278
    -2
288
     1
 68
     0
279
    -2
289
     1
 69
     0
  0
VISUALSTYLE
  5
2F
102
{ACAD_REACTORS
330
29
102
}
330
29
100
AcDbVisualStyle
  2
2dWireframe
 70
     4
177
     3
291
     0
 70
    58
 90
        0
176
     1
 90
        2
176
     1
 90
        0
176
     1
 90
        0
176
     1
 40
0.6
176
     1
 40
30.0
176
     1
 62
     7
420
 16777215
176
     1
 90
        1
176
     1
 90
        4
176
     1
 62
     7
176
     1
 62
   257
176
     1
 90
        1
176
     1
 90
        1
176
     1
 40
1.0
176
     1
 90
        0
176
     1
 62
   257
176
     1
 40
1.0
176
     1
 90
        1
176
     1
 90
        6
176
     1
 90
        2
176
     1
 62
     7
176
     1
 90
        5
176
     1
 90
        0
176
     1
 90
        0
176
     1
290
     0
176
     1
 90
        1
176
     1
 40
0.0
176
     1
 90
        0
176
     1
290
     1
176
     1
290
     1
176
     1
290
     0
176
     1
290
     0
176
     1
290
     0
176
     1
290
     0
176
     1
290
     0
176
     1
290
     0
176
     1
290
     0
176
     1
 90
       50
176
     1
 40
0.0
176
     1
 40
1.0
176
     1
 90
        0
176
     1
 62
    18
420
        0
176
     1
 90
       50
176
     1
 90
        3
176
     1
 62
     5
420
      255
176
     1
290
     0
176
     1
 90
       50
176
     1
 90
       50
176
     1
 90
       50
176
     1
290
     0
176
     1
 90
       50
176
     1
 62
   256
176
     0
 40
1.0
176
     0
 90
        2
176
     1
  1
strokes_ogs.tif
176
     1
290
     0
176
     1
 40
1.0
176
     1
 40
1.0
176
     1
  0
VISUALSTYLE
  5
2E
102
{ACAD_REACTORS
330
29
102
}
330
29
100
AcDbVisualStyle
  2
Basic
 70
     7
177
     3
291
     1
 70
    58
 90
        1
176
     1
 90
        0
176
     1
 90
        1
176
     1
 90
        0
176
     1
 40
0.6
176
     1
 40
30.0
176
     1
 62
     7
420
 16777215
176
     1
 90
        0
176
     1
 90
        4
176
     1
 62
     7
176
     1
 62
   257
176
     1
 90
        1
176
     1
 90
        1
176
     1
 40
1.0
176
     1
 90
        8
176
     1
 62
     7
176
     1
 40
1.0
176
     1
 90
        1
176
     1
 90
        6
176
     1
 90
        2
176
     1
 62
     7
176
     1
 90
        5
176
     1
 90
        0
176
     1
 90
        0
176
     1
290
     0
176
     1
 90
        1
176
     1
 40
0.0
176
     1
 90
        0
176
     1
290
     0
176
     1
290
     1
176
     1
290
     1
176
     1
290
     0
176
     1
290
     0
176
     1
290
     0
176
     1
290
     0
176
     1
290
     0
176
     1
290
     0
176
     1
 90
       50
176
     1
 40
0.0
176
     1
 40
1.0
176
     1
 90
        0
176
     1
 62
    18
420
        0
176
     1
 90
       50
176
     1
 90
        3
176
     1
 62
     5
420
      255
176
     1
290
     0
176
     1
 90
       50
176
     1
 90
       50
176
     1
 90
       50
176
     1
290
     0
176
     1
 90
       50
176
     1
 62
   256
176
     0
 40
1.0
176
     0
 90
        2
176
     1
  1
strokes_ogs.tif
176
     1
290
     0
176
     1
 40
1.0
176
     1
 40
1.0
176
     1
  0
VISUALSTYLE
  5
35
102
{ACAD_REACTORS
330
29
102
}
330
29
100
AcDbVisualStyle
  2
Brighten
 70
    12
177
     3
291
     1
 70
    58
 90
        2
176
     1
 90
        2
176
     1
 90
        0
176
     1
 90
        0
176
     1
 40
0.6
176
     1
 40
30.0
176
     1
 62
     7
420
 16777215
176
     1
 90
        1
176
     1
 90
        4
176
     1
 62
     7
176
     1
 62
   257
176
     1
 90
        1
176
     1
 90
        1
176
     1
 40
1.0
176
     1
 90
        8
176
     1
 62
     7
176
     1
 40
1.0
176
     1
 90
        1
176
     1
 90
        6
176
     1
 90
        2
176
     1
 62
     7
176
     1
 90
        5
176
     1
 90
        0
176
     1
 90
        0
176
     1
290
     0
176
     1
 90
        1
176
     1
 40
50.0
176
     1
 90
        0
176
     1
290
     0
176
     1
290
     1
176
     1
290
     1
176
     1
290
     0
176
     1
290
     0
176
     1
290
     0
176
     1
290
     0
176
     1
290
     0
176
     1
290
     0
176
     1
 90
       50
176
     1
 40
0.0
176
     1
 40
1.0
176
     1
 90
        0
176
     1
 62
    18
420
        0
176
     1
 90
       50
176
     1
 90
        3
176
     1
 62
     5
420
      255
176
     1
290
     0
176
     1
 90
       50
176
     1
 90
       50
176
     1
 90
       50
176
     1
290
     0
176
     1
 90
       50
176
     1
 62
   256
176
     0
 40
1.0
176
     0
 90
        2
176
     1
  1
strokes_ogs.tif
176
     1
290
     0
176
     1
 40
1.0
176
     1
 40
1.0
176
     1
  0
VISUALSTYLE
  5
39
102
{ACAD_REACTORS
330
29
102
}
330
29
100
AcDbVisualStyle
  2
ColorChange
 70
    16
177
     3
291
     1
 70
    58
 90
        2
176
     1
 90
        2
176
     1
 90
        3
176
     1
 90
        0
176
     1
 40
0.6
176
     1
 40
30.0
176
     1
 62
     8
420
  8421504
176
     1
 90
        1
176
     1
 90
        4
176
     1
 62
     7
176
     1
 62
   257
176
     1
 90
        1
176
     1
 90
        1
176
     1
 40
1.0
176
     1
 90
        8
176
     1
 62
     8
420
  8421504
176
     1
 40
1.0
176
     1
 90
        1
176
     1
 90
        6
176
     1
 90
        2
176
     1
 62
     7
176
     1
 90
        5
176
     1
 90
        0
176
     1
 90
        0
176
     1
290
     0
176
     1
 90
        1
176
     1
 40
0.0
176
     1
 90
        0
176
     1
290
     0
176
     1
290
     1
176
     1
290
     1
176
     1
290
     0
176
     1
290
     0
176
     1
290
     0
176
     1
290
     0
176
     1
290
     0
176
     1
290
     0
176
     1
 90
       50
176
     1
 40
0.0
176
     1
 40
1.0
176
     1
 90
        0
176
     1
 62
    18
420
        0
176
     1
 90
       50
176
     1
 90
        3
176
     1
 62
     5
420
      255
176
     1
290
     0
176
     1
 90
       50
176
     1
 90
       50
176
     1
 90
       50
176
     1
290
     0
176
     1
 90
       50
176
     1
 62
   256
176
     0
 40
1.0
176
     0
 90
        2
176
     1
  1
strokes_ogs.tif
176
     1
290
     0
176
     1
 40
1.0
176
     1
 40
1.0
176
     1
  0
VISUALSTYLE
  5
32
102
{ACAD_REACTORS
330
29
102
}
330
29
100
AcDbVisualStyle
  2
Conceptual
 70
     9
177
     3
291
     0
 70
    58
 90
        3
176
     1
 90
        2
176
     1
 90
        0
176
     1
 90
        0
176
     1
 40
0.6
176
     1
 40
30.0
176
     1
 62
     7
420
 16777215
176
     1
 90
        2
176
     1
 90
        2
176
     1
 62
     7
176
     1
 62
   257
176
     1
 90
        1
176
     1
 90
        1
176
     1
 40
179.0
176
     1
 90
        8
176
     1
 62
     7
176
     1
 40
1.0
176
     1
 90
        1
176
     1
 90
        6
176
     1
 90
        2
176
     1
 62
     7
176
     1
 90
        3
176
     1
 90
        0
176
     1
 90
        0
176
     1
290
     0
176
     1
 90
        1
176
     1
 40
0.0
176
     1
 90
        0
176
     1
290
     0
176
     1
290
     1
176
     1
290
     1
176
     1
290
     0
176
     1
290
     0
176
     1
290
     0
176
     1
290
     0
176
     1
290
     0
176
     1
290
     0
176
     1
 90
       50
176
     1
 40
0.0
176
     1
 40
1.0
176
     1
 90
        0
176
     1
 62
    18
420
        0
176
     1
 90
       50
176
     1
 90
        3
176
     1
 62
     5
420
      255
176
     1
290
     0
176
     1
 90
       50
176
     1
 90
       50
176
     1
 90
       50
176
     1
290
     0
176
     1
 90
       50
176
     1
 62
   256
176
     0
 40
1.0
176
     0
 90
        2
176
     1
  1
strokes_ogs.tif
176
     1
290
     0
176
     1
 40
1.0
176
     1
 40
1.0
176
     1
  0
VISUALSTYLE
  5
34
102
{ACAD_REACTORS
330
29
102
}
330
29
100
AcDbVisualStyle
  2
Dim
 70
    11
177
     3
291
     1
 70
    58
 90
        2
176
     1
 90
        2
176
     1
 90
        0
176
     1
 90
        0
176
     1
 40
0.6
176
     1
 40
30.0
176
     1
 62
     7
420
 16777215
176
     1
 90
        1
176
     1
 90
        4
176
     1
 62
     7
176
     1
 62
   257
176
     1
 90
        1
176
     1
 90
        1
176
     1
 40
1.0
176
     1
 90
        8
176
     1
 62
     7
176
     1
 40
1.0
176
     1
 90
        1
176
     1
 90
        6
176
     1
 90
        2
176
     1
 62
     7
176
     1
 90
        5
176
     1
 90
        0
176
     1
 90
        0
176
     1
290
     0
176
     1
 90
        1
176
     1
 40
-50.0
176
     1
 90
        0
176
     1
290
     0
176
     1
290
     1
176
     1
290
     1
176
     1
290
     0
176
     1
290
     0
176
     1
290
     0
176
     1
290
     0
176
     1
290
     0
176
     1
290
     0
176
     1
 90
       50
176
     1
 40
0.0
176
     1
 40
1.0
176
     1
 90
        0
176
     1
 62
    18
420
        0
176
     1
 90
       50
176
     1
 90
        3
176
     1
 62
     5
420
      255
176
     1
290
     0
176
     1
 90
       50
176
     1
 90
       50
176
     1
 90
       50
176
     1
290
     0
176
     1
 90
       50
176
     1
 62
   256
176
     0
 40
1.0
176
     0
 90
        2
176
     1
  1
strokes_ogs.tif
176
     1
290
     0
176
     1
 40
1.0
176
     1
 40
1.0
176
     1
  0
VISUALSTYLE
  5
41
102
{ACAD_REACTORS
330
29
102
}
330
29
100
AcDbVisualStyle
  2
EdgeColorOff
 70
    22
177
     3
291
     1
 70
    58
 90
        2
176
     0
 90
        2
176
     0
 90
        0
176
     0
 90
        0
176
     0
 40
0.6
176
     0
 40
30.0
176
     0
 62
     7
420
 16777215
176
     0
 90
        1
176
     0
 90
        4
176
     0
 62
     7
176
     0
 62
   257
176
     0
 90
        1
176
     0
 90
        1
176
     0
 40
1.0
176
     0
 90
        8
176
     2
 62
     7
176
     0
 40
1.0
176
     0
 90
        1
176
     0
 90
        6
176
     0
 90
        2
176
     0
 62
     7
176
     0
 90
        5
176
     0
 90
        0
176
     0
 90
        0
176
     0
290
     0
176
     0
 90
        1
176
     0
 40
0.0
176
     0
 90
        0
176
     0
290
     0
176
     0
290
     1
176
     0
290
     1
176
     0
290
     0
176
     0
290
     0
176
     0
290
     0
176
     0
290
     0
176
     0
290
     0
176
     0
290
     0
176
     0
 90
       50
176
     0
 40
0.0
176
     0
 40
1.0
176
     0
 90
        0
176
     0
 62
    18
420
        0
176
     0
 90
       50
176
     0
 90
        3
176
     0
 62
     5
420
      255
176
     0
290
     0
176
     0
 90
       50
176
     0
 90
       50
176
     0
 90
       50
176
     0
290
     0
176
     0
 90
       50
176
     0
 62
   256
176
     0
 40
1.0
176
     0
 90
        2
176
     0
  1
strokes_ogs.tif
176
     0
290
     0
176
     0
 40
1.0
176
     0
 40
1.0
176
     0
  0
VISUALSTYLE
  5
38
102
{ACAD_REACTORS
330
29
102
}
330
29
100
AcDbVisualStyle
  2
Facepattern
 70
    15
177
     3
291
     1
 70
    58
 90
        2
176
     1
 90
        2
176
     1
 90
        0
176
     1
 90
        0
176
     1
 40
0.6
176
     1
 40
30.0
176
     1
 62
     7
420
 16777215
176
     1
 90
        1
176
     1
 90
        4
176
     1
 62
     7
176
     1
 62
   257
176
     1
 90
        1
176
     1
 90
        1
176
     1
 40
1.0
176
     1
 90
        8
176
     1
 62
     7
176
     1
 40
1.0
176
     1
 90
        1
176
     1
 90
        6
176
     1
 90
        2
176
     1
 62
     7
176
     1
 90
        5
176
     1
 90
        0
176
     1
 90
        0
176
     1
290
     0
176
     1
 90
        1
176
     1
 40
0.0
176
     1
 90
        0
176
     1
290
     0
176
     1
290
     1
176
     1
290
     1
176
     1
290
     0
176
     1
290
     0
176
     1
290
     0
176
     1
290
     0
176
     1
290
     0
176
     1
290
     0
176
     1
 90
       50
176
     1
 40
0.0
176
     1
 40
1.0
176
     1
 90
        0
176
     1
 62
    18
420
        0
176
     1
 90
       50
176
     1
 90
        3
176
     1
 62
     5
420
      255
176
     1
290
     0
176
     1
 90
       50
176
     1
 90
       50
176
     1
 90
       50
176
     1
290
     0
176
     1
 90
       50
176
     1
 62
   256
176
     0
 40
1.0
176
     0
 90
        2
176
     1
  1
strokes_ogs.tif
176
     1
290
     0
176
     1
 40
1.0
176
     1
 40
1.0
176
     1
  0
VISUALSTYLE
  5
2A
102
{ACAD_REACTORS
330
29
102
}
330
29
100
AcDbVisualStyle
  2
Flat
 70
     0
177
     3
291
     1
 70
    58
 90
        2
176
     1
 90
        1
176
     1
 90
        1
176
     1
 90
        2
176
     1
 40
0.6
176
     1
 40
30.0
176
     1
 62
     7
420
 16777215
176
     1
 90
        0
176
     1
 90
        0
176
     1
 62
     7
176
     1
 62
   257
176
     1
 90
        1
176
     1
 90
        1
176
     1
 40
1.0
176
     1
 90
        8
176
     1
 62
     7
176
     1
 40
1.0
176
     1
 90
        1
176
     1
 90
        6
176
     1
 90
        2
176
     1
 62
     7
176
     1
 90
        5
176
     1
 90
        0
176
     1
 90
        0
176
     1
290
     0
176
     1
 90
       13
176
     1
 40
0.0
176
     1
 90
        0
176
     1
290
     0
176
     1
290
     1
176
     1
290
     1
176
     1
290
     0
176
     1
290
     0
176
     1
290
     0
176
     1
290
     0
176
     1
290
     0
176
     1
290
     0
176
     1
 90
       50
176
     1
 40
0.0
176
     1
 40
1.0
176
     1
 90
        0
176
     1
 62
    18
420
        0
176
     1
 90
       50
176
     1
 90
        3
176
     1
 62
     5
420
      255
176
     1
290
     0
176
     1
 90
       50
176
     1
 90
       50
176
     1
 90
       50
176
     1
290
     0
176
     1
 90
       50
176
     1
 62
   256
176
     0
 40
1.0
176
     0
 90
        2
176
     1
  1
strokes_ogs.tif
176
     1
290
     0
176
     1
 40
1.0
176
     1
 40
1.0
176
     1
  0
VISUALSTYLE
  5
2B
102
{ACAD_REACTORS
330
29
102
}
330
29
100
AcDbVisualStyle
  2
FlatWithEdges
 70
     1
177
     3
291
     1
 70
    58
 90
        2
176
     1
 90
        1
176
     1
 90
        1
176
     1
 90
        2
176
     1
 40
0.6
176
     1
 40
30.0
176
     1
 62
     7
420
 16777215
176
     1
 90
        1
176
     1
 90
        0
176
     1
 62
     7
176
     1
 62
   257
176
     1
 90
        1
176
     1
 90
        1
176
     1
 40
1.0
176
     1
 90
        0
176
     1
 62
   257
176
     1
 40
1.0
176
     1
 90
        1
176
     1
 90
        6
176
     1
 90
        2
176
     1
 62
     7
176
     1
 90
        5
176
     1
 90
        0
176
     1
 90
        0
176
     1
290
     0
176
     1
 90
       13
176
     1
 40
0.0
176
     1
 90
        0
176
     1
290
     0
176
     1
290
     1
176
     1
290
     1
176
     1
290
     0
176
     1
290
     0
176
     1
290
     0
176
     1
290
     0
176
     1
290
     0
176
     1
290
     0
176
     1
 90
       50
176
     1
 40
0.0
176
     1
 40
1.0
176
     1
 90
        0
176
     1
 62
    18
420
        0
176
     1
 90
       50
176
     1
 90
        3
176
     1
 62
     5
420
      255
176
     1
290
     0
176
     1
 90
       50
176
     1
 90
       50
176
     1
 90
       50
176
     1
290
     0
176
     1
 90
       50
176
     1
 62
   256
176
     0
 40
1.0
176
     0
 90
        2
176
     1
  1
strokes_ogs.tif
176
     1
290
     0
176
     1
 40
1.0
176
     1
 40
1.0
176
     1
  0
VISUALSTYLE
  5
2C
102
{ACAD_REACTORS
330
29
102
}
330
29
100
AcDbVisualStyle
  2
Gouraud
 70
     2
177
     3
291
     1
 70
    58
 90
        2
176
     1
 90
        2
176
     1
 90
        1
176
     1
 90
        2
176
     1
 40
0.6
176
     1
 40
30.0
176
     1
 62
     7
420
 16777215
176
     1
 90
        0
176
     1
 90
        0
176
     1
 62
     7
176
     1
 62
   257
176
     1
 90
        1
176
     1
 90
        1
176
     1
 40
1.0
176
     1
 90
        0
176
     1
 62
     7
176
     1
 40
1.0
176
     1
 90
        1
176
     1
 90
        6
176
     1
 90
        2
176
     1
 62
     7
176
     1
 90
        5
176
     1
 90
        0
176
     1
 90
        0
176
     1
290
     0
176
     1
 90
       13
176
     1
 40
0.0
176
     1
 90
        0
176
     1
290
     0
176
     1
290
     1
176
     1
290
     1
176
     1
290
     0
176
     1
290
     0
176
     1
290
     0
176
     1
290
     0
176
     1
290
     0
176
     1
290
     0
176
     1
 90
       50
176
     1
 40
0.0
176
     1
 40
1.0
176
     1
 90
        0
176
     1
 62
    18
420
        0
176
     1
 90
       50
176
     1
 90
        3
176
     1
 62
     5
420
      255
176
     1
290
     0
176
     1
 90
       50
176
     1
 90
       50
176
     1
 90
       50
176
     1
290
     0
176
     1
 90
       50
176
     1
 62
   256
176
     0
 40
1.0
176
     0
 90
        2
176
     1
  1
strokes_ogs.tif
176
     1
290
     0
176
     1
 40
1.0
176
     1
 40
1.0
176
     1
  0
VISUALSTYLE
  5
2D
102
{ACAD_REACTORS
330
29
102
}
330
29
100
AcDbVisualStyle
  2
GouraudWithEdges
 70
     3
177
     3
291
     1
 70
    58
 90
        2
176
     1
 90
        2
176
     1
 90
        1
176
     1
 90
        2
176
     1
 40
0.6
176
     1
 40
30.0
176
     1
 62
     7
420
 16777215
176
     1
 90
        1
176
     1
 90
        0
176
     1
 62
     7
176
     1
 62
   257
176
     1
 90
        1
176
     1
 90
        1
176
     1
 40
1.0
176
     1
 90
        0
176
     1
 62
   257
176
     1
 40
1.0
176
     1
 90
        1
176
     1
 90
        6
176
     1
 90
        2
176
     1
 62
     7
176
     1
 90
        5
176
     1
 90
        0
176
     1
 90
        0
176
     1
290
     0
176
     1
 90
       13
176
     1
 40
0.0
176
     1
 90
        0
176
     1
290
     0
176
     1
290
     1
176
     1
290
     1
176
     1
290
     0
176
     1
290
     0
176
     1
290
     0
176
     1
290
     0
176
     1
290
     0
176
     1
290
     0
176
     1
 90
       50
176
     1
 40
0.0
176
     1
 40
1.0
176
     1
 90
        0
176
     1
 62
    18
420
        0
176
     1
 90
       50
176
     1
 90
        3
176
     1
 62
     5
420
      255
176
     1
290
     0
176
     1
 90
       50
176
     1
 90
       50
176
     1
 90
       50
176
     1
290
     0
176
     1
 90
       50
176
     1
 62
   256
176
     0
 40
1.0
176
     0
 90
        2
176
     1
  1
strokes_ogs.tif
176
     1
290
     0
176
     1
 40
1.0
176
     1
 40
1.0
176
     1
  0
VISUALSTYLE
  5
31
102
{ACAD_REACTORS
330
29
102
}
330
29
100
AcDbVisualStyle
  2
Hidden
 70
     6
177
     3
291
     0
 70
    58
 90
        1
176
     1
 90
        2
176
     1
 90
        2
176
     1
 90
        0
176
     1
 40
0.6
176
     1
 40
30.0
176
     1
 62
     7
420
 16777215
176
     1
 90
        2
176
     1
 90
        2
176
     1
 62
     7
176
     1
 62
   257
176
     1
 90
        2
176
     1
 90
        1
176
     1
 40
40.0
176
     1
 90
        0
176
     1
 62
   257
176
     1
 40
1.0
176
     1
 90
        1
176
     1
 90
        6
176
     1
 90
        2
176
     1
 62
     7
176
     1
 90
        3
176
     1
 90
        0
176
     1
 90
        0
176
     1
290
     0
176
     1
 90
        1
176
     1
 40
0.0
176
     1
 90
        0
176
     1
290
     0
176
     1
290
     1
176
     1
290
     1
176
     1
290
     0
176
     1
290
     0
176
     1
290
     0
176
     1
290
     0
176
     1
290
     0
176
     1
290
     0
176
     1
 90
       50
176
     1
 40
0.0
176
     1
 40
1.0
176
     1
 90
        0
176
     1
 62
    18
420
        0
176
     1
 90
       50
176
     1
 90
        3
176
     1
 62
     5
420
      255
176
     1
290
     0
176
     1
 90
       50
176
     1
 90
       50
176
     1
 90
       50
176
     1
290
     0
176
     1
 90
       50
176
     1
 62
   256
176
     0
 40
1.0
176
     0
 90
        2
176
     1
  1
strokes_ogs.tif
176
     1
290
     0
176
     1
 40
1.0
176
     1
 40
1.0
176
     1
  0
VISUALSTYLE
  5
3F
102
{ACAD_REACTORS
330
29
102
}
330
29
100
AcDbVisualStyle
  2
JitterOff
 70
    20
177
     3
291
     1
 70
    58
 90
        2
176
     0
 90
        2
176
     0
 90
        0
176
     0
 90
        0
176
     0
 40
0.6
176
     0
 40
30.0
176
     0
 62
     7
420
 16777215
176
     0
 90
        1
176
     0
 90
        4
176
     0
 62
     7
176
     0
 62
   257
176
     0
 90
        1
176
     0
 90
        1
176
     0
 40
1.0
176
     0
 90
       10
176
     2
 62
     7
176
     0
 40
1.0
176
     0
 90
        1
176
     0
 90
        6
176
     0
 90
        2
176
     0
 62
     7
176
     0
 90
        5
176
     0
 90
        0
176
     0
 90
        0
176
     0
290
     0
176
     0
 90
        1
176
     0
 40
0.0
176
     0
 90
        0
176
     0
290
     0
176
     0
290
     1
176
     0
290
     1
176
     0
290
     0
176
     0
290
     0
176
     0
290
     0
176
     0
290
     0
176
     0
290
     0
176
     0
290
     0
176
     0
 90
       50
176
     0
 40
0.0
176
     0
 40
1.0
176
     0
 90
        0
176
     0
 62
    18
420
        0
176
     0
 90
       50
176
     0
 90
        3
176
     0
 62
     5
420
      255
176
     0
290
     0
176
     0
 90
       50
176
     0
 90
       50
176
     0
 90
       50
176
     0
290
     0
176
     0
 90
       50
176
     0
 62
   256
176
     0
 40
1.0
176
     0
 90
        2
176
     0
  1
strokes_ogs.tif
176
     0
290
     0
176
     0
 40
1.0
176
     0
 40
1.0
176
     0
  0
VISUALSTYLE
  5
37
102
{ACAD_REACTORS
330
29
102
}
330
29
100
AcDbVisualStyle
  2
Linepattern
 70
    14
177
     3
291
     1
 70
    58
 90
        2
176
     1
 90
        2
176
     1
 90
        0
176
     1
 90
        0
176
     1
 40
0.6
176
     1
 40
30.0
176
     1
 62
     7
420
 16777215
176
     1
 90
        1
176
     1
 90
        4
176
     1
 62
     7
176
     1
 62
   257
176
     1
 90
        7
176
     1
 90
        7
176
     1
 40
1.0
176
     1
 90
        8
176
     1
 62
     7
176
     1
 40
1.0
176
     1
 90
        1
176
     1
 90
        6
176
     1
 90
        2
176
     1
 62
     7
176
     1
 90
        5
176
     1
 90
        0
176
     1
 90
        0
176
     1
290
     0
176
     1
 90
        1
176
     1
 40
0.0
176
     1
 90
        0
176
     1
290
     0
176
     1
290
     1
176
     1
290
     1
176
     1
290
     0
176
     1
290
     0
176
     1
290
     0
176
     1
290
     0
176
     1
290
     0
176
     1
290
     0
176
     1
 90
       50
176
     1
 40
0.0
176
     1
 40
1.0
176
     1
 90
        0
176
     1
 62
    18
420
        0
176
     1
 90
       50
176
     1
 90
        3
176
     1
 62
     5
420
      255
176
     1
290
     0
176
     1
 90
       50
176
     1
 90
       50
176
     1
 90
       50
176
     1
290
     0
176
     1
 90
       50
176
     1
 62
   256
176
     0
 40
1.0
176
     0
 90
        2
176
     1
  1
strokes_ogs.tif
176
     1
290
     0
176
     1
 40
1.0
176
     1
 40
1.0
176
     1
  0
VISUALSTYLE
  5
40
102
{ACAD_REACTORS
330
29
102
}
330
29
100
AcDbVisualStyle
  2
OverhangOff
 70
    21
177
     3
291
     1
 70
    58
 90
        2
176
     0
 90
        2
176
     0
 90
        0
176
     0
 90
        0
176
     0
 40
0.6
176
     0
 40
30.0
176
     0
 62
     7
420
 16777215
176
     0
 90
        1
176
     0
 90
        4
176
     0
 62
     7
176
     0
 62
   257
176
     0
 90
        1
176
     0
 90
        1
176
     0
 40
1.0
176
     0
 90
        9
176
     2
 62
     7
176
     0
 40
1.0
176
     0
 90
        1
176
     0
 90
        6
176
     0
 90
        2
176
     0
 62
     7
176
     0
 90
        5
176
     0
 90
        0
176
     0
 90
        0
176
     0
290
     0
176
     0
 90
        1
176
     0
 40
0.0
176
     0
 90
        0
176
     0
290
     0
176
     0
290
     1
176
     0
290
     1
176
     0
290
     0
176
     0
290
     0
176
     0
290
     0
176
     0
290
     0
176
     0
290
     0
176
     0
290
     0
176
     0
 90
       50
176
     0
 40
0.0
176
     0
 40
1.0
176
     0
 90
        0
176
     0
 62
    18
420
        0
176
     0
 90
       50
176
     0
 90
        3
176
     0
 62
     5
420
      255
176
     0
290
     0
176
     0
 90
       50
176
     0
 90
       50
176
     0
 90
       50
176
     0
290
     0
176
     0
 90
       50
176
     0
 62
   256
176
     0
 40
1.0
176
     0
 90
        2
176
     0
  1
strokes_ogs.tif
176
     0
290
     0
176
     0
 40
1.0
176
     0
 40
1.0
176
     0
  0
VISUALSTYLE
  5
33
102
{ACAD_REACTORS
330
29
102
}
330
29
100
AcDbVisualStyle
  2
Realistic
 70
     8
177
     3
291
     0
 70
    58
 90
        2
176
     1
 90
        3
176
     1
 90
        0
176
     1
 90
        2
176
     1
 40
0.6
176
     1
 40
30.0
176
     1
 62
     7
420
 16777215
176
     1
 90
        0
176
     1
 90
        0
176
     1
 62
     7
176
     1
 62
   257
176
     1
 90
        1
176
     1
 90
        1
176
     1
 40
1.0
176
     1
 90
        8
176
     1
 62
   257
176
     1
 40
1.0
176
     1
 90
        1
176
     1
 90
        6
176
     1
 90
        2
176
     1
 62
     7
176
     1
 90
        3
176
     1
 90
        0
176
     1
 90
        0
176
     1
290
     0
176
     1
 90
       13
176
     1
 40
0.0
176
     1
 90
        0
176
     1
290
     0
176
     1
290
     1
176
     1
290
     1
176
     1
290
     0
176
     1
290
     0
176
     1
290
     0
176
     1
290
     0
176
     1
290
     0
176
     1
290
     0
176
     1
 90
       50
176
     1
 40
0.0
176
     1
 40
1.0
176
     1
 90
        0
176
     1
 62
    18
420
        0
176
     1
 90
       50
176
     1
 90
        3
176
     1
 62
     5
420
      255
176
     1
290
     0
176
     1
 90
       50
176
     1
 90
       50
176
     1
 90
       50
176
     1
290
     0
176
     1
 90
       50
176
     1
 62
   256
176
     0
 40
1.0
176
     0
 90
        2
176
     1
  1
strokes_ogs.tif
176
     1
290
     0
176
     1
 40
1.0
176
     1
 40
1.0
176
     1
  0
VISUALSTYLE
  5
3E
102
{ACAD_REACTORS
330
29
102
}
330
29
100
AcDbVisualStyle
  2
Shaded
 70
    27
177
     3
291
     0
 70
    58
 90
        2
176
     1
 90
        2
176
     1
 90
        1
176
     1
 90
        2
176
     1
 40
0.6
176
     1
 40
30.0
176
     1
 62
     7
420
 16777215
176
     1
 90
        0
176
     1
 90
        4
176
     1
 62
     7
176
     1
 62
   257
176
     1
 90
        1
176
     1
 90
        1
176
     1
 40
1.0
176
     1
 90
        8
176
     1
 62
   257
176
     1
 40
1.0
176
     1
 90
        1
176
     1
 90
        6
176
     1
 90
        2
176
     1
 62
     8
420
  7895160
176
     1
 90
        3
176
     1
 90
        0
176
     1
 90
        0
176
     1
290
     0
176
     1
 90
        5
176
     1
 40
0.0
176
     1
 90
        0
176
     1
290
     0
176
     1
290
     1
176
     1
290
     1
176
     1
290
     0
176
     1
290
     0
176
     1
290
     0
176
     1
290
     0
176
     1
290
     0
176
     1
290
     0
176
     1
 90
       50
176
     1
 40
0.0
176
     1
 40
1.0
176
     1
 90
        0
176
     1
 62
    18
420
        0
176
     1
 90
       50
176
     1
 90
        3
176
     1
 62
     5
420
      255
176
     1
290
     0
176
     1
 90
       50
176
     1
 90
       50
176
     1
 90
       50
176
     1
290
     0
176
     1
 90
       50
176
     1
 62
   256
176
     0
 40
1.0
176
     0
 90
        2
176
     1
  1
strokes_ogs.tif
176
     1
290
     0
176
     1
 40
1.0
176
     1
 40
1.0
176
     1
  0
VISUALSTYLE
  5
3D
102
{ACAD_REACTORS
330
29
102
}
330
29
100
AcDbVisualStyle
  2
Shaded with edges
 70
    26
177
     3
291
     0
 70
    58
 90
        2
176
     1
 90
        2
176
     1
 90
        1
176
     1
 90
        2
176
     1
 40
0.6
176
     1
 40
30.0
176
     1
 62
     7
420
 16777215
176
     1
 90
        1
176
     1
 90
        2
176
     1
 62
     7
176
     1
 62
   257
176
     1
 90
        2
176
     1
 90
        1
176
     1
 40
1.0
176
     1
 90
        8
176
     1
 62
   257
176
     1
 40
1.0
176
     1
 90
        1
176
     1
 90
        6
176
     1
 90
        2
176
     1
 62
     7
176
     1
 90
        3
176
     1
 90
        0
176
     1
 90
        0
176
     1
290
     0
176
     1
 90
        5
176
     1
 40
0.0
176
     1
 90
        0
176
     1
290
     0
176
     1
290
     1
176
     1
290
     1
176
     1
290
     0
176
     1
290
     0
176
     1
290
     0
176
     1
290
     0
176
     1
290
     0
176
     1
290
     0
176
     1
 90
       50
176
     1
 40
0.0
176
     1
 40
1.0
176
     1
 90
        0
176
     1
 62
    18
420
        0
176
     1
 90
       50
176
     1
 90
        3
176
     1
 62
     5
420
      255
176
     1
290
     0
176
     1
 90
       50
176
     1
 90
       50
176
     1
 90
       50
176
     1
290
     0
176
     1
 90
       50
176
     1
 62
   256
176
     0
 40
1.0
176
     0
 90
        2
176
     1
  1
strokes_ogs.tif
176
     1
290
     0
176
     1
 40
1.0
176
     1
 40
1.0
176
     1
  0
VISUALSTYLE
  5
3A
102
{ACAD_REACTORS
330
29
102
}
330
29
100
AcDbVisualStyle
  2
Shades of Gray
 70
    23
177
     3
291
     0
 70
    58
 90
        2
176
     1
 90
        2
176
     1
 90
        3
176
     1
 90
        0
176
     1
 40
0.6
176
     1
 40
30.0
176
     1
 62
     7
420
 16777215
176
     1
 90
        2
176
     1
 90
        2
176
     1
 62
     7
176
     1
 62
     7
176
     1
 90
        1
176
     1
 90
        1
176
     1
 40
40.0
176
     1
 90
        8
176
     1
 62
     7
176
     1
 40
1.0
176
     1
 90
        1
176
     1
 90
        6
176
     1
 90
        2
176
     1
 62
     7
176
     1
 90
        3
176
     1
 90
        0
176
     1
 90
        0
176
     1
290
     0
176
     1
 90
        1
176
     1
 40
0.0
176
     1
 90
        0
176
     1
290
     0
176
     1
290
     1
176
     1
290
     1
176
     1
290
     0
176
     1
290
     0
176
     1
290
     0
176
     1
290
     0
176
     1
290
     0
176
     1
290
     0
176
     1
 90
       50
176
     1
 40
0.0
176
     1
 40
1.0
176
     1
 90
        0
176
     1
 62
    18
420
        0
176
     1
 90
       50
176
     1
 90
        3
176
     1
 62
     5
420
      255
176
     1
290
     0
176
     1
 90
       50
176
     1
 90
       50
176
     1
 90
       50
176
     1
290
     0
176
     1
 90
       50
176
     1
 62
   256
176
     0
 40
1.0
176
     0
 90
        2
176
     1
  1
strokes_ogs.tif
176
     1
290
     0
176
     1
 40
1.0
176
     1
 40
1.0
176
     1
  0
VISUALSTYLE
  5
3B
102
{ACAD_REACTORS
330
29
102
}
330
29
100
AcDbVisualStyle
  2
Sketchy
 70
    24
177
     3
291
     0
 70
    58
 90
        1
176
     1
 90
        2
176
     1
 90
        2
176
     1
 90
        0
176
     1
 40
0.6
176
     1
 40
30.0
176
     1
 62
     7
420
 16777215
176
     1
 90
        2
176
     1
 90
        2
176
     1
 62
     7
176
     1
 62
     7
176
     1
 90
        1
176
     1
 90
        1
176
     1
 40
40.0
176
     1
 90
       11
176
     1
 62
     7
176
     1
 40
1.0
176
     1
 90
        1
176
     1
 90
        6
176
     1
 90
        2
176
     1
 62
     7
176
     1
 90
        6
176
     1
 90
        0
176
     1
 90
        0
176
     1
290
     0
176
     1
 90
        1
176
     1
 40
0.0
176
     1
 90
        0
176
     1
290
     0
176
     1
290
     1
176
     1
290
     1
176
     1
290
     0
176
     1
290
     0
176
     1
290
     0
176
     1
290
     0
176
     1
290
     0
176
     1
290
     0
176
     1
 90
       50
176
     1
 40
0.0
176
     1
 40
1.0
176
     1
 90
        0
176
     1
 62
    18
420
        0
176
     1
 90
       50
176
     1
 90
        3
176
     1
 62
     5
420
      255
176
     1
290
     0
176
     1
 90
       50
176
     1
 90
       50
176
     1
 90
       50
176
     1
290
     0
176
     1
 90
       50
176
     1
 62
   256
176
     0
 40
1.0
176
     0
 90
        2
176
     1
  1
strokes_ogs.tif
176
     1
290
     0
176
     1
 40
1.0
176
     1
 40
1.0
176
     1
  0
VISUALSTYLE
  5
36
102
{ACAD_REACTORS
330
29
102
}
330
29
100
AcDbVisualStyle
  2
Thicken
 70
    13
177
     3
291
     1
 70
    58
 90
        2
176
     1
 90
        2
176
     1
 90
        0
176
     1
 90
        0
176
     1
 40
0.6
176
     1
 40
30.0
176
     1
 62
     7
420
 16777215
176
     1
 90
        1
176
     1
 90
        4
176
     1
 62
     7
176
     1
 62
   257
176
     1
 90
        1
176
     1
 90
        1
176
     1
 40
1.0
176
     1
 90
       12
176
     1
 62
     7
176
     1
 40
1.0
176
     1
 90
        1
176
     1
 90
        6
176
     1
 90
        2
176
     1
 62
     7
176
     1
 90
        5
176
     1
 90
        0
176
     1
 90
        0
176
     1
290
     0
176
     1
 90
        1
176
     1
 40
0.0
176
     1
 90
        0
176
     1
290
     0
176
     1
290
     1
176
     1
290
     1
176
     1
290
     0
176
     1
290
     0
176
     1
290
     0
176
     1
290
     0
176
     1
290
     0
176
     1
290
     0
176
     1
 90
       50
176
     1
 40
0.0
176
     1
 40
1.0
176
     1
 90
        0
176
     1
 62
    18
420
        0
176
     1
 90
       50
176
     1
 90
        3
176
     1
 62
     5
420
      255
176
     1
290
     0
176
     1
 90
       50
176
     1
 90
       50
176
     1
 90
       50
176
     1
290
     0
176
     1
 90
       50
176
     1
 62
   256
176
     0
 40
1.0
176
     0
 90
        2
176
     1
  1
strokes_ogs.tif
176
     1
290
     0
176
     1
 40
1.0
176
     1
 40
1.0
176
     1
  0
VISUALSTYLE
  5
30
102
{ACAD_REACTORS
330
29
102
}
330
29
100
AcDbVisualStyle
  2
Wireframe
 70
     5
177
     3
291
     0
 70
    58
 90
        0
176
     1
 90
        2
176
     1
 90
        0
176
     1
 90
        0
176
     1
 40
0.6
176
     1
 40
30.0
176
     1
 62
     7
420
 16777215
176
     1
 90
        1
176
     1
 90
        4
176
     1
 62
     7
176
     1
 62
   257
176
     1
 90
        1
176
     1
 90
        1
176
     1
 40
1.0
176
     1
 90
        0
176
     1
 62
   257
176
     1
 40
1.0
176
     1
 90
        1
176
     1
 90
        6
176
     1
 90
        2
176
     1
 62
     7
176
     1
 90
        3
176
     1
 90
        0
176
     1
 90
        0
176
     1
290
     0
176
     1
 90
        1
176
     1
 40
0.0
176
     1
 90
        0
176
     1
290
     0
176
     1
290
     1
176
     1
290
     1
176
     1
290
     0
176
     1
290
     0
176
     1
290
     0
176
     1
290
     0
176
     1
290
     0
176
     1
290
     0
176
     1
 90
       50
176
     1
 40
0.0
176
     1
 40
1.0
176
     1
 90
        0
176
     1
 62
    18
420
        0
176
     1
 90
       50
176
     1
 90
        3
176
     1
 62
     5
420
      255
176
     1
290
     0
176
     1
 90
       50
176
     1
 90
       50
176
     1
 90
       50
176
     1
290
     0
176
     1
 90
       50
176
     1
 62
   256
176
     0
 40
1.0
176
     0
 90
        2
176
     1
  1
strokes_ogs.tif
176
     1
290
     0
176
     1
 40
1.0
176
     1
 40
1.0
176
     1
  0
VISUALSTYLE
  5
3C
102
{ACAD_REACTORS
330
29
102
}
330
29
100
AcDbVisualStyle
  2
X-Ray
 70
    25
177
     3
291
     0
 70
    58
 90
        2
176
     1
 90
        2
176
     1
 90
        1
176
     1
 90
        1
176
     1
 40
0.5
176
     1
 40
30.0
176
     1
 62
     7
420
 16777215
176
     1
 90
        1
176
     1
 90
        0
176
     1
 62
     7
176
     1
 62
   257
176
     1
 90
        1
176
     1
 90
        1
176
     1
 40
1.0
176
     1
 90
        8
176
     1
 62
     7
176
     1
 40
1.0
176
     1
 90
        1
176
     1
 90
        6
176
     1
 90
        2
176
     1
 62
     7
176
     1
 90
        3
176
     1
 90
        0
176
     1
 90
        0
176
     1
290
     0
176
     1
 90
       13
176
     1
 40
0.0
176
     1
 90
        0
176
     1
290
     0
176
     1
290
     1
176
     1
290
     1
176
     1
290
     0
176
     1
290
     0
176
     1
290
     0
176
     1
290
     0
176
     1
290
     0
176
     1
290
     0
176
     1
 90
       50
176
     1
 40
0.0
176
     1
 40
1.0
176
     1
 90
        0
176
     1
 62
    18
420
        0
176
     1
 90
       50
176
     1
 90
        3
176
     1
 62
     5
420
      255
176
     1
290
     0
176
     1
 90
       50
176
     1
 90
       50
176
     1
 90
       50
176
     1
290
     0
176
     1
 90
       50
176
     1
 62
   256
176
     0
 40
1.0
176
     0
 90
        2
176
     1
  1
strokes_ogs.tif
176
     1
290
     0
176
     1
 40
1.0
176
     1
 40
1.0
176
     1
  0
DICTIONARYVAR
  5
15E
102
{ACAD_REACTORS
330
159
102
}
330
159
100
DictionaryVariables
280
     0
  1
1:1
  0
DICTIONARYVAR
  5
15B
102
{ACAD_REACTORS
330
159
102
}
330
159
100
DictionaryVariables
280
     0
  1
STANDARD
  0
DICTIONARYVAR
  5
15A
102
{ACAD_REACTORS
330
159
102
}
330
159
100
DictionaryVariables
280
     0
  1
STANDARD
  0
DICTIONARYVAR
  5
15C
102
{ACAD_REACTORS
330
159
102
}
330
159
100
DictionaryVariables
280
     0
  1
Imperial24
  0
DICTIONARYVAR
  5
15D
102
{ACAD_REACTORS
330
159
102
}
330
159
100
DictionaryVariables
280
     0
  1
Imperial24
  0
DICTIONARY
  5
1A
330
19
100
AcDbDictionary
280
     1
281
     1
  3
BUMPTILE
360
1C
  3
DIFFUSETILE
360
1B
  3
OPACITYTILE
360
1F
  3
REFLECTIONTILE
360
1E
  3
REFRACTIONTILE
360
20
  3
SPECULARTILE
360
1D
  0
DICTIONARY
  5
12
330
11
100
AcDbDictionary
280
     1
281
     1
  3
BUMPTILE
360
14
  3
DIFFUSETILE
360
13
  3
OPACITYTILE
360
17
  3
REFLECTIONTILE
360
16
  3
REFRACTIONTILE
360
18
  3
SPECULARTILE
360
15
  0
DICTIONARY
  5
22
330
21
100
AcDbDictionary
280
     1
281
     1
  3
BUMPTILE
360
24
  3
DIFFUSETILE
360
23
  3
OPACITYTILE
360
27
  3
REFLECTIONTILE
360
26
  3
REFRACTIONTILE
360
28
  3
SPECULARTILE
360
25
  0
DICTIONARY
  5
15F
330
65
100
AcDbDictionary
280
     1
281
     1
  3
ACAD_ROUNDTRIP_2008_TABLESTYLE_CELLSTYLEMAP
360
160
  0
XRECORD
  5
1C
102
{ACAD_REACTORS
330
1A
102
}
330
1A
100
AcDbXrecord
280
     1
270
     1
271
     1
  0
XRECORD
  5
1B
102
{ACAD_REACTORS
330
1A
102
}
330
1A
100
AcDbXrecord
280
     1
270
     1
271
     1
  0
XRECORD
  5
1F
102
{ACAD_REACTORS
330
1A
102
}
330
1A
100
AcDbXrecord
280
     1
270
     1
271
     1
  0
XRECORD
  5
1E
102
{ACAD_REACTORS
330
1A
102
}
330
1A
100
AcDbXrecord
280
     1
270
     1
271
     1
  0
XRECORD
  5
20
102
{ACAD_REACTORS
330
1A
102
}
330
1A
100
AcDbXrecord
280
     1
270
     1
271
     1
  0
XRECORD
  5
1D
102
{ACAD_REACTORS
330
1A
102
}
330
1A
100
AcDbXrecord
280
     1
270
     1
271
     1
  0
XRECORD
  5
14
102
{ACAD_REACTORS
330
12
102
}
330
12
100
AcDbXrecord
280
     1
270
     1
271
     1
  0
XRECORD
  5
13
102
{ACAD_REACTORS
330
12
102
}
330
12
100
AcDbXrecord
280
     1
270
     1
271
     1
  0
XRECORD
  5
17
102
{ACAD_REACTORS
330
12
102
}
330
12
100
AcDbXrecord
280
     1
270
     1
271
     1
  0
XRECORD
  5
16
102
{ACAD_REACTORS
330
12
102
}
330
12
100
AcDbXrecord
280
     1
270
     1
271
     1
  0
XRECORD
  5
18
102
{ACAD_REACTORS
330
12
102
}
330
12
100
AcDbXrecord
280
     1
270
     1
271
     1
  0
XRECORD
  5
15
102
{ACAD_REACTORS
330
12
102
}
330
12
100
AcDbXrecord
280
     1
270
     1
271
     1
  0
XRECORD
  5
24
102
{ACAD_REACTORS
330
22
102
}
330
22
100
AcDbXrecord
280
     1
270
     1
271
     1
  0
XRECORD
  5
23
102
{ACAD_REACTORS
330
22
102
}
330
22
100
AcDbXrecord
280
     1
270
     1
271
     1
  0
XRECORD
  5
27
102
{ACAD_REACTORS
330
22
102
}
330
22
100
AcDbXrecord
280
     1
270
     1
271
     1
  0
XRECORD
  5
26
102
{ACAD_REACTORS
330
22
102
}
330
22
100
AcDbXrecord
280
     1
270
     1
271
     1
  0
XRECORD
  5
28
102
{ACAD_REACTORS
330
22
102
}
330
22
100
AcDbXrecord
280
     1
270
     1
271
     1
  0
XRECORD
  5
25
102
{ACAD_REACTORS
330
22
102
}
330
22
100
AcDbXrecord
280
     1
270
     1
271
     1
  0
CELLSTYLEMAP
  5
160
102
{ACAD_REACTORS
330
15F
102
}
330
15F
100
AcDbCellStyleMap
 90
        3
300
CELLSTYLE
  1
TABLEFORMAT_BEGIN
 90
        5
170
     1
 91
        0
 92
    32768
 62
   257
 93
        1
300
CONTENTFORMAT
  1
CONTENTFORMAT_BEGIN
 90
        0
 91
        0
 92
      512
 93
        0
300

 40
0.0
140
1.0
 94
        5
 62
     0
340
55
144
0.25
309
CONTENTFORMAT_END
171
     0
 94
        0
309
TABLEFORMAT_END
  1
CELLSTYLE_BEGIN
 90
        1
 91
        1
300
_TITLE
309
CELLSTYLE_END
300
CELLSTYLE
  1
TABLEFORMAT_BEGIN
 90
        5
170
     1
 91
        0
 92
        0
 62
   257
 93
        1
300
CONTENTFORMAT
  1
CONTENTFORMAT_BEGIN
 90
        0
 91
        0
 92
      512
 93
        0
300

 40
0.0
140
1.0
 94
        5
 62
     0
340
55
144
0.18
309
CONTENTFORMAT_END
171
     0
 94
        0
309
TABLEFORMAT_END
  1
CELLSTYLE_BEGIN
 90
        2
 91
        1
300
_HEADER
309
CELLSTYLE_END
300
CELLSTYLE
  1
TABLEFORMAT_BEGIN
 90
        5
170
     1
 91
        0
 92
        0
 62
   257
 93
        1
300
CONTENTFORMAT
  1
CONTENTFORMAT_BEGIN
 90
        0
 91
        0
 92
      512
 93
        0
300

 40
0.0
140
1.0
 94
        2
 62
     0
340
55
144
0.18
309
CONTENTFORMAT_END
171
     0
 94
        0
309
TABLEFORMAT_END
  1
CELLSTYLE_BEGIN
 90
        3
 91
        2
300
_DATA
309
CELLSTYLE_END
  0
ENDSEC
  0
EOF
